<?xml version="1.0" standalone="no"?>
<!DOCTYPE svg PUBLIC "-//W3C//DTD SVG 20010904//EN"
 "http://www.w3.org/TR/2001/REC-SVG-20010904/DTD/svg10.dtd">
<svg version="1.0" xmlns="http://www.w3.org/2000/svg"
 width="547.000000pt" height="277.000000pt" viewBox="0 0 547.000000 277.000000"
 preserveAspectRatio="xMidYMid meet" >

<g transform="translate(0.000000,277.000000) scale(0.100000,-0.100000)"
fill="#000000" stroke="none">
<path d="M1160 2010 l0 -200 -102 0 c-139 0 -221 -15 -291 -53 -80 -42 -139
-103 -179 -185 -32 -64 -33 -72 -33 -182 0 -104 3 -120 27 -173 57 -121 182
-216 311 -237 224 -35 435 113 476 335 7 36 11 218 11 477 l0 418 -110 0 -110
0 0 -200z m0 -527 c0 -60 -5 -125 -11 -146 -16 -59 -71 -114 -135 -134 -51
-16 -57 -16 -109 1 -141 44 -186 223 -82 324 50 49 95 61 225 62 l112 0 0
-107z"/>
<path d="M2673 1799 c-99 -19 -181 -77 -216 -151 -24 -50 -22 -139 3 -188 34
-67 109 -109 289 -161 120 -35 151 -51 151 -79 0 -73 -186 -72 -335 3 l-39 20
-28 -34 c-16 -19 -40 -51 -55 -72 -25 -36 -26 -38 -7 -52 42 -31 152 -78 228
-97 184 -47 363 10 427 135 48 93 31 198 -43 262 -43 36 -103 61 -277 117
-119 37 -138 55 -103 90 19 20 33 23 95 22 60 0 138 -16 200 -40 13 -5 117
117 117 137 0 17 -135 72 -209 85 -85 15 -136 16 -198 3z"/>
<path d="M3510 1796 c-130 -28 -228 -105 -287 -224 -37 -73 -38 -80 -38 -181
0 -99 2 -111 32 -174 102 -215 355 -303 569 -197 176 86 268 311 204 499 -51
153 -171 256 -327 281 -70 12 -83 12 -153 -4z m181 -236 c88 -46 125 -170 77
-260 -74 -137 -272 -138 -345 -1 -91 173 92 350 268 261z"/>
<path d="M4430 1796 c-130 -28 -228 -105 -287 -224 l-38 -76 -3 -253 -4 -253
111 0 111 0 0 222 c0 206 1 225 21 266 24 49 87 96 144 106 78 15 173 -35 206
-108 16 -36 19 -68 19 -263 l0 -223 115 0 115 0 0 208 c0 115 -5 235 -11 268
-30 167 -175 306 -346 334 -70 12 -83 12 -153 -4z"/>
<path d="M1490 1576 c0 -117 5 -238 10 -267 23 -122 99 -225 208 -282 122 -64
249 -68 350 -12 25 14 46 24 48 22 6 -6 -25 -136 -40 -164 -27 -53 -89 -100
-149 -113 -72 -16 -128 -7 -210 35 l-68 33 -49 -66 c-27 -37 -49 -72 -50 -79
0 -19 110 -82 183 -104 55 -17 87 -20 175 -17 95 3 115 7 173 35 92 43 142 92
184 177 61 126 67 175 72 619 l5 397 -110 0 -111 0 -3 -228 -3 -229 -30 -48
c-70 -113 -214 -127 -307 -28 -15 15 -31 40 -37 55 -6 15 -13 129 -17 253 l-7
225 -109 0 -108 0 0 -214z"/>
</g>
</svg>
