<svg width="188" height="176" viewBox="0 0 188 176" fill="none" xmlns="http://www.w3.org/2000/svg">
<path d="M128.1 172.32L92.43 172.7L56.75 170.94L21.28 153.31L4 117.83L8.22 86.8L3 55.77L15.74 14.76L56.75 7.47L92.43 3.66L128.1 3L161.8 22.07L183.29 55.77L176.16 86.8L184.78 117.83L165.86 155.59L128.1 172.32Z" stroke="white" stroke-width="5" stroke-miterlimit="10"/>
<path d="M137.76 87.0499L125.42 119.93L92.5305 131.56L61.3505 118.24L45.2305 87.0499L60.1505 54.6699L92.5305 40.4399L124.55 55.0299L137.76 87.0499Z" stroke="white" stroke-width="5" stroke-miterlimit="10"/>
<path d="M152.701 36.0599L144.521 44.8799L136.421 36.0599L144.521 27.9399L152.701 36.0599Z" fill="white"/>
<path d="M152.701 36.0599L144.521 44.8799L136.421 36.0599L144.521 27.9399L152.701 36.0599Z" stroke="white" stroke-width="5" stroke-miterlimit="10"/>
</svg>
