<svg width="169" height="164" viewBox="0 0 169 164" fill="none" xmlns="http://www.w3.org/2000/svg">
<path d="M39.93 157.2L3.01 157.28L3 129.95L7.09 103.95L3.41 77.9399L6.45 55.2499L40.67 49.6899L42.71 77.9399L37.34 103.94L42.88 129.87L39.93 157.2Z" stroke="white" stroke-width="5" stroke-miterlimit="10"/>
<path d="M164.74 85.94L165.81 109.44L161.57 132.94L160.37 156.25L122.98 160.74L125.05 135.94L125.09 115.43L126.35 94.92L125.24 85.95L108.5 81.93L97.38 95.32L89.51 115.77L89.24 136.11L91.39 154.54L60.58 152.29L53.71 130.45L59.26 104.45L55.17 78.44L60.16 56.02L91.16 56.52L91.77 61.05L122.5 46.27L140.88 55.97L158.55 65.4L164.74 85.94Z" stroke="white" stroke-width="5" stroke-miterlimit="10"/>
<path d="M38.24 21.44L21.5 41.21L4.29004 21.44L21.5 4L38.24 21.44Z" stroke="white" stroke-width="5" stroke-miterlimit="10"/>
</svg>
