<?xml version="1.0" encoding="UTF-8"?>
<svg id="Calque_1" data-name="Calque 1" xmlns="http://www.w3.org/2000/svg" viewBox="0 0 406.47 652.94">
  <defs>
    <style>
      .cls-1 {
        fill: #202529;
      }

      .cls-1, .cls-2, .cls-3 {
        stroke-width: 0px;
      }

      .cls-2 {
        fill: #f7f8f9;
      }

      .cls-3 {
        fill: #f8f9fa;
      }
    </style>
  </defs>
  <g>
    <g>
      <path class="cls-2" d="M195.92,575.35v.07s-.06,0-.1,0c0-.04,0-.06,0-.09.03,0,.06.02.09.03Z"/>
      <path class="cls-3" d="M199.11,578.61h-3.18c-.19,0-.49-.01-.85-.1l-3.09-.75.67-2.76v-4.04s6.46,2.09,6.46,2.09v5.56ZM195.92,572.24v2.77s.66-2.69.66-2.69c-.29-.07-.54-.08-.66-.08Z"/>
    </g>
    <g>
      <path class="cls-2" d="M196.22,575.46c-.1-.04-.2-.07-.3-.11,0-.11,0-.22,0-.34.09.15.19.29.29.45Z"/>
      <path class="cls-3" d="M204.05,581.7l-11.31-4.12v-2.23c0-.1,0-.2,0-.29v-11.15l6.15,9.82,5.15,7.97Z"/>
    </g>
    <g>
      <path class="cls-2" d="M401.79,325.27c.5-3.24,1.77-6.53,1.44-9.67-.94-9.02-6.97-14.83-16.15-15.96-2.35-6.28-7.28-9.78-13.99-10.98.77-13.2-5.12-22.9-14.05-31.19-1.4-1.3-2.82-2.59-4.2-3.92-15.47-14.77-34.03-17.94-54.31-14.26-10.61,1.92-20.12,6.71-29.22,12.24-9.08,5.5-17.91,11.43-26.86,17.15-1.56.99-3.19,1.9-5.14,3.06-.66-2.14-1.12-3.77-1.68-5.37-2.16-6.13-4.8-12.01-9.64-16.55-6.16-5.77-13.24-4.65-17.35,2.72-1.01,1.81-1.76,3.8-2.34,5.79-1.74,6.1-2.17,12.33-1.52,18.65.28,2.73.55,5.47.83,8.13-11.99,3.36-90.07.96-99.54-2.98,1.51-7.7,2.75-15.48.99-23.28-.78-3.5-1.96-7.11-3.86-10.12-3.05-4.88-8.34-5.97-13.18-2.84-2.71,1.76-5.11,4.21-7.12,6.77-3.92,4.98-6.16,10.87-7.99,16.9-.43,1.39-.96,2.75-1.57,4.46-6.5-3.87-12.66-7.21-16.2-13.63-5.98-10.8-7.82-26.94,6.38-38.78,14.02-11.68,30.15-18.55,48.53-19.57,11.19-.63,22.25.8,33.26,2.65,5.58.94,11.13,2.03,17.01,3.1-.47,1.96-.75,3.29-1.12,4.61-1.86,6.8-2.29,13.74-1.78,20.73.38,5.26,1.44,10.4,4.41,14.87,3.82,5.77,9.91,6.89,15.26,2.52,2.51-2.06,4.9-4.64,6.36-7.5,2.52-4.91,4.62-10.12,6.22-15.42,1.41-4.6,1.89-9.49,2.72-13.98,17.27.53,34.43,1.05,51.47,1.57.94,2.97,1.5,5.95,2.77,8.59,1.72,3.57,3.53,7.28,6.1,10.23,4.99,5.75,12.13,5.41,16.4-.87,2.38-3.5,3.97-7.71,5.2-11.83,1.14-3.77,1.34-7.82,2-12.11,2.43-.92,4.98-1.86,7.6-2.85,1.23,1.89,2.11,3.62,3.34,5.05,1.8,2.09,3.62,4.32,5.86,5.87,4.65,3.21,9.62,2.04,12.57-2.78,1.06-1.75,2.02-3.77,2.3-5.76.71-5.15,1.01-10.35,1.53-16.09,2.2-1.75,4.98-3.84,7.63-6.08,9.78-8.23,16.66-18.37,18.62-31.15,1.11-7.2,1.44-14.57,1.49-21.88.15-18.66-10.22-31.28-28.59-35.08-4.41-.91-8.97-1.14-13.45-1.72-26.57-3.48-52.78-.25-78.93,4.02-.21.73-.38,1.21-.47,1.7-4.98,29.79-21.51,51.2-47.74,65.43-12.4,6.73-25.76,9.38-39.85,7.97-2.25-.22-4.71-.04-6.86-2.34,1.74,0,2.94-.05,4.13,0,18.5.83,35.58-3.65,50.94-14.05,28.24-19.12,41.19-53.65,33.26-88.26C203.58,26.99,160.76-2.62,116.72,4.16c-44.34,6.82-74.74,47.7-68.5,92.25.74,5.29,1.94,10.52,2.94,15.88-1.46.72-2.9,1.32-4.24,2.12-8.04,4.8-13.42,11.54-14.79,21.02-1.22,8.35,3.72,15.65,11.88,17.77,6.92,1.8,13.08-.31,18.82-3.98,2.3-1.47,4.38-3.31,6.8-5.18,2,2.1,3.88,4.08,5.89,6.2-1.38.84-2.38,1.53-3.46,2.06-23.81,12.07-40.02,31.41-52.22,54.59-7.84,14.89-10.09,30.8-7.39,47.18,3.49,21.1,15.04,37.22,32.97,48.67,14.34,9.15,29.78,15.82,46.45,19.51,1.91.43,4.97.36,4.25,3.24-.61,2.43-3.32,1.1-5.04.76-4.03-.77-8.01-1.84-12.16-2.81-6.43,16.24-12.72,32.05-18.92,47.68-8.41,1.79-15.97,3.98-15.88,14.17-1.44.22-2.47.35-3.5.53-18.31,3.07-30.22,13.78-35.56,31.26-3.98,13.03-1.7,25.33,8.13,35.31,2.86,2.89,4.92,5.59,4.75,9.71-.03.51.1,1.04.2,1.55,3.31,16.39,18.99,24.91,33.15,17.79.72-.35,1.5-.6,2.2-.88.55.66.93,1.04,1.21,1.46,5.97,8.83,14.37,11.62,24.55,9.82,12.92-2.27,24.58-14.11,26.61-27.02.43-2.72.37-5.5.54-8.09,23.69-15.23,21.22-51.72-7.46-61.48,3.58-7.14,3.09-9.07-4.55-17.21,6.18-15.17,12.38-30.44,18.94-46.59,1.84,2.28,3.05,3.76,4.2,5.27,21.45,27.89,42.86,55.82,64.38,83.69,12.23,15.85,24.59,31.63,37.02,47.35,1.82,2.29,2.21,4.31,1.53,7.13-7.16,29.8-14.24,59.62-21.15,89.47-.76,3.3-2.11,4.86-5.37,5.93-13.12,4.32-22.13,12.93-25.68,26.55-3.93,15.08.17,28.94,7,42.25.53,1.05,2.07,1.83,3.3,2.19,3.99,1.18,8.02,2.34,12.12,3.11,18.55,3.51,37.35,4.61,56.14,5.14,18.8.51,37.63.05,56.44-.27,8.35-.15,16.68-1.14,25.03-1.53,6.09-.28,9.37-3.65,10.97-9.16.34-1.17.66-2.35.91-3.54,4.75-23.54-8.83-47.96-31.42-56.2-10.74-3.92-21.56-3.82-32.03.99-3.59,1.66-6.82,4.09-10.07,6.09-5.69-3.14-11.17-6.54-16.99-9.25-5.91-2.77-12.14-4.84-18.34-7.26.19-.95.33-1.8.53-2.65,7.47-30.62,14.83-61.26,22.49-91.82,2.03-8.11.69-14.82-4.61-21.39-13.77-17.09-27.2-34.47-40.69-51.79-14.67-18.83-29.25-37.72-43.87-56.6-.83-1.06-1.54-2.22-2.7-3.93,5.92.81,11.15,1.53,16.63,2.28,0,2.66.18,5.08-.05,7.46-.29,2.97.56,5.31,2.4,7.66,8.07,10.28,15.97,20.69,23.96,31.02.77,1,1.75,1.86,3.34,3.53.62-16.96,1.2-32.87,1.78-48.5,3.73-1.15,5.6.29,7.67,2.64,12.62,14.42,25.06,29.02,38.33,42.83,9.37,9.76,14.23,11.92,27.58,3.87,11.17-6.73,21.82-14.32,32.58-21.71,2.69-1.85,4.94-2.84,8.5-2.06,7.7,1.72,11.36-1.5,11.95-9.42.04-.48.26-.94.4-1.36,3.18.46,6.27,1.21,9.37,1.31,3.28.09,6.59-.45,9.89-.67,1.68-.12,3.27-.52,4.67,1.28,3.51,4.55,8.4,5.4,13.65,4.03,13.04-3.41,21.19-12.13,25.77-24.47,1.36-3.64,1.5-7.42.39-11.29-.37-1.31.27-2.92.51-4.38ZM59.9,140.77c-7.27,3.8-14.65-.6-14.46-8.77.14-5.75,2.77-10.21,8.09-13.1,3.58,6.4,7.04,12.57,10.62,18.96-1.4.96-2.73,2.12-4.25,2.91ZM195.92,575.35v.07s-.06,0-.1,0c0-.04,0-.06,0-.09.03,0,.06.02.09.03,0-.11,0-.22,0-.34.09.15.19.29.29.45-.1-.04-.2-.07-.3-.11ZM297.61,346.98c-7.4,4.52-15.94,9.71-24.75,15.08-5.92-7.12-11.73-14.13-18.06-21.74,15.82-1.76,30.73-3.43,45.25-5.05-.71,3.37-1.45,6.92-2.45,11.71Z"/>
      <path class="cls-3" d="M265.05,652.94c-6.12,0-12.24-.06-18.32-.23-16.96-.48-36.96-1.47-56.65-5.19-4.26-.8-8.47-2.01-12.43-3.19-1.17-.35-4.03-1.41-5.24-3.81-11.19-21.82-9.5-35.84-7.24-44.49,3.69-14.18,12.97-23.84,27.58-28.71v-3.41l1.7,2.71c.98-.58,1.38-1.37,1.75-2.98,6.21-26.8,13.13-56.07,21.16-89.51.47-1.93.26-2.92-.93-4.41-13.34-16.86-25.46-32.36-37.05-47.38-14.74-19.09-29.67-38.52-44.11-57.32-6.76-8.79-13.51-17.59-20.27-26.37-.25-.33-.51-.66-.77-.99-5.55,13.66-10.86,26.72-16.14,39.7,5.9,6.49,7.47,9.96,5.11,16.13,12.36,5.38,20.56,16.13,22.17,29.35,1.71,14.01-4.35,27.52-15.89,35.64-.01.29-.02.58-.03.88-.07,1.92-.14,3.91-.46,5.95-2.22,14.14-15.05,27.16-29.2,29.66-11.71,2.07-20.9-1.48-27.32-10.56-7.23,3.56-15.39,3.65-22.41.24-7.71-3.75-13.2-11.17-15.05-20.36l-.04-.2c-.11-.55-.26-1.3-.22-2.14.12-2.77-1.2-4.64-3.83-7.31-10.33-10.48-13.41-23.78-8.91-38.48,5.7-18.67,18.87-30.24,38.08-33.46.33-.06.66-.11,1-.16,1.25-10.06,9.89-12.67,16.58-14.15l6.03-15.18c4.04-10.17,8.12-20.46,12.27-30.92l.42-1.06c-11.26-3.83-22.2-9.11-32.66-15.79-19.28-12.3-30.85-29.4-34.39-50.83-2.88-17.46-.28-34,7.71-49.19,13.87-26.35,31.35-44.62,53.45-55.87-.38-.4-.76-.8-1.15-1.21-1.59,1.28-3.1,2.48-4.79,3.56-7.43,4.75-14.41,6.19-21.34,4.38-9.84-2.57-15.69-11.33-14.23-21.32,1.43-9.85,6.91-17.68,16.31-23.3.76-.45,1.52-.84,2.28-1.2-.18-.91-.36-1.82-.54-2.73-.71-3.55-1.45-7.22-1.96-10.89-3.13-22.37,2.51-44.6,15.89-62.61C74.32,16.24,93.96,4.44,116.24,1.01c45.86-7.06,90.04,23.47,100.58,69.5,2.1,9.17,2.78,18.34,2.13,27.25l.85-.14c23.85-3.89,51.66-7.73,79.86-4.03,1.49.19,3.03.35,4.53.5,3,.31,6.09.62,9.15,1.25,19.94,4.13,31.29,18.06,31.13,38.23-.07,9.04-.54,15.92-1.53,22.34-1.93,12.57-8.57,23.71-19.72,33.1-1.91,1.61-3.88,3.15-5.62,4.5-.34.27-.68.53-1.01.79-.1,1.22-.2,2.41-.3,3.59-.32,3.9-.62,7.58-1.13,11.28-.3,2.16-1.22,4.5-2.74,6.98-1.92,3.13-4.69,5.22-7.8,5.88-3.11.66-6.32-.08-9.3-2.14-2.38-1.64-4.21-3.78-5.98-5.85l-.48-.56c-.88-1.03-1.57-2.1-2.26-3.23-1.15.43-2.28.85-3.39,1.27-.09.67-.17,1.33-.25,1.99-.36,2.88-.72,5.86-1.59,8.72-1.03,3.42-2.73,8.45-5.62,12.7-2.62,3.85-6.28,6.09-10.31,6.33-4.07.24-8.03-1.59-11.13-5.16-2.9-3.33-4.85-7.37-6.57-10.94-1-2.06-1.59-4.22-2.16-6.31-.05-.18-.1-.37-.15-.55-11.04-.34-22.12-.68-33.26-1.02l-13.13-.4c-.07.43-.14.86-.21,1.29-.53,3.39-1.09,6.89-2.14,10.35-1.66,5.49-3.83,10.85-6.43,15.94-1.9,3.73-4.95,6.69-7.17,8.51-3.28,2.68-6.92,3.8-10.54,3.25-3.66-.55-6.99-2.86-9.39-6.48-3.76-5.67-4.62-12.07-4.93-16.4-.58-7.9.04-15.03,1.89-21.8.11-.41.22-.82.32-1.25-.82-.15-1.63-.3-2.43-.45-3.87-.72-7.53-1.41-11.24-2.03-10.29-1.73-21.35-3.24-32.55-2.61-17.11.95-32.81,7.29-46.67,18.83-12.56,10.46-11.14,24.83-5.63,34.79,2.55,4.62,6.76,7.48,11.72,10.46.08-.23.15-.46.22-.69,1.73-5.7,4.1-12.3,8.53-17.93,2.51-3.19,5.17-5.7,7.89-7.47,3.1-2.01,6.57-2.72,9.77-2,3.2.71,5.91,2.73,7.84,5.83,1.86,2.95,3.25,6.59,4.26,11.12,1.67,7.4.84,14.74-.43,21.71,14.9,3.09,76.21,4.87,92.41,2.67l-.04-.44c-.16-1.59-.32-3.19-.49-4.79-.71-6.88-.17-13.55,1.62-19.85.71-2.44,1.59-4.61,2.62-6.46,2.48-4.44,6.1-7.24,10.21-7.88,4.1-.64,8.39.92,12.1,4.39,5.51,5.17,8.38,11.9,10.47,17.81.19.55.37,1.09.55,1.64.54-.32,1.06-.64,1.57-.96,2.88-1.84,5.76-3.71,8.64-5.58,5.95-3.86,12.1-7.85,18.28-11.6,7.82-4.75,18.33-10.49,30.3-12.65,23.33-4.23,42,.71,57.07,15.09,1.01.97,2.03,1.91,3.04,2.85l1.13,1.04c10.24,9.5,15.1,19.42,15.14,31.01,6.02,1.71,10.45,5.34,12.97,10.62,9.72,1.87,16.05,8.67,17.07,18.5.28,2.64-.29,5.13-.85,7.54-.24,1.03-.46,2.01-.61,2.94v.02c-.08.48-.2.98-.31,1.48-.12.52-.3,1.3-.27,1.56,1.28,4.45,1.12,8.92-.48,13.22-5.21,14.05-14.62,22.95-27.95,26.44-7.07,1.85-12.94.06-16.98-5.16-.1-.13-.15-.17-.16-.17-.13-.03-.72.03-1.11.06-.22.02-.43.04-.65.05-1.1.07-2.19.18-3.27.29-2.24.22-4.56.46-6.92.39-2.32-.08-4.57-.46-6.73-.84-.62,4.07-2.12,6.95-4.57,8.76-2.71,2.01-6.42,2.51-11.02,1.48-2.41-.53-3.75.03-6,1.57-1.93,1.33-3.86,2.66-5.79,3.99-8.7,6.02-17.71,12.25-26.95,17.82-14.9,8.98-21.49,6.06-31.52-4.39-10.94-11.39-21.46-23.47-31.64-35.16-2.26-2.6-4.52-5.19-6.79-7.78-.92-1.05-1.54-1.62-2.19-1.85-.55,14.75-1.1,29.78-1.68,45.73l-.24,6.68,6.29,8.08c11.14,14.32,22.66,29.13,34.23,43.49,5.86,7.27,7.52,14.95,5.22,24.16-5.64,22.51-11.21,45.44-16.6,67.62-1.95,8.02-3.9,16.04-5.85,24.06,1.06.4,2.12.8,3.18,1.19,4.25,1.58,8.65,3.22,12.86,5.19,4.19,1.95,8.24,4.27,12.15,6.5,1.13.64,2.26,1.29,3.39,1.93.46-.3.91-.6,1.37-.9,2.34-1.54,4.77-3.13,7.47-4.38,11-5.05,22.59-5.42,34.45-1.09,24.17,8.82,38.55,34.53,33.45,59.82-.27,1.31-.61,2.54-.97,3.78-2.12,7.28-6.79,11.14-13.88,11.46-3.42.16-6.92.43-10.3.69-4.84.37-9.85.76-14.82.84l-6.55.12c-10.41.19-21.05.38-31.71.38ZM178.04,637.53c.18.16.71.48,1.42.69,3.96,1.17,7.83,2.29,11.8,3.04,19.26,3.65,38.93,4.62,55.64,5.09,16.54.45,33.42.14,49.74-.16l6.56-.12c4.79-.08,9.7-.46,14.44-.83,3.43-.26,6.98-.54,10.49-.7,4.31-.2,6.72-2.25,8.06-6.87.32-1.11.63-2.21.85-3.29,4.48-22.21-8.15-44.81-29.39-52.56-10.23-3.73-20.19-3.43-29.61.89-2.26,1.04-4.48,2.5-6.63,3.91-1.04.68-2.07,1.36-3.1,1.99l-1.58.97-1.62-.9c-1.72-.95-3.42-1.92-5.12-2.89-3.97-2.27-7.73-4.42-11.68-6.26-3.98-1.86-8.07-3.38-12.39-5-1.92-.72-3.84-1.43-5.76-2.18l-2.49-.97.53-2.62c.07-.33.13-.65.18-.96.12-.62.23-1.21.37-1.8,1.97-8.08,3.93-16.14,5.89-24.2,5.39-22.19,10.96-45.13,16.61-67.66,1.83-7.31.63-12.88-4-18.62-11.6-14.4-23.14-29.23-34.3-43.58l-6.42-8.25c-10.76-13.81-21.66-27.89-32.19-41.51l-11.68-15.1c-.63-.81-1.18-1.64-1.83-2.61-.3-.45-.62-.93-.99-1.48l-4.03-5.91,7.09.97c5.92.81,11.15,1.53,16.63,2.28l2.75.38v2.78c0,.81.02,1.6.03,2.37.04,1.76.08,3.57-.09,5.39-.2,2,.31,3.56,1.74,5.39,5.29,6.74,10.6,13.65,15.73,20.32,2.06,2.68,4.12,5.36,6.18,8.03.51-13.99,1-27.32,1.49-40.46l.08-2.26,2.16-.66c5.43-1.67,8.49.73,10.99,3.58,2.27,2.6,4.54,5.2,6.8,7.8,10.13,11.63,20.6,23.66,31.43,34.93,8.67,9.03,11.89,10.43,23.64,3.34,9.08-5.47,17.99-11.64,26.62-17.6,1.93-1.34,3.87-2.68,5.81-4.01,3.29-2.25,6.41-3.54,10.98-2.54,2.72.61,4.69.48,5.85-.38,1.25-.93,2.01-3.01,2.24-6.17.06-.8.3-1.44.46-1.86.03-.08.06-.15.08-.23l.82-2.57,2.67.39c1.04.15,2.06.33,3.08.51,2.08.36,4.03.71,5.93.77,1.95.06,3.97-.15,6.1-.36,1.16-.12,2.32-.23,3.47-.31.16-.01.34-.03.51-.04,1.61-.14,4.59-.41,6.88,2.56,2.42,3.13,5.8,4.08,10.33,2.9,11.36-2.97,19.08-10.33,23.59-22.5,1.12-3.01,1.22-6.13.32-9.3-.5-1.74-.11-3.39.2-4.72.08-.35.17-.69.22-1.02.18-1.17.44-2.3.7-3.4.46-1.98.89-3.86.72-5.44-.78-7.51-5.53-12.17-13.37-13.13l-1.92-.24-.68-1.81c-1.86-4.97-5.64-7.9-11.57-8.96l-2.78-.5.17-2.82c.63-10.72-3.52-19.83-13.04-28.67l-1.12-1.03c-1.05-.97-2.1-1.94-3.13-2.93-13.48-12.87-30.34-17.27-51.53-13.43-10.94,1.98-20.78,7.36-28.13,11.83-6.1,3.7-12.21,7.66-18.11,11.5-2.89,1.88-5.78,3.76-8.69,5.61-1.1.7-2.22,1.35-3.4,2.04-.58.34-1.19.69-1.83,1.08l-3.47,2.06-1.2-3.85c-.21-.69-.41-1.32-.59-1.92-.37-1.24-.7-2.31-1.06-3.33-1.92-5.44-4.32-11.06-8.82-15.28-2.27-2.13-4.61-3.08-6.76-2.74-2.16.34-4.1,1.96-5.63,4.69-.8,1.43-1.49,3.15-2.06,5.12-1.56,5.5-2.04,11.37-1.41,17.44.17,1.6.33,3.21.49,4.8l.61,6-2.58.72c-12.63,3.54-91.47,1.12-101.62-3.11l-2.4-1,.5-2.55c1.46-7.45,2.64-14.73,1.01-21.96-.84-3.76-2-6.83-3.45-9.13-1.02-1.63-2.34-2.66-3.83-2.99-1.54-.34-3.24.05-4.92,1.13-2.14,1.38-4.27,3.42-6.35,6.06-3.78,4.8-5.88,10.71-7.44,15.86-.32,1.04-.68,2.03-1.07,3.09-.18.48-.36.98-.55,1.52l-1.3,3.65-4.56-2.71c-6.38-3.77-12.4-7.33-16.13-14.09-6.74-12.18-8.41-29.81,7.13-42.76,14.93-12.44,31.89-19.27,50.39-20.3,11.83-.66,23.31.9,33.96,2.69,3.77.63,7.45,1.32,11.35,2.05,1.87.35,3.77.71,5.7,1.06l3.31.61-.79,3.27c-.16.68-.3,1.28-.43,1.83-.25,1.08-.46,1.98-.71,2.88-1.65,6.05-2.2,12.48-1.68,19.65.42,5.82,1.62,9.93,3.89,13.34,1.42,2.14,3.16,3.42,5.04,3.7,1.79.27,3.71-.38,5.56-1.89,2.51-2.05,4.42-4.29,5.54-6.47,2.44-4.75,4.46-9.76,6.01-14.89.93-3.04,1.45-6.32,1.95-9.49.22-1.41.44-2.79.69-4.15l.5-2.69,18.63.57c11.91.36,23.77.72,35.57,1.09l2.26.07.68,2.16c.31.98.58,1.96.84,2.93.52,1.9,1.02,3.69,1.76,5.23,1.55,3.21,3.3,6.84,5.64,9.53,1.78,2.05,3.91,3.11,5.95,2.99,2.02-.12,3.94-1.38,5.42-3.56,2.39-3.52,3.88-7.94,4.79-10.95.71-2.34,1.03-4.93,1.37-7.67.16-1.3.33-2.64.54-4.01l.28-1.83,1.74-.66c1.78-.67,3.63-1.36,5.53-2.07l4.48-1.68,1.39,2.14c.41.63.78,1.24,1.14,1.83.68,1.13,1.28,2.1,1.94,2.87l.49.57c1.58,1.84,3.07,3.58,4.77,4.76,1.05.72,2.65,1.51,4.36,1.15,1.4-.3,2.68-1.32,3.68-2.97,1.06-1.73,1.68-3.26,1.86-4.54.49-3.52.78-7.11,1.09-10.92.13-1.63.27-3.3.42-5.01l.12-1.36,1.07-.85c.66-.53,1.38-1.08,2.12-1.66,1.69-1.32,3.62-2.82,5.44-4.35,10.08-8.48,15.81-18.03,17.52-29.2.94-6.1,1.39-12.7,1.46-21.42.13-17.09-9.12-28.44-26.05-31.94-2.74-.57-5.55-.85-8.51-1.16-1.54-.16-3.13-.32-4.7-.52-26.55-3.48-53.01-.03-75.95,3.67-5.09,29.55-21.66,52.15-49.26,67.12-12.91,7.01-26.93,9.81-41.69,8.34-.28-.03-.58-.05-.88-.07-2.24-.16-5.3-.37-7.99-3.26l-5-5.36h7.32c.57,0,1.09,0,1.56,0,.98-.01,1.83-.02,2.71.02,18.08.81,34.58-3.74,49.01-13.51,27.03-18.3,39.57-51.63,31.94-84.92-4.72-20.62-16.97-38.64-34.49-50.76-17.5-12.1-38.43-17.03-58.92-13.88-20.62,3.17-38.78,14.09-51.14,30.73-12.37,16.65-17.59,37.22-14.69,57.93.49,3.49,1.17,6.91,1.89,10.52.35,1.73.69,3.46,1.02,5.22l.44,2.37-2.16,1.07c-.47.23-.94.46-1.41.68-.93.44-1.82.85-2.6,1.32-7.78,4.65-12.12,10.78-13.27,18.75-.97,6.67,2.95,12.52,9.53,14.24,5.19,1.35,10.37.21,16.3-3.58,1.44-.92,2.84-2.05,4.33-3.25.72-.58,1.46-1.18,2.24-1.78l2.27-1.75,2.89,3.03c1.67,1.76,3.29,3.45,4.99,5.26l2.71,2.87-3.37,2.04c-.43.26-.82.5-1.18.73-.84.53-1.63,1.02-2.5,1.46-20.94,10.61-37.57,28.02-50.83,53.22-7.33,13.93-9.71,29.13-7.06,45.18,3.24,19.56,13.85,35.21,31.54,46.5,14.36,9.17,29.65,15.59,45.42,19.09.26.06.54.1.82.15,1.56.26,3.91.65,5.23,2.67.55.84,1.1,2.27.59,4.3-.45,1.77-1.48,2.7-2.28,3.16-1.98,1.16-4.19.56-5.66.16-.29-.08-.56-.16-.81-.2-2.88-.55-5.78-1.26-8.59-1.95-.34-.08-.68-.17-1.02-.25-3.8,9.58-7.54,19.01-11.25,28.36l-7.28,18.34-1.67.36c-9.47,2.02-13.42,4-13.36,11.03l.02,2.76-2.73.42c-.56.09-1.07.16-1.54.23-.7.1-1.31.19-1.92.29-16.9,2.84-28.02,12.61-33.04,29.05-3.82,12.5-1.35,23.32,7.36,32.15,2.86,2.9,5.9,6.46,5.66,12.08,0,.1.06.39.1.57l.04.22c1.46,7.21,5.68,13,11.59,15.88,5.36,2.61,11.4,2.5,17-.32.64-.32,1.26-.54,1.79-.74.22-.08.44-.16.65-.25l2.15-.87,1.49,1.78c.18.22.34.4.49.56.32.37.63.72.92,1.15,4.97,7.36,11.95,10.12,21.36,8.46,11.64-2.05,22.19-12.76,24.02-24.37.26-1.67.33-3.46.39-5.19.03-.88.06-1.75.12-2.6l.1-1.61,1.35-.87c10.36-6.66,15.87-18.32,14.39-30.44-1.45-11.86-9.36-21.34-21.15-25.35l-3.46-1.18,1.64-3.27c2.76-5.5,3.05-6.07-4.02-13.6l-1.4-1.49.77-1.89c6.18-15.17,12.38-30.43,18.94-46.59l2.04-5.02,4.59,5.7c1.2,1.48,2.14,2.65,3.05,3.84,6.75,8.78,13.51,17.57,20.27,26.37,14.44,18.79,29.37,38.23,44.1,57.31,11.57,15,23.68,30.48,37,47.32,2.39,3.01,3.05,6.05,2.13,9.86-8.03,33.41-14.94,62.67-21.14,89.44-.76,3.3-2.15,5.47-4.59,6.94l1.08,1.71,5.15,7.97-8.55-3.12c-.13-.01-.27-.04-.43-.08l-3.09-.75.67-2.76v-.87c-11.22,4.34-18.38,12.24-21.32,23.52-3.2,12.28-1.13,24.59,6.7,39.9ZM178.08,637.62h0s0,0,0,0ZM178,637.5h0,0ZM169.37,345.39l6.55,8.47c-.14-1.03-.15-2.09-.05-3.2.13-1.36.11-2.82.07-4.37-2.19-.3-4.36-.6-6.58-.9ZM272.17,366.22l-1.76-2.11c-4.49-5.4-8.92-10.73-13.55-16.32l-8.28-9.97,55.5-6.19-.91,4.31c-.44,2.1-.89,4.26-1.41,6.74l-1.32,6.31-1.18.72c-3.96,2.42-8.25,5.03-12.72,7.75-3.89,2.37-7.93,4.83-12.03,7.33l-2.35,1.43ZM261.03,342.83l.73.88c4.03,4.85,7.9,9.52,11.79,14.2,3.29-2.01,6.54-3.98,9.69-5.9,4.04-2.46,7.91-4.82,11.54-7.03l.75-3.61c.18-.85.35-1.66.51-2.45l-35.02,3.91ZM54.57,145.33c-2.31,0-4.54-.6-6.48-1.81-3.83-2.38-5.95-6.6-5.84-11.59.17-6.97,3.54-12.44,9.75-15.82l2.76-1.51,1.54,2.75c3.58,6.4,7.04,12.57,10.62,18.95l1.42,2.53-2.39,1.65c-.42.29-.84.6-1.26.92-1.02.76-2.07,1.54-3.32,2.19h0c-2.21,1.16-4.55,1.74-6.81,1.74ZM52.45,123.49c-2.48,2.16-3.74,5-3.82,8.59-.06,2.68.97,4.88,2.83,6.03,1.94,1.2,4.48,1.14,6.97-.16h0c.51-.27,1.03-.61,1.56-1-2.53-4.52-5.02-8.95-7.55-13.47Z"/>
    </g>
    <g>
      <path class="cls-2" d="M206.21,465.47c.77,8.37-3.28,14.37-9.52,19.2-22.19,17.15-44.39,34.25-66.59,51.36-2.75,2.13-5.47,4.28-7.94,6.21,2.59,10.44,5.11,20.55,7.7,30.95.74-.05,1.76,0,2.71-.19,12.23-2.29,23.37,3.34,28.96,14.57,4.25,8.54,4.17,17.59,2.6,26.59-.95,5.42-2.77,10.78-4.88,15.88-2.29,5.52-6.86,8.53-12.93,9.3-13.08,1.64-26.1,1.01-38.97-1.63-9.32-1.92-16.98-7.04-23.6-13.74-11.41-11.53-19.87-25.18-26.54-39.81-5.55-12.16-10.03-24.82-14.9-37.3-2.55-6.51-1.92-12.93.82-19.29,8.33-19.37,28.77-29.01,47.6-22.28,2.44.87,4.78,2.09,7,3.46,2.2,1.36,4.18,3.1,6.49,4.86,1.36-.95,2.8-1.86,4.13-2.9,21.27-16.64,42.47-33.35,63.83-49.87,2.78-2.16,3.85-4.38,3.88-7.81.05-9.05.47-18.11.76-27.17.03-.96.14-1.9.27-3.88,1.74,2.06,2.85,3.29,3.87,4.6,7.74,9.86,15.43,19.78,23.25,29.59,1.51,1.89,2.4,3.73,2.08,6.15-.14,1.03-.18,2.1-.08,3.13Z"/>
      <path class="cls-3" d="M131.9,643.43c-8.35,0-16.78-.86-25.19-2.59-9.11-1.88-17.36-6.66-25.22-14.62-10.73-10.85-19.62-24.17-27.17-40.72-4.12-9.02-7.69-18.42-11.15-27.5-1.26-3.32-2.53-6.65-3.82-9.95-2.68-6.85-2.39-14.15.86-21.71,9.03-20.98,31.21-31.31,51.6-24.02,2.45.88,4.94,2.1,7.6,3.75,1.66,1.02,3.13,2.19,4.68,3.42.09.07.17.14.26.21.72-.49,1.41-.97,2.05-1.47,6-4.69,11.99-9.39,17.98-14.09,15-11.76,30.52-23.92,45.86-35.79,1.98-1.53,2.62-2.82,2.64-5.32.04-6.74.29-13.59.52-20.2.08-2.35.17-4.7.24-7.04.02-.61.07-1.23.13-2.09.04-.52.09-1.13.14-1.91l.54-7.83,5.07,6c.56.67,1.06,1.24,1.51,1.77.95,1.11,1.71,1.99,2.44,2.93,2.41,3.07,4.82,6.15,7.23,9.23,5.22,6.68,10.62,13.59,16,20.33,1.55,1.94,3.26,4.67,2.75,8.55-.12.86-.14,1.69-.07,2.41v.02c.8,8.6-2.72,15.8-10.74,22.01-19.05,14.72-38.12,29.41-57.18,44.1l-9.42,7.26c-1.96,1.52-3.92,3.06-5.78,4.52l-.52.41c2.06,8.29,4.08,16.39,6.13,24.62l.43,1.72c13.58-2.41,25.85,3.83,32.08,16.34,5.22,10.49,4.15,21.32,2.89,28.55-.88,5.02-2.54,10.44-5.08,16.56-2.66,6.41-8.01,10.29-15.47,11.23-4.9.61-9.84.92-14.82.92ZM78.53,506.37c-13.57,0-26.44,8.46-32.47,22.48-2.6,6.05-2.85,11.57-.78,16.88,1.3,3.33,2.57,6.67,3.84,10.01,3.42,8.99,6.96,18.29,10.99,27.13,7.24,15.86,15.71,28.58,25.91,38.89,6.95,7.04,14.14,11.24,21.97,12.86,12.73,2.61,25.5,3.14,37.93,1.59,5.13-.65,8.62-3.12,10.38-7.36,2.36-5.68,3.89-10.66,4.69-15.21,1.78-10.23,1.06-17.82-2.32-24.62-4.96-9.96-14.74-14.89-25.53-12.86-.92.18-1.81.2-2.51.22-.21,0-.41.01-.59.02l-2.64.16-1.72-6.9c-2.22-8.9-4.39-17.64-6.63-26.63l-.5-2,3.76-2.95c1.87-1.47,3.84-3.01,5.82-4.55l9.43-7.26c19.06-14.69,38.12-29.38,57.17-44.1,6.25-4.84,8.89-10.05,8.3-16.39-.12-1.2-.08-2.49.1-3.84.14-1.07-.05-2.03-1.42-3.74-5.39-6.76-10.8-13.68-16.04-20.38-1.94-2.48-3.88-4.97-5.83-7.45-.03.9-.06,1.8-.1,2.69-.24,6.57-.48,13.37-.52,20.02-.04,4.48-1.56,7.56-5.11,10.31-15.33,11.86-30.83,24.01-45.83,35.77-5.99,4.7-11.99,9.4-17.99,14.09-.96.75-1.95,1.42-2.9,2.06-.46.31-.91.62-1.36.93l-1.9,1.34-1.85-1.4c-.76-.57-1.47-1.14-2.18-1.7-1.4-1.11-2.72-2.16-4.07-2.99-2.28-1.41-4.37-2.44-6.4-3.17-3.68-1.31-7.43-1.94-11.13-1.94Z"/>
    </g>
  </g>
  <g>
    <path class="cls-2" d="M364.1,339.8c-2.49,4.98-4.41,9.49-3.93,14.64.49,5.37,3.45,8.36,8.8,8.22,2.73-.07,5.63-.65,8.11-1.76,10.7-4.77,18.35-12.64,22.52-23.64.88-2.32,1.18-4.85,1.74-7.29-.29-.33-.58-.67-.88-.99-9.8,12.05-22.15,15.21-36.37,10.82Z"/>
    <path class="cls-2" d="M386.55,300.49c-1.23,15.38-11.88,30.64-31.34,36.13,3.07,1.79,4.77,3.13,6.69,3.82,16,5.85,35.82-7.4,36.73-24.48.25-4.59-1.58-8.47-4.52-11.79-1.95-2.2-4.14-4.31-7.56-3.68Z"/>
    <path class="cls-2" d="M386.41,306.8c1.68-8.56-4.72-16.15-12.8-16.94-3.76,6.73-7.4,13.27-11.56,20.71,2.66,7.7-.56,14.83-7.17,20.95.2.5.4.99.61,1.48,3.13-.23,6.48.21,9.32-.79,12.02-4.24,19.18-13.12,21.6-25.41Z"/>
    <path class="cls-1" d="M195.92,575.35s-.06-.02-.09-.03c0,.03,0,.06-.01.09.03,0,.07,0,.1,0v-.07Z"/>
    <path class="cls-1" d="M195.93,575.01c0,.12,0,.22,0,.34.1.03.2.07.3.1-.09-.15-.2-.29-.29-.44Z"/>
    <path class="cls-1" d="M403.23,315.6c-.94-9.03-6.97-14.83-16.15-15.96-2.34-6.27-7.27-9.78-13.98-10.97.77-13.2-5.13-22.91-14.06-31.19-1.4-1.3-2.82-2.6-4.21-3.92-15.47-14.78-34.03-17.94-54.3-14.27-10.61,1.92-20.12,6.72-29.22,12.25-9.08,5.51-17.9,11.42-26.86,17.14-1.57,1-3.2,1.91-5.14,3.06-.67-2.14-1.13-3.77-1.69-5.37-2.16-6.13-4.8-12.01-9.64-16.55-6.16-5.77-13.24-4.65-17.34,2.72-1.01,1.81-1.77,3.8-2.34,5.79-1.74,6.1-2.17,12.33-1.52,18.64.28,2.73.56,5.47.83,8.13-11.99,3.36-90.08.96-99.54-2.99,1.51-7.69,2.74-15.48.99-23.28-.79-3.5-1.97-7.11-3.85-10.12-3.05-4.88-8.34-5.96-13.19-2.84-2.71,1.76-5.11,4.21-7.12,6.76-3.92,4.99-6.16,10.87-7.99,16.91-.42,1.39-.96,2.74-1.57,4.45-6.5-3.86-12.66-7.21-16.2-13.62-5.97-10.8-7.82-26.95,6.38-38.78,14.02-11.68,30.16-18.55,48.53-19.57,11.19-.62,22.25.8,33.26,2.65,5.58.94,11.13,2.03,17.01,3.1-.47,1.96-.76,3.3-1.12,4.61-1.86,6.8-2.29,13.74-1.78,20.73.39,5.26,1.44,10.39,4.41,14.87,3.82,5.77,9.91,6.89,15.26,2.52,2.51-2.05,4.91-4.63,6.36-7.49,2.52-4.92,4.61-10.13,6.22-15.42,1.4-4.61,1.89-9.49,2.72-13.98,17.27.53,34.42,1.05,51.47,1.57.93,2.98,1.5,5.95,2.77,8.59,1.72,3.57,3.53,7.27,6.11,10.23,4.99,5.75,12.12,5.41,16.4-.87,2.39-3.51,3.97-7.71,5.21-11.83,1.13-3.77,1.33-7.83,1.99-12.11,2.44-.92,4.98-1.87,7.61-2.85,1.23,1.89,2.11,3.62,3.34,5.05,1.8,2.1,3.62,4.32,5.86,5.87,4.65,3.22,9.63,2.04,12.57-2.78,1.07-1.75,2.02-3.77,2.3-5.76.71-5.15,1.01-10.35,1.53-16.09,2.2-1.75,4.98-3.85,7.63-6.08,9.78-8.24,16.66-18.37,18.62-31.15,1.11-7.2,1.44-14.57,1.49-21.88.14-18.65-10.22-31.28-28.59-35.08-4.42-.91-8.98-1.14-13.46-1.72-26.57-3.48-52.78-.24-78.93,4.02-.2.73-.38,1.21-.47,1.7-4.98,29.79-21.51,51.2-47.73,65.43-12.4,6.73-25.77,9.38-39.86,7.97-2.24-.22-4.71-.04-6.85-2.34,1.74,0,2.93-.05,4.12,0,18.5.83,35.58-3.64,50.94-14.05,28.24-19.12,41.19-53.65,33.26-88.26C203.58,26.99,160.76-2.62,116.72,4.16c-44.34,6.82-74.74,47.7-68.51,92.25.74,5.29,1.94,10.52,2.94,15.88-1.46.73-2.9,1.32-4.24,2.12-8.05,4.8-13.42,11.55-14.8,21.02-1.21,8.36,3.72,15.65,11.88,17.78,6.93,1.8,13.08-.31,18.82-3.98,2.31-1.47,4.38-3.31,6.8-5.18,2,2.1,3.89,4.08,5.9,6.2-1.38.83-2.39,1.53-3.46,2.07-23.81,12.07-40.03,31.41-52.23,54.59-7.84,14.88-10.09,30.8-7.38,47.18,3.49,21.11,15.03,37.23,32.97,48.66,14.34,9.15,29.78,15.82,46.45,19.52,1.91.43,4.97.36,4.25,3.24-.61,2.43-3.32,1.1-5.04.77-4.03-.78-8.01-1.84-12.16-2.82-6.44,16.23-12.72,32.05-18.92,47.68-8.41,1.8-15.98,3.99-15.89,14.18-1.43.21-2.47.35-3.5.52-18.3,3.07-30.21,13.78-35.56,31.26-3.98,13.03-1.7,25.33,8.13,35.31,2.86,2.9,4.92,5.6,4.75,9.72-.03.51.09,1.04.2,1.55,3.3,16.39,18.99,24.91,33.14,17.8.72-.36,1.5-.6,2.2-.88.56.66.93,1.03,1.21,1.45,5.96,8.83,14.37,11.61,24.55,9.82,12.92-2.28,24.58-14.11,26.61-27.02.42-2.71.37-5.5.53-8.08,23.69-15.23,21.23-51.72-7.46-61.49,3.59-7.14,3.09-9.06-4.55-17.21,6.17-15.18,12.37-30.44,18.94-46.6,1.83,2.29,3.04,3.76,4.2,5.26,21.45,27.89,42.86,55.83,64.37,83.69,12.24,15.86,24.59,31.64,37.02,47.35,1.82,2.29,2.21,4.31,1.53,7.14-7.16,29.8-14.24,59.61-21.15,89.47-.76,3.3-2.11,4.86-5.37,5.94-13.12,4.32-22.14,12.92-25.69,26.55-3.93,15.08.18,28.94,7.01,42.26.53,1.04,2.07,1.82,3.3,2.19,4,1.18,8.03,2.33,12.12,3.11,18.55,3.51,37.35,4.61,56.15,5.14,18.8.52,37.63.05,56.44-.27,8.35-.14,16.68-1.13,25.03-1.53,6.1-.28,9.37-3.65,10.97-9.16.34-1.17.66-2.35.91-3.54,4.75-23.53-8.83-47.95-31.42-56.19-10.75-3.92-21.55-3.82-32.03.99-3.6,1.66-6.83,4.1-10.07,6.09-5.69-3.13-11.17-6.54-16.99-9.25-5.92-2.76-12.15-4.84-18.34-7.25.19-.95.33-1.8.53-2.65,7.47-30.62,14.82-61.26,22.48-91.82,2.03-8.11.7-14.82-4.61-21.4-13.77-17.09-27.2-34.46-40.69-51.79-14.67-18.83-29.26-37.72-43.87-56.6-.83-1.07-1.54-2.23-2.71-3.93,5.93.81,11.16,1.53,16.64,2.28,0,2.65.18,5.07-.05,7.46-.29,2.96.56,5.31,2.4,7.66,8.07,10.28,15.97,20.69,23.96,31.02.77,1,1.74,1.85,3.33,3.52.62-16.95,1.21-32.86,1.78-48.5,3.73-1.14,5.6.29,7.67,2.65,12.62,14.42,25.07,29.02,38.33,42.83,9.37,9.76,14.23,11.92,27.59,3.87,11.17-6.73,21.83-14.32,32.59-21.71,2.69-1.85,4.93-2.84,8.49-2.06,7.7,1.72,11.36-1.51,11.95-9.43.03-.47.26-.94.39-1.36,3.19.47,6.28,1.21,9.38,1.31,3.28.09,6.59-.45,9.88-.67,1.68-.12,3.28-.52,4.67,1.28,3.51,4.55,8.4,5.41,13.66,4.03,13.03-3.41,21.19-12.14,25.77-24.46,1.36-3.64,1.5-7.42.39-11.29-.37-1.31.27-2.92.5-4.38.51-3.23,1.78-6.53,1.45-9.66ZM307.04,210.39c-2.12,4.99-5.28,5.74-9.21,1.95-2.2-2.12-3.86-4.79-5.92-7.43,5.73-3.06,10.9-5.82,16.72-8.92.43,5.31.3,9.98-1.59,14.4ZM279.76,189.64c4.34-2.19,8.82-4.15,13.02-6.59,5.46-3.17,10.21-7.25,13.71-12.63.99-1.52,2.16-3.15,4.14-1.76,1.99,1.4.71,3.17-.23,4.58-1.16,1.73-2.44,3.41-3.88,4.91-7.48,7.82-16.74,12.76-27.1,16.7-.39-1.61-.7-2.88-1-4.15.57-.46.92-.85,1.35-1.07ZM251.54,196.42c7-1.47,14.21-2.99,22.17-4.66.51,4.46,1.11,8.17,1.33,11.9.43,7.34-.37,14.58-2.97,21.5-1.29,3.42-2.82,7.42-6.89,7.77-4.43.38-6.37-3.68-8.21-6.99-3.96-7.14-6.23-19.56-5.43-29.51ZM235.38,196.97c3.62-.23,7.26-.09,11.53-.09-.18,1.8-.29,2.98-.48,4.86-3.91-.25-7.67-.39-11.4-.81-.76-.08-1.4-1.24-2.1-1.91.81-.71,1.59-1.99,2.44-2.04ZM168.27,209.86c7.73-1.04,14.96,1.74,22.78,2.47-.5,9.78-2.45,18.35-6.71,26.26-1.46,2.7-3.36,5.31-5.56,7.43-3.6,3.46-6.89,2.87-9.22-1.61-1.34-2.57-2.31-5.47-2.75-8.33-1.34-8.66-.65-17.26,1.47-26.21ZM39.25,144.78c-3.64-4.7-2.94-11.69,1.98-19.13-1.91,10.43.24,18.65,12.16,21.89-6.26,2.14-11.19,1.04-14.14-2.76ZM59.9,140.77c-7.27,3.8-14.65-.6-14.46-8.77.13-5.75,2.77-10.21,8.08-13.1,3.58,6.4,7.04,12.57,10.62,18.96-1.4.97-2.73,2.12-4.25,2.92ZM59.41,119.09c-4.84-11.32-6.87-18.91-7.09-32.9-.14-38.51,25.78-70.08,63.31-77.14,33.11-6.23,68.41,10.96,85.31,41.7,10.04,18.26,13.41,37.76,8.53,58.06-8.75,36.33-36.66,54.96-62.69,58.92-36.49,5.56-72.82-14.57-87.37-48.64ZM95.06,386.26c1.91,2.16,1.55,4.06-.77,5.83-1.35,1.03-3.02,1.66-4.61,2.33-1.11.47-2.47.47-3.46,1.09-.88.55-1.41,1.68-2.1,2.54.9.64,1.74,1.35,2.71,1.86.39.2,1.02-.05,1.53-.09,14.73-.99,27,8.84,28.86,23.5,1.46,11.42-2.4,20.77-11.45,27.63-3.47-4.02-6.71-7.79-10.37-12.04,1.41-1.01,3.28-2.41,5.21-3.72,1.34-.91,2.88-1.79,1.93-3.67-1.08-2.15-2.85-1.52-4.47-.6-8.77,4.98-14.31,12.49-17.14,22.08-.2.65-.41,1.49-.18,2.04.43,1,1.03,2.09,1.89,2.65.31.21,1.85-.79,2.28-1.55.75-1.34.94-2.99,1.61-4.39,1.34-2.77,2.84-5.45,4.26-8.15,7.53,3.73,11.15,9.91,10.58,17.45-.86,11.37-9.48,22.08-20.45,25.29-7.35,2.16-14.25,1.55-19.82-4.23-5.41-5.6-5.66-12.44-3.72-19.52.5-1.82,1.42-3.55,2.23-5.27.76-1.62,1.77-3.43-.31-4.57-2.42-1.33-3.41.85-4.27,2.5-2.47,4.69-3.88,9.67-3.66,15.04.07,1.72.01,3.45.01,5.15-10.84,8.28-27.19,1.99-28.81-15.92-.71-7.82,1.78-14.76,6.97-20.69,1.32-1.51,3.77-3.08,1.51-5.15-2.15-1.97-4,.21-5.1,1.85-2.96,4.42-5.63,9.04-8.59,13.87-4.82-3.88-7.54-9.52-8.53-15.93-3.22-20.69,12.94-41.16,33.82-43.18,2.32-.22,4.37-.3,6.22,1.65,1.15,1.2,2.92,1.83,4.48,2.59,1.6.79,3.44,1.57,4.44-.69.81-1.83-.56-2.77-2-3.66-1.61-.98-3.3-2.02-4.53-3.41-3.05-3.47-2.56-6.4,1.64-8.32,2.8-1.28,5.92-2.19,8.98-2.49,9.38-.92,18.43.69,26.81,5.05,2.4,1.25,4.59,3.17,6.4,5.2ZM104.68,272.14c-.18,3.09-.79,6.16-1.35,10.23-8.03-1.99-15.22-3.77-23.06-5.71,2.31-9.8,5.12-18.64,12.36-25.26,4.08-3.74,7.55-2.88,9.81,2.29,1.09,2.52,1.82,5.31,2.12,8.03.37,3.45.32,6.96.12,10.43ZM226.21,590.26c.97-4.93,2.35-9.78,3.54-14.6,7.02-.28,24.89,7.65,32.88,14.46-1.89,3.48-3.97,6.88-5.58,10.48-.9,2-1.26,4.33-1.39,6.54-.05.86,1.16,1.8,1.79,2.69.73-.61,1.65-1.1,2.15-1.86.56-.84.72-1.94,1.07-2.92,6.97-19.15,25.01-28.17,44.47-22.22,21.22,6.49,35.12,30.34,30.03,51.52-1.71,7.12-2.94,8.42-10.11,8.81-24.87,1.34-49.76,2.9-74.68,1.55-16.51-.89-33.02-2.13-49.49-3.63-6.2-.56-12.31-2.2-18.43-3.57-1.36-.31-3.1-1.24-3.67-2.38-5.76-11.65-9.11-23.79-5.84-36.84,2.84-11.33,10.16-18.77,20.99-22.85.56-.2,1.24-.05,1.88-.03,0-.03,0-.06.01-.09.03.01.06.02.09.03,0-.12,0-.22,0-.34.09.15.2.29.29.44-.1-.03-.2-.07-.3-.1v.07s-.07,0-.1,0c-.28,2.31-.45,4.67-.9,6.95-1,5.27.33,8.78,4.99,11.45,6.49,3.72,13.41,4.57,20.67,2.51,3.15-.9,4.98-2.71,5.64-6.07ZM212.84,284.14c-1.87-9.78-2.4-19.3,1.78-28.47,2.52-5.52,6.31-6.04,10.56-1.59,5.45,5.69,7.76,12.92,9.62,20.39-6.77,5.26-13.89,7.8-21.96,9.67ZM297.61,346.98c-7.41,4.52-15.94,9.71-24.76,15.08-5.92-7.12-11.73-14.13-18.05-21.74,15.81-1.76,30.73-3.43,45.25-5.05-.71,3.37-1.45,6.92-2.44,11.7ZM358.8,314.95c1.07,8.87-9.39,14.53-21.19,11.19,7.1-3.75,14.17-7.49,21.19-11.19ZM328.46,365.71c-1.86,0-3.84-.4-5.55-1.12-7.96-3.37-14.02-8.93-18.01-16.61-1.37-2.64-2.84-5.9-.52-8.3,2.53-2.62,5.92-.96,8.78.28,1.19.52,2.12,1.68,3.1,2.63,4.21,4.1,8.25,8.41,12.67,12.27,2.23,1.94,2.85,4.21,3.23,6.74,0,2.63-1.13,4.1-3.7,4.11ZM358.1,354.57c-18.81,5.62-34.65-6.26-41.74-22.49,4-1.15,7.92-2.35,11.91-3.37.91-.23,2.13-.04,2.96.41,7.04,3.71,14.34,3.74,21.51,1.78,4.76,1.82,8.09,4.81,9.72,9.04-1.46,4.91-2.87,9.65-4.35,14.63ZM358.51,329.09c-.16-.4-.33-.79-.49-1.19,5.32-4.93,7.92-10.67,5.77-16.87,3.34-6,6.28-11.26,9.31-16.68,6.51.64,11.67,6.75,10.31,13.64-1.95,9.91-7.71,17.06-17.4,20.47-2.29.81-4.99.45-7.51.64ZM395.81,340.48c-3.37,8.87-9.53,15.2-18.14,19.04-2,.9-4.34,1.36-6.53,1.42-4.31.11-6.7-2.3-7.09-6.62-.38-4.15,1.16-7.78,3.17-11.79,11.45,3.53,21.4.99,29.29-8.72.24.26.47.54.71.8-.45,1.96-.69,4-1.4,5.87ZM398.57,318.01c-.73,13.76-16.7,24.43-29.59,19.72-1.55-.56-2.91-1.64-5.39-3.08,15.68-4.42,24.25-16.71,25.24-29.1,2.75-.51,4.52,1.19,6.09,2.96,2.37,2.68,3.85,5.8,3.64,9.5Z"/>
    <path class="cls-1" d="M132.57,573.01c-.96.18-1.97.14-2.71.19-2.59-10.41-5.11-20.51-7.71-30.95,2.48-1.94,5.2-4.09,7.94-6.21,22.2-17.12,44.41-34.21,66.59-51.36,6.25-4.83,10.3-10.83,9.53-19.21-.09-1.03-.05-2.1.08-3.13.32-2.42-.57-4.26-2.08-6.15-7.82-9.8-15.5-19.72-23.24-29.59-1.02-1.31-2.13-2.54-3.87-4.6-.14,1.97-.24,2.92-.27,3.87-.29,9.06-.71,18.11-.77,27.17-.03,3.43-1.09,5.66-3.87,7.82-21.36,16.51-42.57,33.22-63.83,49.86-1.33,1.04-2.77,1.95-4.13,2.9-2.32-1.76-4.29-3.5-6.49-4.86-2.2-1.36-4.56-2.58-6.99-3.45-18.83-6.74-39.27,2.91-47.6,22.27-2.74,6.37-3.37,12.78-.82,19.29,4.86,12.48,9.35,25.14,14.91,37.3,6.68,14.62,15.13,28.26,26.54,39.8,6.61,6.69,14.27,11.82,23.6,13.73,12.87,2.64,25.88,3.27,38.97,1.63,6.07-.76,10.63-3.77,12.92-9.29,2.12-5.1,3.94-10.46,4.88-15.88,1.57-9,1.64-18.05-2.61-26.59-5.59-11.23-16.74-16.87-28.96-14.57ZM156.06,624.49c-2.14,5.93-5.89,9.38-12.59,9.91-11.55.92-22.98.4-34.31-1.73-8.28-1.55-15.1-6.08-21.06-11.89-8.57-8.35-14.97-18.29-20.82-28.61-8.62-15.2-14.46-31.59-20.22-48.01-1.51-4.29-1.22-8.53.33-12.77,6.07-16.66,22.46-25.86,38.99-21.86,4.98,1.2,8.69,3.37,12.66,7.56-.88.93-1.7,1.99-2.71,2.82-2.95,2.44-5.86,4.96-9.02,7.12-2.8,1.91-3.74,4.53-3.65,7.61.29,9.46,4.68,16.54,12.83,21.3,3.01,1.76,5.85,1.59,8.66-.64,3.81-3.02,7.73-5.88,11.64-8.84,3.26,6.4,6.87,21.49,7.08,29.3-3.2,2.37-6.76,4.38-9.51,7.18-3.26,3.3-5.91,7.21-8.63,11-.75,1.05-1.08,2.61-1.08,3.93,0,.81.84,2.06,1.59,2.32.72.25,2-.29,2.65-.9.71-.66.93-1.82,1.41-2.74,4.92-9.27,12.59-15.31,22.56-18.04,8.82-2.42,16.08.74,21.63,7.82,2.74,3.49,4.31,7.57,4.79,11.97.98,8.97-.16,17.7-3.22,26.19Z"/>
    <path class="cls-1" d="M117.24,162.09c30.6,9.58,63-2.69,79.57-30.19,7.26-12.06,10.76-25.2,11.11-39.31-.51-4.66-.62-9.41-1.59-13.97-6.71-31.55-24.47-53.46-56.22-62.22-26.81-7.39-54.7,2.61-71.52,24.8-31.51,41.57-11.13,105.31,38.64,120.89ZM85.73,40.26c16.15-18.59,41.67-25.87,65.87-18.63-7.1,5.31-12.65,11.26-16.8,18.39-2.35,4.05-4.43,8.27-6.47,12.5-.79,1.64-1.47,2.71-3.53,3.22-12.94,3.2-14.95,18.02-6,25.03.54.43,1.12.81,1.27.92-2.04,29-.47,56.36,21.95,78.33-7.96.92-15.48.03-22.69-2.44-28.29-9.72-44.78-29.82-49.85-58.96-3.79-21.75,1.63-41.53,16.24-58.34ZM136.82,69.5c.03,5.12-4.02,9.24-9.15,9.29-5.18.05-9.2-3.91-9.23-9.11-.03-5.2,3.93-9.32,9.03-9.39,4.95-.07,9.31,4.23,9.35,9.21Z"/>
    <path class="cls-2" d="M199.91,593.82c-4.66-2.67-5.99-6.18-4.99-11.45.44-2.29.61-4.64.9-6.95-.64-.01-1.32-.17-1.88.03-10.83,4.08-18.15,11.52-20.99,22.85-3.27,13.05.08,25.19,5.84,36.84.57,1.14,2.31,2.08,3.67,2.38,6.11,1.37,12.23,3.01,18.43,3.57,16.47,1.5,32.98,2.74,49.49,3.63,24.92,1.35,49.81-.21,74.68-1.55,7.16-.39,8.4-1.68,10.11-8.81,5.1-21.18-8.81-45.03-30.03-51.52-19.46-5.95-37.5,3.07-44.47,22.22-.35.98-.52,2.08-1.07,2.92-.5.76-1.42,1.25-2.15,1.86-.63-.9-1.85-1.83-1.79-2.69.14-2.21.49-4.54,1.39-6.54,1.61-3.6,3.7-7,5.58-10.48-7.99-6.81-25.86-14.74-32.88-14.46-1.19,4.82-2.57,9.67-3.54,14.6-.66,3.36-2.49,5.17-5.64,6.07-7.25,2.06-14.17,1.21-20.67-2.51Z"/>
    <path class="cls-2" d="M352.74,330.9c-7.16,1.97-14.46,1.93-21.51-1.78-.83-.45-2.06-.64-2.96-.41-3.98,1.01-7.91,2.22-11.91,3.37,7.09,16.23,22.93,28.11,41.74,22.49,1.48-4.97,2.89-9.72,4.35-14.63-1.62-4.23-4.95-7.23-9.72-9.04Z"/>
    <path class="cls-2" d="M358.8,314.95c-7.02,3.7-14.09,7.44-21.19,11.19,11.8,3.34,22.26-2.31,21.19-11.19Z"/>
    <path class="cls-2" d="M328.94,354.86c-4.42-3.86-8.46-8.17-12.67-12.27-.98-.94-1.91-2.1-3.1-2.63-2.86-1.25-6.25-2.9-8.78-.28-2.32,2.4-.85,5.66.52,8.3,3.99,7.69,10.05,13.24,18.01,16.61,1.71.72,3.69,1.13,5.55,1.12,2.58,0,3.7-1.48,3.7-4.11-.38-2.53-1-4.8-3.23-6.74Z"/>
    <path class="cls-2" d="M88.66,381.06c-8.38-4.37-17.43-5.97-26.81-5.05-3.05.3-6.18,1.21-8.98,2.49-4.2,1.92-4.69,4.85-1.64,8.32,1.23,1.39,2.92,2.43,4.53,3.41,1.45.89,2.82,1.82,2,3.66-1,2.26-2.84,1.47-4.44.69-1.55-.76-3.33-1.39-4.48-2.59-1.85-1.95-3.9-1.87-6.22-1.65-20.88,2.02-37.04,22.5-33.82,43.18.99,6.41,3.71,12.05,8.53,15.93,2.96-4.82,5.63-9.44,8.59-13.87,1.1-1.64,2.94-3.83,5.1-1.85,2.26,2.07-.18,3.64-1.51,5.15-5.19,5.93-7.67,12.88-6.97,20.69,1.62,17.91,17.97,24.21,28.81,15.92,0-1.7.06-3.43-.01-5.15-.22-5.37,1.19-10.35,3.66-15.04.87-1.65,1.86-3.83,4.27-2.5,2.08,1.13,1.07,2.94.31,4.57-.81,1.72-1.72,3.45-2.23,5.27-1.94,7.08-1.69,13.91,3.72,19.52,5.58,5.77,12.48,6.38,19.82,4.23,10.97-3.21,19.59-13.91,20.45-25.29.57-7.54-3.05-13.72-10.58-17.45-1.42,2.69-2.92,5.38-4.26,8.15-.67,1.4-.86,3.05-1.61,4.39-.43.76-1.97,1.76-2.28,1.55-.85-.56-1.46-1.65-1.89-2.65-.24-.56-.02-1.39.18-2.04,2.84-9.59,8.38-17.1,17.14-22.08,1.62-.92,3.39-1.55,4.47.6.95,1.88-.6,2.76-1.93,3.67-1.93,1.31-3.8,2.71-5.21,3.72,3.66,4.25,6.91,8.01,10.37,12.04,9.04-6.86,12.9-16.21,11.45-27.63-1.87-14.66-14.13-24.49-28.86-23.5-.52.04-1.15.29-1.53.09-.96-.51-1.81-1.22-2.71-1.86.69-.87,1.21-1.99,2.1-2.54.99-.62,2.35-.62,3.46-1.09,1.59-.67,3.26-1.3,4.61-2.33,2.31-1.77,2.68-3.68.77-5.83-1.8-2.04-4-3.96-6.4-5.2Z"/>
    <path class="cls-2" d="M102.44,253.68c-2.26-5.17-5.73-6.02-9.81-2.29-7.25,6.63-10.05,15.46-12.36,25.26,7.84,1.94,15.03,3.72,23.06,5.71.56-4.07,1.17-7.14,1.35-10.23.2-3.47.25-6.98-.12-10.43-.3-2.73-1.02-5.52-2.12-8.03Z"/>
    <path class="cls-2" d="M169.55,244.41c2.33,4.48,5.62,5.07,9.22,1.61,2.2-2.12,4.1-4.73,5.56-7.43,4.26-7.9,6.21-16.48,6.71-26.26-7.82-.73-15.04-3.51-22.78-2.47-2.12,8.96-2.81,17.56-1.47,26.21.44,2.86,1.41,5.76,2.75,8.33Z"/>
    <path class="cls-2" d="M214.62,255.67c-4.19,9.17-3.66,18.69-1.78,28.47,8.07-1.87,15.19-4.4,21.96-9.67-1.86-7.48-4.17-14.7-9.62-20.39-4.25-4.44-8.04-3.93-10.56,1.59Z"/>
    <path class="cls-2" d="M265.18,232.93c4.08-.35,5.6-4.35,6.89-7.77,2.6-6.92,3.4-14.16,2.97-21.5-.22-3.73-.82-7.44-1.33-11.9-7.96,1.68-15.17,3.19-22.17,4.66-.81,9.95,1.47,22.37,5.43,29.51,1.84,3.32,3.78,7.37,8.21,6.99Z"/>
    <path class="cls-2" d="M234.42,200.92c3.4.37,6.83.52,10.37.72.91.05,1.7-.59,1.79-1.45.06-.54.11-1.04.16-1.55.1-.94-.68-1.76-1.68-1.77-3.72-.02-7.01-.1-10.28.1-.53.03-1.02.48-1.52.99-.58.6-.61,1.53-.05,2.15.38.42.77.76,1.2.81Z"/>
    <path class="cls-2" d="M306.52,178.16c1.44-1.5,2.72-3.18,3.88-4.91.94-1.41,2.23-3.18.23-4.58-1.97-1.4-3.15.24-4.14,1.76-3.5,5.37-8.25,9.46-13.71,12.63-4.2,2.44-8.68,4.4-13.02,6.59-.43.22-.78.61-1.35,1.07.31,1.27.62,2.54,1,4.15,10.36-3.93,19.62-8.87,27.1-16.7Z"/>
    <path class="cls-2" d="M291.91,204.9c2.06,2.64,3.72,5.31,5.92,7.43,3.93,3.79,7.08,3.04,9.21-1.95,1.89-4.42,2.02-9.09,1.59-14.4-5.81,3.1-10.98,5.86-16.72,8.92Z"/>
    <path class="cls-2" d="M119.34,157.56c7.21,2.47,14.73,3.37,22.69,2.44-22.42-21.97-23.99-49.32-21.95-78.33-.15-.11-.73-.49-1.27-.92-8.96-7.02-6.95-21.83,6-25.03,2.06-.51,2.75-1.57,3.53-3.22,2.04-4.23,4.11-8.45,6.47-12.5,4.15-7.13,9.7-13.07,16.8-18.39-24.2-7.24-49.72.04-65.87,18.63-14.61,16.81-20.03,36.59-16.24,58.34,5.07,29.14,21.56,49.25,49.85,58.96Z"/>
    <path class="cls-2" d="M146.78,167.73c26.02-3.96,53.94-22.59,62.69-58.92,4.88-20.31,1.51-39.8-8.53-58.06C184.04,20.01,148.75,2.83,115.64,9.05c-37.53,7.06-63.45,38.63-63.31,77.14.22,13.98,2.25,21.57,7.09,32.9,14.55,34.08,50.88,54.21,87.37,48.64ZM78.59,41.2c16.83-22.19,44.72-32.19,71.52-24.8,31.74,8.76,49.51,30.67,56.22,62.22.97,4.56,1.09,9.31,1.59,13.97-.35,14.11-3.85,27.25-11.11,39.31-16.57,27.5-48.97,39.77-79.57,30.19-49.78-15.58-70.16-79.32-38.64-120.89Z"/>
    <path class="cls-2" d="M127.47,60.28c-5.1.07-9.06,4.19-9.03,9.39.03,5.2,4.04,9.16,9.23,9.11,5.13-.05,9.18-4.17,9.15-9.29-.03-4.99-4.4-9.28-9.35-9.21Z"/>
    <path class="cls-2" d="M41.23,125.65c-4.92,7.44-5.62,14.43-1.98,19.13,2.94,3.8,7.88,4.91,14.14,2.76-11.91-3.24-14.07-11.47-12.16-21.89Z"/>
    <path class="cls-2" d="M154.49,586.33c-5.55-7.08-12.81-10.24-21.63-7.82-9.98,2.73-17.65,8.77-22.56,18.04-.48.92-.71,2.08-1.41,2.74-.65.61-1.93,1.15-2.65.9-.75-.26-1.59-1.51-1.59-2.32,0-1.32.33-2.88,1.08-3.93,2.72-3.79,5.37-7.7,8.63-11,2.75-2.8,6.31-4.82,9.51-7.18-.2-7.82-3.81-22.9-7.08-29.3-3.91,2.96-7.83,5.82-11.64,8.84-2.81,2.23-5.66,2.41-8.66.64-8.15-4.76-12.54-11.84-12.83-21.3-.09-3.08.85-5.7,3.65-7.61,3.15-2.16,6.07-4.68,9.02-7.12,1-.83,1.82-1.89,2.71-2.82-3.97-4.19-7.68-6.36-12.66-7.56-16.53-4-32.92,5.2-38.99,21.86-1.55,4.24-1.83,8.47-.33,12.77,5.76,16.41,11.6,32.8,20.22,48.01,5.85,10.32,12.25,20.26,20.82,28.61,5.96,5.81,12.77,10.34,21.06,11.89,11.33,2.13,22.76,2.65,34.31,1.73,6.7-.53,10.45-3.98,12.59-9.91,3.06-8.49,4.21-17.22,3.22-26.19-.48-4.4-2.05-8.48-4.79-11.97Z"/>
  </g>
</svg>