<svg width="4312" height="1002" viewBox="0 0 4312 1002" fill="none" xmlns="http://www.w3.org/2000/svg" style="background-color: white; scale: 0.5;">
<path fill-rule="evenodd" clip-rule="evenodd" d="M1722.67 890.656C1565.49 890.656 1449.66 771.775 1449.66 617.747C1449.66 463.719 1565.49 344.838 1722.67 344.838C1824.02 344.838 1911.92 398.592 1954.32 478.191L1839.53 545.385C1818.85 503.001 1774.38 476.123 1721.64 476.123C1642.01 476.123 1583.07 535.047 1583.07 617.747C1583.07 699.413 1642.01 758.337 1721.64 758.337C1775.41 758.337 1819.88 732.493 1840.56 690.109L1956.39 756.269C1911.92 836.901 1824.02 890.656 1722.67 890.656ZM2411.4 359.31H2544.8V876.184H2411.4V815.193C2374.17 861.711 2318.33 890.656 2242.84 890.656C2105.3 890.656 1991.55 771.775 1991.55 617.747C1991.55 463.719 2105.3 344.838 2242.84 344.838C2318.33 344.838 2374.17 373.782 2411.4 420.301V359.31ZM2267.66 763.505C2350.39 763.505 2411.4 704.582 2411.4 617.747C2411.4 530.912 2350.39 471.988 2267.66 471.988C2185.96 471.988 2124.95 530.912 2124.95 617.747C2124.95 704.582 2185.96 763.505 2267.66 763.505ZM2784.72 506.102C2784.72 582.599 3051.52 535.047 3051.52 725.257C3051.52 836.901 2954.32 890.656 2843.67 890.656C2740.25 890.656 2663.73 847.239 2626.5 767.64L2742.32 702.514C2756.8 744.898 2791.96 769.708 2843.67 769.708C2886.06 769.708 2915.02 755.235 2915.02 725.257C2915.02 649.793 2648.22 691.143 2648.22 509.203C2648.22 403.761 2738.18 344.838 2844.7 344.838C2928.46 344.838 3000.85 383.086 3041.18 454.415L2927.43 516.44C2911.92 483.36 2882.96 463.718 2844.7 463.718C2811.61 463.718 2784.72 478.191 2784.72 506.102ZM3438.29 344.838C3576.86 344.838 3690.61 463.719 3690.61 617.747C3690.61 771.775 3576.86 890.656 3438.29 890.656C3362.8 890.656 3307.99 862.745 3270.76 815.193V876.184H3137.36V152.561H3270.76V420.301C3307.99 372.749 3362.8 344.838 3438.29 344.838ZM3413.47 763.505C3496.2 763.505 3557.21 704.582 3557.21 617.747C3557.21 530.912 3496.2 471.988 3413.47 471.988C3331.77 471.988 3270.76 530.912 3270.76 617.747C3270.76 704.582 3331.77 763.505 3413.47 763.505ZM4177.69 359.31H4311.09V876.184H4177.69V815.193C4140.46 861.711 4084.62 890.656 4009.12 890.656C3871.59 890.656 3757.83 771.775 3757.83 617.747C3757.83 463.719 3871.59 344.838 4009.12 344.838C4084.62 344.838 4140.46 373.782 4177.69 420.301V359.31ZM4033.94 763.505C4116.67 763.505 4177.69 704.582 4177.69 617.747C4177.69 530.912 4116.67 471.988 4033.94 471.988C3952.25 471.988 3891.23 530.912 3891.23 617.747C3891.23 704.582 3952.25 763.505 4033.94 763.505Z" fill="#010202"/>
<path fill-rule="evenodd" clip-rule="evenodd" d="M4040.73 77.1881L4040.9 76.9625L4040.96 77.0064L4041.12 76.8828L4041.61 77.5174L4193.7 196.295L4153.9 247.207L4040.96 158.997L3928.11 247.128L3888.32 196.215L4040.73 77.1881Z" fill="#010202"/>
<path d="M498.842 30.5547L833.153 348.802C834.619 350.198 835.448 352.136 835.445 354.161L834.578 979.298" stroke="#010202" stroke-width="3.87227" stroke-linecap="round"/>
<path d="M593.008 2L918.806 311.744C920.275 313.14 921.105 315.079 921.103 317.106L920.236 942.24" stroke="#010202" stroke-width="3.87227" stroke-linecap="round"/>
<path fill-rule="evenodd" clip-rule="evenodd" d="M12.7191 382.144L349.573 59.9595C365.497 44.729 390.588 44.729 406.511 59.9595L743.365 382.144C751.489 389.915 756.084 400.668 756.084 411.91V960.812C756.084 983.559 737.644 1002 714.896 1002H41.1884C18.4407 1002 0 983.559 0 960.812V411.91C0 400.668 4.59502 389.915 12.7191 382.144ZM626.051 835.538C638.067 835.538 647.808 825.797 647.808 813.781C647.808 801.766 638.067 792.025 626.051 792.025H594.896C591.105 792.025 588.031 788.951 588.031 785.16V754.024C588.031 742.005 578.288 732.262 566.27 732.262C554.251 732.262 544.508 742.005 544.508 754.024V785.16C544.508 788.951 541.434 792.025 537.643 792.025H506.488C494.472 792.025 484.731 801.766 484.731 813.781C484.731 825.797 494.472 835.538 506.488 835.538H537.643C541.434 835.538 544.508 838.611 544.508 842.403V873.539C544.508 885.558 554.251 895.301 566.27 895.301C578.288 895.301 588.031 885.558 588.031 873.539V842.403C588.031 838.611 591.105 835.538 594.896 835.538H626.051Z" fill="#010202"/>
</svg>
