<svg xmlns="http://www.w3.org/2000/svg" id="Calque_2" viewBox="0 0 420.6 390">
  <defs>
    <style>
      .cls-2,.cls-3{stroke-width:0}.cls-2{fill:#f8f9fa}.cls-3{fill:#212529}
    </style>
  </defs>
  <g id="LIGHT">
    <path d="M399 205v-1a58 58 0 0 0 0 1Z" class="cls-2"/>
    <path d="M402 207h-7v-3h7v3Z" class="cls-2"/>
    <path d="M399 205v-1a58 58 0 0 0 0 1Z" class="cls-2"/>
    <path d="M402 207h-7v-3h7v3Z" class="cls-2"/>
    <path d="m57 280-6-12-1 1c-8 6-12 14-13 24 0 7 3 13 8 17 6 3 13 3 20-1l5-3 1-1v-1l-14-24Z" style="stroke-width:0;fill:none"/>
    <path d="M368 302ZM163 347ZM161 346h-1 1ZM118 78ZM60 279l-8-15-4 3c-9 7-14 16-14 27-1 18 16 28 32 20l6-4 4-3-2-4-14-24Zm10 27-5 3c-7 4-14 4-20 1-5-4-8-10-8-17 1-10 5-18 13-24l1-1 6 12 14 24v1l-1 1ZM269 34c71 20 111 69 126 140-15-71-55-120-126-140Z" class="cls-2"/>
    <path d="M420 192a210 210 0 0 0-14-66c-16-40-45-75-83-97C286 6 242-4 199 1l-1 1h-5A186 186 0 0 0 37 213a421 421 0 0 0 6 34h-1l-1 1-6 2a68 68 0 0 0-35 50c-3 21 10 39 30 44 15 4 29 1 45-10l11-8 1-1a191 191 0 0 0 127 65h18a187 187 0 0 0 188-198Zm-83 164c-32 21-67 32-105 31h-14a183 183 0 0 1-130-66l-4 3-11 9c-13 8-27 13-42 9-19-5-30-22-27-40a64 64 0 0 1 38-50l5-2-7-36A183 183 0 0 1 194 7l5-1a196 196 0 0 1 218 187c3 65-26 126-80 163ZM230 387h-3 5-2Z" class="cls-2"/>
    <path d="M412 157A196 196 0 0 0 199 6l-5 1A183 183 0 0 0 40 214l7 36-5 2-5 2a64 64 0 0 0-33 48c-3 18 8 35 27 39 15 5 29 0 42-8l11-9 3-3a185 185 0 0 0 131 66h14a183 183 0 0 0 180-230ZM20 323c-8-11-7-27 4-43-4 23 1 41 28 49-14 5-25 2-32-6Zm52-13-6 4c-16 8-33-2-32-20 0-11 5-20 14-27l4-3a10377 10377 0 0 0 24 43l-4 3Zm330-68c-19 81-82 123-140 132A184 184 0 0 1 49 191c0-87 58-158 143-173 74-14 153 24 191 93 23 41 30 85 19 131Z" class="cls-3"/>
    <path d="M269 34a149 149 0 0 0-161 56 180 180 0 0 0 52 256h1l2 1a165 165 0 0 0 44 18 153 153 0 0 0 167-71 172 172 0 0 0 25-89l-1-14c-1-6-1-12-3-17-15-71-55-120-126-140Zm-34 53c-6 9-10 19-15 28-2 4-3 6-8 7-29 8-33 41-13 57l3 2c-5 65-1 126 49 176-18 2-35 0-51-6-64-22-101-67-112-132-9-49 4-94 36-131 37-42 94-58 148-42-16 12-28 25-37 41Zm4 66c0 12-9 21-20 21-12 0-21-9-21-20 0-12 9-21 20-21s21 9 21 20Z" class="cls-3"/>
    <path d="M124 88c-32 37-45 82-36 131 11 65 48 110 112 132 16 6 33 8 51 6-51-50-54-111-49-176l-3-2a32 32 0 0 1 13-57c5-1 6-3 8-7 5-9 9-19 15-28 9-16 21-29 37-41-54-16-111 0-148 42Z" class="cls-2"/>
    <path d="M192 18C107 33 49 104 49 191a184 184 0 0 0 212 183c59-9 122-51 141-132 11-46 4-90-19-131a184 184 0 0 0-191-93Zm206 171Zm0 1 1 15-2 26a172 172 0 0 1-29 71 153 153 0 0 1-205 45l-2-1h-1a180 180 0 0 1-73-218 165 165 0 0 1 31-50 152 152 0 0 1 151-44c71 20 111 69 126 140 2 5 2 11 3 16ZM163 347l-2-1 2 1ZM207 365Z" class="cls-2"/>
    <path d="m397 231 2-26-1-15 1 15-2 26ZM87 128ZM213 30ZM24 280c-11 16-12 32-4 43 7 8 18 11 32 6-27-8-32-26-28-49Z" class="cls-2"/>
  </g>
</svg>
