<?xml version="1.0" encoding="UTF-8"?><svg id="Calque_2" xmlns="http://www.w3.org/2000/svg" viewBox="0 0 420.65 389.97"><defs><style>.cls-1{fill:none;}.cls-1,.cls-2,.cls-3{stroke-width:0px;}.cls-2{fill:#f8f9fa;}.cls-3{fill:#212529;}</style></defs><g id="LIGHT"><path class="cls-2" d="M398.97,205.3c-.05-.44-.09-.87-.14-1.31.04.44.08.87.13,1.31-.01.5-.02.99-.04,1.48.02-.49.04-.99.05-1.48Z"/><path class="cls-2" d="M402.41,206.92l-6.99-.28c.02-.39.02-.79.03-1.18-.04-.38-.08-.76-.11-1.15l6.96-.72.17,1.55v.23c-.01.49-.03.98-.05,1.47,0,.03,0,.05,0,.08Z"/><path class="cls-2" d="M398.97,205.3c-.05-.44-.09-.87-.14-1.31.04.44.08.87.13,1.31-.01.5-.02.99-.04,1.48.02-.49.04-.99.05-1.48Z"/><path class="cls-2" d="M402.41,206.92l-6.99-.28c.02-.39.02-.79.03-1.18-.04-.38-.08-.76-.11-1.15l6.96-.72.17,1.55v.23c-.01.49-.03.98-.05,1.47,0,.03,0,.05,0,.08Z"/><path class="cls-1" d="M57.09,279.65c-2.12-3.78-4.24-7.56-6.38-11.39-.34.23-.67.46-1.01.7-8.09,5.77-12.13,13.61-12.36,23.98-.17,7.34,2.78,13.44,8.09,16.74,5.48,3.41,12.5,3.33,19.28-.21,1.85-.98,3.61-2.25,5.08-3.36l.06-.04c.48-.35.96-.71,1.45-1.06-.2-.35-.4-.71-.59-1.06-5.09-7.71-9.67-15.88-13.62-24.28Z"/><path class="cls-2" d="M368.44,302.22c1.93-2.79,3.79-5.65,5.56-8.59,11.87-19.72,19.25-40.73,22.7-62.93-3.45,22.2-10.83,43.21-22.7,62.93-1.77,2.94-3.63,5.81-5.56,8.59Z"/><path class="cls-2" d="M162.73,347.34c10.08,5.74,20.9,10.52,32.44,14.14,3.93,1.23,7.87,2.29,11.81,3.2-3.94-.91-7.88-1.97-11.8-3.2-11.54-3.61-22.37-8.39-32.45-14.14Z"/><path class="cls-2" d="M160.91,346.31c-.21-.12-.41-.26-.62-.38.21.12.41.26.62.38Z"/><path class="cls-2" d="M117.97,78.29c-3.36,3.66-6.58,7.5-9.63,11.52-9.11,12.02-16.27,24.86-21.63,38.19,5.36-13.33,12.52-26.17,21.63-38.19,3.05-4.02,6.26-7.86,9.62-11.53Z"/><path class="cls-2" d="M60.21,279.05c-2.72-4.85-5.44-9.71-8.2-14.65-1.55.85-2.99,1.75-4.34,2.72-9.03,6.45-13.57,15.48-13.82,26.74-.43,18.34,16.16,28.25,32.49,19.71,1.96-1.03,3.77-2.31,5.57-3.66,1.33-.97,2.63-1.98,3.98-2.9-.74-1.3-1.46-2.58-2.18-3.89-5.06-7.64-9.57-15.68-13.51-24.07ZM69.86,306.06l-.06.04c-1.47,1.11-3.23,2.38-5.08,3.36-6.78,3.54-13.81,3.62-19.28.21-5.31-3.3-8.26-9.4-8.09-16.74.23-10.36,4.27-18.2,12.36-23.98.33-.24.67-.47,1.01-.7,2.14,3.82,4.26,7.61,6.38,11.39,3.95,8.4,8.53,16.57,13.62,24.28.2.36.39.71.59,1.06-.48.36-.96.71-1.45,1.06Z"/><path class="cls-2" d="M269.06,34.09c-18.61-5.13-37.45-6.53-55.72-4.54,18.27-1.98,37.11-.59,55.72,4.55,71.33,19.68,111.25,68.91,126.32,139.82,1.16,5.43,1.77,10.99,2.26,16.57-.49-5.58-1.1-11.14-2.26-16.58-15.08-70.9-54.99-120.13-126.33-139.82Z"/><path class="cls-2" d="M420.41,191.84h0c-.58-12.04-2.26-24.26-5.01-36.35-2.3-9.97-5.44-19.96-9.33-29.67-16.1-40.19-45.46-74.74-82.68-97.3C285.84,5.76,241.67-3.87,199.06,1.42l-1.35.16c-1.38.16-2.81.32-4.22.56-49.11,7.55-92.39,33.55-121.86,73.22-29.48,39.68-41.92,88.68-35.02,138,1.16,8.27,2.83,16.59,4.45,24.62.57,2.81,1.15,5.7,1.71,8.59-.24.11-.48.23-.72.34l-1.45.69c-1.77.85-3.49,1.69-5.23,2.71-20.1,12.02-31.84,28.76-34.9,49.73-3,20.53,9.04,38.57,29.27,43.85,14.76,3.83,29.08.84,45.05-9.41,3.76-2.4,7.17-5.15,10.79-8.06l.39-.31c.35-.28.7-.56,1.06-.84,3.53,4.04,7.24,7.95,11.07,11.65,31.71,30.65,73.17,49.46,116.39,52.75h-.39c3.86.2,7.37.3,10.72.3.38,0,.75,0,1.13-.01.34,0,.69,0,1.1-.01h.9c.74-.02,1.48-.03,2.21-.07.34.01.68,0,1.02,0h.38c.3,0,.59,0,.88,0,39.12,0,75.05-10.88,106.78-32.35,54.06-36.6,84.41-98.54,81.19-165.69ZM337.26,355.63c-32.09,21.71-67.48,31.91-105.68,31.75-1.12.02-2.25.09-3.39.09-.4,0-.81-.02-1.21-.02-.72,0-1.44.02-2.16.02l-7.17-.31c-45.23-2.61-86.13-21.8-117.12-51.75-4.58-4.43-8.92-9.08-13.03-13.95-1.26.99-2.49,1.96-3.71,2.92-3.69,2.97-7.15,5.78-10.88,8.16-12.9,8.27-26.74,13.01-42.29,8.97-18.34-4.79-29.44-21.17-26.7-39.95,3.1-21.28,15.17-36.43,33.24-47.23,1.6-.94,3.26-1.75,4.94-2.56,1.51-.72,3.06-1.44,4.61-2.2-2.27-12.04-4.97-23.77-6.63-35.68C26.07,113.77,94.39,21.91,194.02,6.58c1.82-.29,3.64-.47,5.46-.7,87.01-10.79,170.83,41.06,203.34,122.24,3.75,9.35,6.85,19.08,9.17,29.15,2.72,11.95,4.36,23.91,4.92,35.73,3.12,65.08-25.95,126.27-79.66,162.62Z"/><path class="cls-2" d="M230.16,387.38c-1.06.04-2.13.04-3.19.07.4,0,.81.02,1.21.02,1.15,0,2.27-.07,3.39-.09-.47,0-.94.02-1.42,0Z"/><path class="cls-3" d="M412,157.28c-2.31-10.07-5.42-19.8-9.17-29.15C370.31,46.94,286.49-4.9,199.48,5.89c-1.82.22-3.64.4-5.46.7C94.39,21.91,26.07,113.77,40.07,213.86c1.66,11.91,4.36,23.64,6.63,35.68-1.55.76-3.1,1.48-4.61,2.2-1.69.81-3.35,1.62-4.94,2.56-18.07,10.81-30.13,25.95-33.24,47.23-2.74,18.79,8.36,35.17,26.7,39.95,15.55,4.04,29.39-.7,42.29-8.97,3.73-2.38,7.19-5.19,10.88-8.16,1.21-.97,2.45-1.93,3.71-2.92,4.11,4.88,8.45,9.53,13.03,13.95,30.99,29.95,71.89,49.14,117.12,51.75l7.17.31c.72,0,1.44-.02,2.16-.02,1.06-.02,2.13-.02,3.19-.07.47.02.94,0,1.42,0,38.2.16,73.59-10.04,105.68-31.75,53.71-36.36,82.78-97.55,79.66-162.62-.56-11.82-2.2-23.77-4.92-35.73ZM19.94,322.57c-8.18-10.56-6.61-26.27,4.45-42.99-4.29,23.41.54,41.91,27.32,49.19-14.07,4.81-25.17,2.34-31.77-6.2ZM71.92,309.9c-1.8,1.35-3.62,2.63-5.57,3.66-16.34,8.54-32.92-1.37-32.49-19.71.25-11.26,4.79-20.29,13.82-26.74,1.35-.97,2.79-1.86,4.34-2.72,2.76,4.94,5.48,9.8,8.2,14.65,3.93,8.38,8.45,16.43,13.51,24.07.72,1.3,1.44,2.58,2.18,3.89-1.35.92-2.65,1.93-3.98,2.9ZM402.45,241.75c-19.66,81.64-82.38,123.5-140.87,132.4-82,12.49-163.64-32.74-196.33-109.32-10.88-25.44-15.44-42.49-15.93-73.91-.31-86.54,57.93-157.5,142.27-173.34,74.43-14,153.73,24.63,191.7,93.71,22.56,41.01,30.13,84.83,19.17,130.47Z"/><path class="cls-3" d="M269.06,34.1c-18.61-5.13-37.45-6.53-55.72-4.55-36.09,3.92-69.95,21.06-95.37,48.75-3.36,3.66-6.57,7.5-9.62,11.53-9.11,12.02-16.27,24.86-21.63,38.19-31.64,78.73.27,174.47,73.58,217.92.21.12.41.26.62.38.6.35,1.21.68,1.82,1.03,10.08,5.74,20.91,10.53,32.45,14.14,3.92,1.23,7.86,2.29,11.8,3.2,61.88,14.3,125.15-10.07,161.45-62.45,1.93-2.79,3.78-5.65,5.56-8.59,11.87-19.73,19.25-40.74,22.7-62.93,1.29-8.3,2.05-16.77,2.26-25.4-.54-4.92-.88-9.87-1.32-14.81-.49-5.58-1.11-11.14-2.26-16.57-15.08-70.91-54.99-120.13-126.32-139.82ZM234.65,87.15c-5.29,9.1-9.96,18.58-14.53,28.08-1.77,3.69-3.31,6.08-7.94,7.23-29.09,7.2-33.6,40.49-13.48,56.26,1.22.96,2.52,1.81,2.85,2.06-4.57,65.17-1.05,126.64,49.33,176.01-17.88,2.07-34.77.06-50.98-5.49-63.57-21.83-100.63-67.02-112.02-132.5-8.51-48.88,3.66-93.32,36.5-131.09,36.3-41.77,93.64-58.13,148.02-41.86-15.95,11.94-28.43,25.29-37.75,41.32ZM239.19,153.39c.06,11.51-9.04,20.76-20.57,20.87-11.65.11-20.67-8.8-20.73-20.47-.06-11.69,8.84-20.95,20.29-21.1,11.13-.15,20.93,9.5,21.01,20.7Z"/><path class="cls-2" d="M124.38,87.7c-32.84,37.78-45,82.22-36.5,131.09,11.39,65.48,48.45,110.67,112.02,132.5,16.21,5.55,33.1,7.56,50.98,5.49-50.39-49.36-53.91-110.83-49.33-176.01-.34-.24-1.63-1.1-2.85-2.06-20.12-15.76-15.61-49.06,13.48-56.26,4.63-1.14,6.17-3.54,7.94-7.23,4.57-9.5,9.24-18.98,14.53-28.08,9.31-16.02,21.8-29.38,37.75-41.32-54.38-16.27-111.72.09-148.02,41.86Z"/><path class="cls-2" d="M191.57,17.57C107.24,33.41,48.99,104.38,49.31,190.92c.49,31.41,5.06,48.47,15.93,73.91,32.7,76.58,114.33,121.82,196.33,109.32,58.49-8.9,121.21-50.76,140.87-132.4,10.97-45.64,3.39-89.46-19.17-130.47C345.3,42.2,266,3.57,191.57,17.57ZM397.56,188.52h0s0,0,0,0ZM397.65,190.48c.44,4.94.78,9.9,1.32,14.82-.22,8.63-.98,17.1-2.27,25.4-3.45,22.2-10.83,43.21-22.7,62.93-1.77,2.94-3.63,5.81-5.56,8.59-36.3,52.39-99.58,76.75-161.45,62.45-3.95-.91-7.89-1.97-11.81-3.2-11.54-3.61-22.36-8.39-32.44-14.14-.6-.34-1.22-.68-1.82-1.03-.21-.12-.41-.26-.62-.38-73.31-43.45-105.22-139.2-73.58-217.92,5.36-13.33,12.52-26.17,21.63-38.19,3.05-4.02,6.27-7.86,9.63-11.52,25.42-27.69,59.28-44.83,95.37-48.75,18.27-1.99,37.11-.59,55.72,4.54,71.35,19.68,111.26,68.92,126.33,139.82,1.16,5.44,1.77,10.99,2.26,16.58Z"/><path class="cls-2" d="M162.73,347.34c-.6-.34-1.22-.68-1.82-1.03.6.35,1.21.68,1.82,1.03Z"/><path class="cls-2" d="M206.98,364.67c61.87,14.3,125.16-10.06,161.45-62.45-36.31,52.38-99.58,76.75-161.45,62.45Z"/><path class="cls-2" d="M396.7,230.7c1.29-8.3,2.05-16.77,2.27-25.4-.54-4.92-.88-9.88-1.32-14.82.43,4.94.78,9.9,1.32,14.81-.21,8.63-.97,17.1-2.26,25.4Z"/><path class="cls-2" d="M86.71,128.01c-31.65,78.73.27,174.47,73.58,217.92-73.31-43.45-105.22-139.19-73.58-217.92Z"/><path class="cls-2" d="M213.34,29.55c-36.09,3.92-69.95,21.05-95.37,48.75,25.42-27.69,59.28-44.82,95.37-48.75Z"/><path class="cls-2" d="M24.39,279.59c-11.06,16.72-12.63,32.43-4.45,42.99,6.61,8.54,17.71,11.01,31.77,6.2-26.79-7.28-31.62-25.77-27.32-49.19Z"/></g></svg>