<?xml version="1.0" encoding="UTF-8" standalone="no"?>
<svg
   xmlns:dc="http://purl.org/dc/elements/1.1/"
   xmlns:cc="http://creativecommons.org/ns#"
   xmlns:rdf="http://www.w3.org/1999/02/22-rdf-syntax-ns#"
   xmlns:svg="http://www.w3.org/2000/svg"
   xmlns="http://www.w3.org/2000/svg"
   xmlns:xlink="http://www.w3.org/1999/xlink"
   xmlns:sodipodi="http://sodipodi.sourceforge.net/DTD/sodipodi-0.dtd"
   xmlns:inkscape="http://www.inkscape.org/namespaces/inkscape"
   inkscape:version="1.0 (4035a4fb49, 2020-05-01)"
   sodipodi:docname="ds-automobiles-logo.svg"
   id="svg124"
   version="1.1"
   width="2000"
   viewBox="-6.1 0 125.92 99.422523"
   height="1520.0132">
  <metadata
     id="metadata130">
    <rdf:RDF>
      <cc:Work
         rdf:about="">
        <dc:format>image/svg+xml</dc:format>
        <dc:type
           rdf:resource="http://purl.org/dc/dcmitype/StillImage" />
        <dc:title></dc:title>
      </cc:Work>
    </rdf:RDF>
  </metadata>
  <defs
     id="defs128" />
  <sodipodi:namedview
     fit-margin-bottom="0"
     fit-margin-right="0"
     fit-margin-left="0"
     fit-margin-top="0"
     inkscape:current-layer="svg124"
     inkscape:window-maximized="1"
     inkscape:window-y="-11"
     inkscape:window-x="-11"
     inkscape:cy="950.6469"
     inkscape:cx="1456.3813"
     inkscape:zoom="0.22321145"
     showgrid="false"
     id="namedview126"
     inkscape:window-height="986"
     inkscape:window-width="1920"
     inkscape:pageshadow="2"
     inkscape:pageopacity="0"
     guidetolerance="10"
     gridtolerance="10"
     objecttolerance="10"
     borderopacity="1"
     bordercolor="#666666"
     pagecolor="#ffffff" />
  <linearGradient
     id="a">
    <stop
       id="stop2"
       stop-color="#8c8c8c"
       offset=".04" />
    <stop
       id="stop4"
       stop-color="#b6b6b6"
       offset=".194" />
    <stop
       id="stop6"
       stop-color="#ebebeb"
       offset=".403" />
    <stop
       id="stop8"
       stop-color="#fff"
       offset=".506" />
    <stop
       id="stop10"
       stop-color="#fafafa"
       offset=".564" />
    <stop
       id="stop12"
       stop-color="#ebebeb"
       offset=".633" />
    <stop
       id="stop14"
       stop-color="#d3d3d3"
       offset=".707" />
    <stop
       id="stop16"
       stop-color="#b2b2b2"
       offset=".786" />
    <stop
       id="stop18"
       stop-color="#878787"
       offset=".868" />
    <stop
       id="stop20"
       stop-color="#535353"
       offset=".952" />
    <stop
       id="stop22"
       stop-color="#4d4d4d"
       offset=".96" />
  </linearGradient>
  <linearGradient
     y2="540.18201"
     y1="539.32599"
     xlink:href="#a"
     x2="-885.604"
     x1="-885.604"
     gradientUnits="userSpaceOnUse"
     gradientTransform="matrix(37.263146,0,0,58.139549,33073.496,-31327.219)"
     id="b" />
  <linearGradient
     id="c">
    <stop
       id="stop26"
       stop-color="#bfbfbf"
       offset="0" />
    <stop
       id="stop28"
       stop-color="#666"
       offset=".212" />
    <stop
       id="stop30"
       stop-color="#595959"
       offset=".274" />
    <stop
       id="stop32"
       stop-color="#292929"
       offset=".516" />
    <stop
       id="stop34"
       stop-color="#0b0b0b"
       offset=".701" />
    <stop
       id="stop36"
       offset=".806" />
  </linearGradient>
  <linearGradient
     y2="554.04602"
     y1="553.28003"
     xlink:href="#c"
     x2="-873.73199"
     x1="-873.78497"
     gradientUnits="userSpaceOnUse"
     gradientTransform="matrix(22.547725,0,0,17.968664,19779.252,-9887.5311)"
     id="d" />
  <linearGradient
     y2="540.284"
     y1="539.42798"
     xlink:href="#a"
     x2="-885.59802"
     x1="-885.59802"
     gradientUnits="userSpaceOnUse"
     gradientTransform="matrix(37.25035,0,0,57.961868,33061.851,-31265.655)"
     id="e" />
  <linearGradient
     id="f">
    <stop
       id="stop41"
       stop-color="#4d4d4d"
       offset=".04" />
    <stop
       id="stop43"
       stop-color="#5a5a5a"
       offset=".048" />
    <stop
       id="stop45"
       stop-color="#808080"
       offset=".077" />
    <stop
       id="stop47"
       stop-color="#a3a3a3"
       offset=".109" />
    <stop
       id="stop49"
       stop-color="#c0c0c0"
       offset=".144" />
    <stop
       id="stop51"
       stop-color="#d7d7d7"
       offset=".182" />
    <stop
       id="stop53"
       stop-color="#e9e9e9"
       offset=".226" />
    <stop
       id="stop55"
       stop-color="#f6f6f6"
       offset=".279" />
    <stop
       id="stop57"
       stop-color="#fdfdfd"
       offset=".348" />
    <stop
       id="stop59"
       stop-color="#fff"
       offset=".506" />
    <stop
       id="stop61"
       stop-color="#fdfdfd"
       offset=".631" />
    <stop
       id="stop63"
       stop-color="#f5f5f5"
       offset=".701" />
    <stop
       id="stop65"
       stop-color="#e7e7e7"
       offset=".756" />
    <stop
       id="stop67"
       stop-color="#d3d3d3"
       offset=".805" />
    <stop
       id="stop69"
       stop-color="#bababa"
       offset=".848" />
    <stop
       id="stop71"
       stop-color="#9b9b9b"
       offset=".888" />
    <stop
       id="stop73"
       stop-color="#777"
       offset=".925" />
    <stop
       id="stop75"
       stop-color="#4d4d4d"
       offset=".96" />
  </linearGradient>
  <linearGradient
     xlink:href="#f"
     id="g" />
  <linearGradient
     y2="539.79498"
     y1="540.651"
     xlink:href="#f"
     x2="-871.12799"
     x1="-871.12799"
     gradientUnits="userSpaceOnUse"
     gradientTransform="matrix(20.731405,0,0,54.763529,18139.226,-29557.744)"
     id="h" />
  <linearGradient
     y2="539.69202"
     y1="540.54797"
     xlink:href="#f"
     x2="-871.03003"
     x1="-871.03003"
     gradientUnits="userSpaceOnUse"
     gradientTransform="matrix(20.731405,0,0,54.958934,18124.136,-29631.933)"
     id="i" />
  <linearGradient
     y2="540.35101"
     y1="539.70898"
     x2="-870.02197"
     x1="-871.04602"
     gradientUnits="userSpaceOnUse"
     gradientTransform="matrix(20.393336,0,0,56.202786,17779.884,-30326.217)"
     id="j">
    <stop
       id="stop81"
       stop-color="#f5f5f5"
       offset=".018" />
    <stop
       id="stop83"
       stop-color="#f0f0f0"
       offset=".327" />
    <stop
       id="stop85"
       stop-color="#e2e2e2"
       offset=".687" />
    <stop
       id="stop87"
       stop-color="#e0e0e0"
       offset=".727" />
    <stop
       id="stop89"
       stop-color="#b3b3b3"
       offset=".96" />
  </linearGradient>
  <linearGradient
     y2="539.72699"
     y1="540.58301"
     xlink:href="#f"
     x2="-871.91699"
     x1="-871.91699"
     gradientUnits="userSpaceOnUse"
     gradientTransform="matrix(21.478788,0,0,55.332107,18762.053,-29861.7)"
     id="k" />
  <linearGradient
     y2="554.32001"
     y1="553.54999"
     xlink:href="#c"
     x2="-872.84198"
     x1="-872.78699"
     gradientUnits="userSpaceOnUse"
     gradientTransform="matrix(21.920958,0,0,17.948951,19200.538,-9908.3997)"
     id="l" />
  <linearGradient
     y2="540.07599"
     y1="539.21997"
     xlink:href="#a"
     x2="-885.46899"
     x1="-885.46899"
     gradientUnits="userSpaceOnUse"
     gradientTransform="matrix(37.280958,0,0,59.898718,33051.735,-32297.981)"
     id="m" />
  <linearGradient
     y2="554.31299"
     y1="553.54498"
     xlink:href="#c"
     x2="-873.19202"
     x1="-873.24597"
     gradientUnits="userSpaceOnUse"
     gradientTransform="matrix(22.329666,0,0,17.954398,19544.425,-9911.3032)"
     id="n" />
  <path
     d="m 82.409709,91.035687 v 8.300344 h 2.507393 c 0.951086,0 1.642796,-0.0864 2.248035,-0.518711 0.605239,-0.432312 0.951148,-1.03754 0.951148,-1.815699 0,-1.037552 -0.69171,-1.902245 -1.902188,-2.075171 0.778165,-0.345853 1.124017,-0.951052 1.124017,-1.729217 0,-1.296938 -0.864602,-2.161546 -2.507393,-2.161546 z m 1.124018,0.864552 h 1.124017 c 1.037552,0 1.642841,0.432397 1.642841,1.383483 0,1.037551 -0.605289,1.383375 -1.642841,1.383375 h -1.124017 z m 0,3.545029 h 1.296994 c 1.296944,0 2.161547,0.345847 2.161547,1.469864 0,1.037552 -0.605302,1.556347 -2.075166,1.556347 h -1.383375 z"
     style="stroke-width:0.864625"
     id="path156" />
  <path
     d="m 74.022883,90.86271 c -2.420956,0 -4.06374,1.729301 -4.06374,4.236717 0,2.593881 1.642784,4.323092 4.06374,4.323092 2.680341,0 4.063734,-1.988603 4.063734,-4.323092 0,-2.507416 -1.642785,-4.236717 -4.063734,-4.236717 z m 0.08638,0.95104 c 1.815717,0 2.93983,1.46996 2.93983,3.285677 0,1.72925 -0.951187,3.372052 -2.93983,3.372052 -1.902177,0 -2.939722,-1.556336 -2.939722,-3.372052 0,-1.988643 1.124006,-3.285677 2.939722,-3.285677 z"
     style="stroke-width:0.864625"
     id="path152" />
  <path
     d="m 48.689301,90.86271 c -2.420956,0 -4.06374,1.729301 -4.06374,4.236717 0,2.593881 1.642784,4.323092 4.06374,4.323092 2.680342,0 4.06374,-1.988603 4.06374,-4.323092 0,-2.507416 -1.642785,-4.236717 -4.06374,-4.236717 z m 0,0.95104 c 1.815716,0 2.939722,1.46996 2.939722,3.285677 0,1.72925 -0.95108,3.372052 -2.939722,3.372052 -1.902177,0 -2.939723,-1.556336 -2.939723,-3.372052 0,-1.988643 1.210472,-3.285677 2.939723,-3.285677 z"
     style="stroke-width:0.864625"
     id="path146" />
  <path
     d="m 17.562767,90.949198 c -1.383402,2.680342 -2.420937,5.620031 -3.285564,8.386833 h 1.124018 l 0.778063,-2.33441 h 3.890872 l 0.778175,2.33441 h 1.037529 c -0.778164,-2.593882 -2.334501,-6.571116 -3.372052,-8.386833 z m 0.518709,1.210506 c 0.605239,1.124018 1.210525,2.680286 1.642838,3.890763 H 16.43875 c 0.432313,-1.124012 1.123951,-3.026137 1.642726,-3.890763 z"
     style="stroke-width:0.864625"
     id="path138" />
  <path
     d="m -8.5489873,90.949198 v 8.300344 h 2.507389 c 2.9397299,0 4.3232033,-1.6427 4.3232033,-4.150115 0,-2.680342 -1.3834479,-4.150229 -4.2367147,-4.150229 z m 1.0375289,0.951041 h 1.2969939 c 2.161566,0 3.2855642,0.951159 3.2855642,3.199188 0,2.248029 -0.9511246,3.285564 -3.4585407,3.285564 h -1.1240174 z"
     style="stroke-width:0.864625"
     id="path96" />
  <path
     style="stroke-width:0.864626"
     id="path168"
     d="m 121.49083,92.33258 c -0.34585,-0.345851 -1.03756,-0.518776 -1.72926,-0.518776 -1.21047,0 -1.81571,0.518776 -1.81571,1.210477 0,0.691701 0.43231,0.951089 1.55633,1.469865 1.98864,0.864626 2.7668,1.210476 2.7668,2.593879 0,1.124014 -0.86463,2.334491 -3.02619,2.334491 -1.12402,0 -2.24803,-0.345851 -2.93973,-0.864627 l 0.51877,-0.864626 c 0.60524,0.432313 1.55633,0.778164 2.50742,0.778164 1.29694,0 1.90218,-0.605239 1.90218,-1.383402 0,-0.691702 -0.60524,-0.951089 -1.98864,-1.556328 -1.72926,-0.691701 -2.42096,-1.210477 -2.42096,-2.507416 0,-1.210477 0.86463,-2.248029 2.93973,-2.248029 0.77817,0 1.64279,0.259388 2.16157,0.691701 z" />
  <path
     style="stroke-width:0.864626"
     id="path166"
     d="m 108.78082,91.986729 v 2.420954 h 2.93973 v 0.951089 h -2.93973 v 3.026192 h 3.89082 v 0.951089 h -5.01484 v -8.386875 h 4.75545 v 1.037551 z" />
  <path
     style="stroke-width:0.864626"
     id="path164"
     d="m 100.22102,98.384964 h 3.63143 v 0.951089 h -4.755452 v -8.386875 h 1.124022 z" />
  <path
     style="stroke-width:0.864626"
     id="path162"
     d="m 92.698768,90.949178 h 1.12401 v 8.300412 h -1.12401 z" />
  <path
     style="stroke-width:0.864626"
     id="path150"
     d="m 65.722427,90.949178 v 8.300412 h -1.124015 v -7.176398 c -0.34585,0.518776 -1.124014,1.815715 -1.469864,2.420954 -0.345851,0.605238 -0.778164,1.64279 -1.124015,2.334491 h -1.210476 c -0.691702,-1.556328 -1.64279,-3.28558 -2.593879,-4.755445 v 7.176398 h -1.124015 v -8.300412 h 1.556328 c 0.951089,1.296939 1.296939,1.815715 1.729252,2.593879 0.518776,0.864626 0.691701,1.210476 1.037552,2.075103 0.691701,-1.556328 1.729253,-3.28558 2.766804,-4.668982 z" />
  <path
     style="stroke-width:0.864626"
     id="path144"
     d="M 39.091936,99.336053 H 38.054384 V 91.986729 H 35.546968 V 91.03564 h 6.138847 v 0.951089 h -2.593879 z" />
  <path
     style="stroke-width:0.864626"
     id="path142"
     d="m 30.618598,90.949178 h 1.124014 v 5.101295 c 0,1.729253 -0.518775,3.28558 -3.112654,3.28558 -1.124015,0 -2.075104,-0.345851 -2.593879,-1.037552 C 25.517303,97.6068 25.43084,96.828637 25.43084,95.96401 v -5.101295 h 1.124014 v 4.92837 c 0,1.469865 0.259388,2.593879 1.988641,2.593879 1.729253,0 2.075103,-1.124014 2.075103,-2.593879 z" />
  <path
     style="stroke-width:0.864626"
     id="path136"
     d="M 6.409061,92.33258 C 6.063211,91.986729 5.37151,91.813804 4.679809,91.813804 c -1.210477,0 -1.815716,0.518776 -1.815716,1.210477 0,0.691701 0.432313,0.951089 1.556328,1.469865 1.98864,0.864626 2.766804,1.210476 2.766804,2.593879 0,1.124014 -0.864626,2.334491 -3.026192,2.334491 -1.124014,0 -2.248029,-0.345851 -2.9397296,-0.864627 L 1.740079,97.693263 c 0.605239,0.432313 1.556327,0.778164 2.507416,0.778164 1.29694,0 1.902178,-0.605239 1.902178,-1.383402 0,-0.691702 -0.605238,-0.951089 -1.98864,-1.556328 C 2.43178,94.839996 1.740079,94.32122 1.740079,93.024281 c 0,-1.210477 0.864626,-2.248029 2.93973,-2.248029 0.778163,0 1.64279,0.259388 2.161565,0.691701 z" />
  <path
     style="fill:url(#b);stroke-width:0.864626"
     id="path98"
     fill="url(#b)"
     d="m 88.289167,51.791116 c -0.259388,-0.259388 -1.64279,-1.469864 -1.64279,-1.469864 L 59.15126,28.964982 c 4.755445,4.668982 11.758918,12.277693 13.920484,19.021779 0.605238,1.815715 0.864626,3.544967 0.864626,5.101295 0,1.383402 -0.34585,2.939729 -0.864626,4.496057 -1.124014,2.853267 -3.458506,6.138847 -7.003473,9.85674 -1.210477,1.296939 -6.484698,6.484697 -8.21395,8.21395 -0.345851,0.34585 -0.605239,0.864626 -0.691702,1.469864 v 1.556328 l 30.86716,-24.036612 c 0.345851,-0.259388 1.037552,-0.778163 1.037552,-1.64279 -0.08646,-0.518776 -0.605239,-1.037551 -0.778164,-1.210477 z" />
  <path
     style="fill:url(#d);stroke-width:0.864626"
     id="path100"
     fill="url(#d)"
     d="m 68.402762,68.824255 c -0.172926,-0.172925 5.879459,-4.496057 9.251501,-11.845381 0.951089,-2.075103 1.383402,-2.939729 3.372043,-3.112654 2.075103,-0.172926 4.582519,-0.345851 5.792996,-0.432314 0.518776,0 0.691701,0.08646 0.778164,0.345851 0.08646,0.172925 -0.08646,0.432313 -0.518776,0.691701 -3.199117,2.248028 -7.954562,6.138847 -14.439259,11.240142 -0.259388,0.345851 -4.150207,3.199117 -4.236669,3.112655 z" />
  <path
     style="fill:url(#e);stroke-width:0.864626"
     id="path102"
     fill="url(#e)"
     d="M 72.898818,31.385935 C 72.29358,29.57022 72.034192,27.840967 72.034192,26.28464 c 0,-1.383402 0.345851,-2.939729 0.864626,-4.496057 1.124015,-2.853267 3.458506,-6.138847 7.003474,-9.85674 1.124014,-1.210477 5.792996,-5.8794588 8.21395,-8.2139498 0.432313,-0.4323132 0.605238,-0.8646264 0.778163,-1.4698648 0.08646,-0.5187758 0.08646,-0.9510889 0.08646,-1.1240142 V 0.60523842 L 58.027246,24.64185 c -0.172925,0.172925 -0.691701,0.605238 -0.951089,1.124014 -0.08646,0.172926 -0.08646,0.605239 0,0.951089 0.172925,0.432313 0.432313,0.691701 0.605238,0.864627 0.259388,0.172925 1.556328,1.296939 1.556328,1.296939 L 86.73284,50.234789 C 81.890932,45.565807 75.060384,37.957095 72.898818,31.385935 Z" />
  <path
     style="stroke-width:0.864626"
     id="path104"
     d="m 71.342491,30.953622 c -0.518776,-1.556327 -0.864626,-3.199117 -0.864626,-4.755445 0,-1.469864 0.432313,-2.853266 0.951089,-4.323131 C 73.93637,15.736199 85.781751,5.2742205 88.202704,3.28558 86.214064,4.8419074 77.481338,12.277694 75.23331,14.612185 c -3.717894,3.63143 -6.571161,7.695174 -6.571161,11.672455 0,4.323132 3.026193,8.732726 6.484698,12.79647 2.161566,2.593878 4.236669,4.841907 6.311772,6.657622 2.161566,1.988641 3.631431,3.28558 5.187758,4.496057 C 84.917124,48.591999 74.195758,39.08111 71.342491,30.953622 Z" />
  <path
     style="fill:url(#h);stroke-width:0.864626"
     id="path106"
     fill="url(#h)"
     d="M 72.898818,31.385935 C 72.29358,29.57022 72.034192,27.840967 72.034192,26.28464 c 0,-1.383402 0.345851,-2.939729 0.864626,-4.496057 1.124015,-2.853267 3.458506,-6.138847 7.003474,-9.85674 1.124014,-1.210477 5.792996,-5.8794588 8.21395,-8.2139498 0.08646,-0.086463 0.172925,-0.1729253 0.259388,-0.3458506 -2.420954,1.9021779 -14.266335,12.4506194 -16.773751,18.5894654 -0.605238,1.469865 -0.951089,2.853267 -0.951089,4.323132 0,1.556327 0.259388,3.199117 0.864626,4.755445 2.853267,8.127487 13.401708,17.551914 15.217424,19.281167 C 81.80447,45.479344 75.060384,37.957095 72.898818,31.385935 Z" />
  <path
     style="fill:url(#i);stroke-width:0.864626"
     id="path108"
     fill="url(#i)"
     d="M 74.541608,48.332611 C 71.688342,40.205124 60.880513,30.521309 59.15126,28.964982 c 4.755445,4.668982 11.758918,12.277693 13.920484,19.021779 0.605238,1.815715 0.864626,3.544967 0.864626,5.101295 0,1.383402 -0.34585,2.939729 -0.864626,4.496057 -1.124014,2.853267 -3.458506,6.138847 -7.003473,9.85674 -1.210477,1.296939 -6.484698,6.484697 -8.21395,8.21395 -0.08646,0.08646 -0.172926,0.172925 -0.259388,0.34585 2.420953,-1.98864 14.179871,-12.450619 16.77375,-18.589466 0.605239,-1.469864 0.951089,-2.853266 0.951089,-4.323131 0.08646,-1.556328 -0.172925,-3.112655 -0.778164,-4.755445 z" />
  <path
     style="stroke-width:0.864626"
     id="path110"
     d="m 70.823715,40.291586 c -2.161566,-2.593879 -4.236669,-4.841907 -6.311772,-6.657622 -2.161566,-1.988641 -3.804356,-3.458506 -5.360683,-4.668982 1.815715,1.556327 12.623544,11.326604 15.390348,19.367629 0.518776,1.556327 0.864627,3.199117 0.864627,4.755445 0,1.469865 -0.432313,2.853267 -0.951089,4.323131 -2.593879,6.138847 -14.352797,16.600826 -16.860213,18.589466 v 0.08646 c 2.075103,-1.556327 10.807829,-8.992114 13.055857,-11.326605 3.717893,-3.63143 6.57116,-7.695174 6.57116,-11.672455 0,-4.323132 -3.026192,-8.732726 -6.398235,-12.79647 z M 45.403702,26.198177 c 0,4.323132 -2.93973,8.646264 -6.830548,12.623545 -2.507417,2.507416 -5.014833,4.755444 -7.349324,6.57116 -2.420954,1.98864 -4.323132,3.28558 -6.052384,4.496056 1.98864,-1.556327 14.179871,-10.980754 17.378989,-19.021778 0.605238,-1.556328 0.951089,-3.112655 0.951089,-4.668983 0,-1.556327 -0.345851,-3.112654 -0.951089,-4.668982 C 39.351317,13.488171 27.160086,4.0637437 25.171446,2.5074163 c 1.729252,1.2104769 3.63143,2.5074163 6.052384,4.4960569 2.334491,1.8157152 4.841907,4.0637438 7.349324,6.5711598 3.890818,3.977281 6.830548,8.386875 6.830548,12.623544 z" />
  <path
     style="fill:url(#j);stroke-width:0.864626"
     id="path112"
     fill="url(#j)"
     d="M 25.171446,49.888938 24.65267,50.234789 V 2.1615658 l 0.518776,0.3458505 c 1.815715,1.5563274 13.14232,10.9807547 16.082049,19.0217787 0.605239,1.556328 0.951089,3.112655 0.951089,4.668982 0,1.556328 -0.34585,3.112655 -0.951089,4.668983 -3.026192,8.041024 -14.266334,17.465451 -16.082049,19.021778" />
  <path
     style="fill:url(#k);stroke-width:0.864626"
     id="path114"
     fill="url(#k)"
     d="m 25.171446,49.888938 c 1.98864,-1.556327 14.179871,-10.980754 17.378989,-19.021778 0.605238,-1.556328 0.951089,-3.112655 0.951089,-4.668983 0,-1.556327 -0.345851,-3.112654 -0.951089,-4.668982 C 39.351317,13.488171 27.160086,4.0637437 25.171446,2.5074163 c 1.815715,1.5563274 13.14232,10.9807547 16.082049,19.0217787 0.605239,1.556328 0.951089,3.112655 0.951089,4.668982 0,1.556328 -0.34585,3.112655 -0.951089,4.668983 -3.026192,8.041024 -14.266334,17.465451 -16.082049,19.021778 z" />
  <path
     style="stroke-width:0.864626"
     id="path116"
     d="M 88.462092,51.618191 C 86.214064,49.456625 75.925011,39.686348 73.158206,31.299473 72.552968,29.57022 72.29358,27.92743 72.29358,26.28464 c 0,-1.469865 0.345851,-2.853267 0.864626,-4.323132 1.29694,-3.28558 4.063744,-6.830547 6.917011,-9.770277 1.210477,-1.296939 6.484697,-6.4846973 8.21395,-8.3004126 0.432313,-0.4323131 0.691701,-0.9510889 0.778164,-1.4698647 0.08646,-0.5187758 0.172925,-1.0375516 0.172925,-1.3834021 V 0.08646263 L 57.854321,24.382462 C 57.50847,24.64185 56.989694,25.074163 56.816769,25.765864 56.643844,25.160626 56.125068,24.64185 55.779217,24.382462 L 24.393282,0 V 52.482817 L 55.779217,28.100355 c 0.345851,-0.259388 0.864627,-0.691701 1.037552,-1.383402 0.172925,0.518776 0.518776,0.951089 0.691701,1.037552 2.248028,2.161566 12.623544,11.931843 15.390348,20.318718 0.605239,1.729253 0.864627,3.372043 0.864627,5.014833 0,1.469865 -0.345851,2.853267 -0.864627,4.323131 -1.296939,3.28558 -4.063743,6.830548 -6.91701,9.770278 -1.210477,1.296939 -6.484697,6.57116 -8.21395,8.300412 -0.345851,0.345851 -0.691701,0.951089 -0.778164,1.469865 -0.08646,0.432313 -0.172925,0.864627 -0.172925,1.383402 v 0.951089 L 88.202704,54.903771 c 0.432313,-0.34585 1.124014,-0.951089 1.124014,-1.815715 -0.08646,-0.778164 -0.691701,-1.29694 -0.864626,-1.469865 z M 55.606292,27.840967 24.65267,51.877579 V 0.60523842 L 55.519829,24.64185 c 0.345851,0.259388 1.037552,0.864626 1.037552,1.64279 0,0.691701 -0.605238,1.29694 -0.951089,1.556327 z m 1.469865,-1.124014 c -0.08646,-0.34585 -0.08646,-0.691701 0,-0.951089 0.172925,-0.518776 0.691701,-0.951089 0.951089,-1.124014 L 88.894405,0.60523842 V 1.0375516 c 0,0.1729252 0,0.6052384 -0.08646,1.1240142 -0.08646,0.6052384 -0.345851,1.1240142 -0.778164,1.4698647 -2.334491,2.3344911 -7.089936,7.0034735 -8.21395,8.2139505 -3.544968,3.717893 -5.879459,7.003473 -7.003473,9.85674 -0.605239,1.556327 -0.864626,3.026192 -0.864626,4.496056 0,1.64279 0.34585,3.372043 0.864626,5.101296 2.161566,6.657622 8.992114,14.179871 13.747558,18.848853 L 59.237723,28.878519 c 0,0 -1.29694,-1.124014 -1.556328,-1.296939 -0.172925,-0.172926 -0.432313,-0.518776 -0.605238,-0.864627 z M 87.943316,54.730846 57.076157,78.767457 v -0.432313 c 0,-0.432313 0.08646,-0.778163 0.08646,-1.124014 0.08646,-0.605238 0.345851,-1.124014 0.778164,-1.469865 l 8.21395,-8.21395 c 3.544968,-3.717893 5.879459,-7.003473 7.003473,-9.85674 0.605239,-1.556327 0.864627,-3.026192 0.864627,-4.496057 0,-1.64279 -0.345851,-3.372042 -0.864627,-5.101295 C 70.910178,41.329138 63.993167,33.720426 59.237723,29.051444 l 27.581579,21.442733 c 0,0 1.383402,1.210477 1.64279,1.469865 0.172925,0.172925 0.691701,0.691701 0.691701,1.296939 -0.172925,0.605239 -0.864626,1.210477 -1.210477,1.469865 z" />
  <path
     style="fill:url(#l);stroke-width:0.864626"
     id="path118"
     fill="url(#l)"
     d="m 76.962562,41.934376 c 0.08646,-0.08646 -3.112655,-3.199117 -3.544968,-3.544968 -3.544968,-3.28558 -6.398235,-8.386875 -6.398235,-8.386875 -1.037551,-2.075103 -1.383402,-2.939729 -3.372042,-3.112655 -2.075103,-0.172925 -3.458505,-0.259387 -4.668982,-0.259387 -0.518776,0 -0.691701,0.08646 -0.778164,0.34585 -0.08646,0.172925 0.08646,0.432313 0.518776,0.691701 3.199117,2.248029 7.954562,6.052384 14.439259,11.240142 0.432314,0.259388 3.717894,3.112655 3.804356,3.026192 z" />
  <path
     style="fill:url(#m);stroke-width:0.864626"
     id="path120"
     fill="url(#m)"
     d="m 24.65267,50.321252 0.518776,-0.345851 c 1.729252,-1.210477 3.63143,-2.507416 6.052384,-4.496057 2.334491,-1.815715 4.841907,-4.063743 7.349324,-6.57116 3.890818,-3.977281 6.830548,-8.300412 6.830548,-12.623544 0,-4.323132 -2.93973,-8.646263 -6.830548,-12.623544 C 36.065737,11.153679 33.558321,8.9056511 31.22383,7.0899358 28.802876,5.1012953 26.900698,3.8043558 25.171446,2.593879 L 24.65267,2.2480284 V 0.60523842 L 55.519829,24.64185 c 0.345851,0.259388 1.037552,0.864626 1.037552,1.64279 0,0.778164 -0.605238,1.29694 -1.037552,1.64279 L 24.65267,51.877579 Z" />
  <path
     style="fill:url(#n);stroke-width:0.864626"
     id="path122"
     fill="url(#n)"
     d="m 36.238663,41.934376 c 0,0 0.778163,-0.778163 2.593879,-2.420953 0.432313,-0.345851 0.864626,-0.778164 1.210476,-1.124015 3.544968,-3.28558 6.398235,-8.386875 6.398235,-8.386875 1.037552,-2.075103 1.383402,-2.939729 3.372043,-3.112655 2.075103,-0.172925 3.458505,-0.259387 4.668982,-0.259387 0.518776,0 0.691701,0.08646 0.778164,0.34585 0.08646,0.172925 -0.08646,0.432313 -0.518776,0.691701 -3.199118,2.248029 -7.8681,6.138847 -14.43926,11.240142 -0.432313,0.345851 -0.864626,0.691701 -1.296939,0.951089 -1.729253,1.29694 -2.680342,2.161566 -2.766804,2.075103 z" />
</svg>
