<svg id="Calque_1" data-name="Calque 1" xmlns="http://www.w3.org/2000/svg" viewBox="0 0 123.65 96.66"><defs><style>.cls-1{fill:none;stroke:#1a1b1b;stroke-linecap:round;stroke-linejoin:round;stroke-width:2px;}</style></defs><g id="eqiTTs.tif"><path class="cls-1" d="M132.46,427.43c0,.08.08.16.07.23a43.83,43.83,0,0,0,.19,4.44c.08,1.95.34,3.89.27,5.89,1.87-.46,3.6-1.08,5.39-1.46.15,0,.39,0,.41-.38.07-1.09.19-2.18.3-3.27.15-1.63.21-3.28.45-4.91.1-.69,0-1.4.16-2.1.21-.87-.55-1.11-1.09-1.39-2.84-1.44-5.67-2.89-8.56-4.22a105.81,105.81,0,0,0-10.77-4.41,25,25,0,0,0-6.39-1.53,1.76,1.76,0,0,0-1.17.26c-2.6,1.64-5.22,3.26-7.73,5q-4.48,3.19-8.74,6.7c-2.3,1.9-4.5,3.91-6.7,5.92s-4.08,4-6.08,6.08A112.37,112.37,0,0,0,75,446.93c-1.28,1.61-2.47,3.31-3.66,5-1,1.44-2,2.93-2.89,4.41a50.92,50.92,0,0,0-3.47,6c-.2.43-.47.83-.7,1.24" transform="translate(-18.61 -413.32)"/><path class="cls-1" d="M20.74,455.86c-.37.46-.2,1.06-.26,1.56-.14,1.16-.3,2.33-.39,3.5-.13,1.66-.18,3.32-.32,5a75.17,75.17,0,0,0-.07,8.49,35.54,35.54,0,0,0,.24,4.6c.34,2,.37,4.12.8,6.15" transform="translate(-18.61 -413.32)"/><path class="cls-1" d="M53.64,451.34a1.56,1.56,0,0,0-.27-2.22c-1.44-1.51-2.64-3.23-3.94-4.87l-3.12-3.89a1,1,0,0,0-.94-.31c-2.55.11-5.09-.14-7.64-.2-2.26-.05-4.53,0-6.78-.15-1.64-.12-3.27-.08-4.91-.1-.41,0-.93-.52-1.21,0a10,10,0,0,0-.38,1.13c-.48,1.23-.71,2.54-1.22,3.76" transform="translate(-18.61 -413.32)"/><path class="cls-1" d="M132.93,438c-2.09.81-4.2,1.56-6.24,2.5-1.79.82-3.58,1.67-5.31,2.63-2.21,1.24-4.38,2.53-6.47,4-1.12.78-2.26,1.52-3.34,2.35-.79.6-1.57,1.19-2.34,1.79q-3.48,2.7-6.7,5.7c-1.73,1.61-3.41,3.29-5.07,5-.82.84-1.53,1.79-2.35,2.63-1.71,1.76-3.19,3.72-4.83,5.54-.28.32-.52.67-.78,1q-2.67,3.45-5.25,7c-1.89,2.58-3.68,5.22-5.4,7.9-1.13,1.77-2.2,3.6-3.29,5.4s-2,3.62-3.12,5.34a27.06,27.06,0,0,0-1.34,2.56" transform="translate(-18.61 -413.32)"/><path class="cls-1" d="M26.2,504a16.09,16.09,0,0,0,3,1.62c1,.56,2,1,3,1.49s2.14,1.08,3.19,1.65a1.59,1.59,0,0,0,.78.22h9s.1-.05.16-.08" transform="translate(-18.61 -413.32)"/><path class="cls-1" d="M48.8,503.91Q52,506,55.2,508a3.22,3.22,0,0,0,1.87.56c2.86,0,5.72,0,8.57,0,.36,0,.73.06,1-.23" transform="translate(-18.61 -413.32)"/><path class="cls-1" d="M127.39,472.37c0-.49-.42-.62-.62-.94a41.77,41.77,0,0,0-3.14-3.87,38.18,38.18,0,0,0-4.44-4.37,10,10,0,0,0-2.17-1.32,1.78,1.78,0,0,0-2.66,1.7,9.72,9.72,0,0,0,.17,1.94" transform="translate(-18.61 -413.32)"/><path class="cls-1" d="M108.76,475.17a10.16,10.16,0,0,1-2.1-2.34,6,6,0,0,0-2.12-1.62,1.18,1.18,0,0,0-1.71.53,4.86,4.86,0,0,0-.17,3.9c.38,1.39,1.32,2.48,1.84,3.8.3.77.72,1.51,1.06,2.27" transform="translate(-18.61 -413.32)"/><path class="cls-1" d="M66.35,508.27a47.31,47.31,0,0,0-4.44-3.13A20.16,20.16,0,0,1,60,503.6H59.1c-3.15,0-6.29,0-9.44,0a1.4,1.4,0,0,0-1.56.95c-.46,1.35-1.32,2.51-1.87,3.82-.21.51-.37.59-.95.26-1.68-.95-3.31-2-5-2.86-1-.52-2-1.16-3-1.71a2,2,0,0,0-1-.29H27a.79.79,0,0,0-.31,0c-.8.42-1-.11-1.25-.71" transform="translate(-18.61 -413.32)"/><path class="cls-1" d="M94.18,481.32c1.38,1,2.78,2,4.12,3.05a8.81,8.81,0,0,1,2.27,2.87A2.56,2.56,0,0,1,98.94,491a5.47,5.47,0,0,1-4.92-.63,5.23,5.23,0,0,1-1.48-1.79" transform="translate(-18.61 -413.32)"/><path class="cls-1" d="M139.16,425.09l-4.28,1.4a78,78,0,0,0-8,3.14c-1.83.83-3.63,1.74-5.4,2.69-2.44,1.3-4.78,2.75-7.16,4.16-1.28.76-2.46,1.68-3.67,2.56-1.58,1.16-3.16,2.33-4.7,3.55s-2.84,2.36-4.28,3.52c-2.49,2-4.77,4.27-7.05,6.51-1.17,1.15-2.31,2.37-3.42,3.59s-2,2.32-3.09,3.48c.88,1.28,1.38,2.78,2.19,4.11" transform="translate(-18.61 -413.32)"/><path class="cls-1" d="M87.86,459.83c-1.14,1.56-2.47,3-3.69,4.49-1.92,2.35-3.75,4.77-5.58,7.2-1.2,1.6-2.35,3.26-3.51,4.9-.23.32-.42.67-.63,1-1,1.65-2.09,3.27-3.15,4.88s-1.72,3.14-2.83,4.56c-.48.61-.7,1.42-1.12,2.08-1,1.53-1.73,3.19-2.65,4.75-.8,1.33-1.39,2.76-2.11,4.15l6.56,5.2" transform="translate(-18.61 -413.32)"/><path class="cls-1" d="M20.82,485.3a10.22,10.22,0,0,0,.42,2.56c.25,1.73.68,3.44,1.06,5.14.26,1.13.57,2.24.85,3.35" transform="translate(-18.61 -413.32)"/><path class="cls-1" d="M40.46,496a6.18,6.18,0,0,0-.78,1.64l8,5.29a4.88,4.88,0,0,1,.93.71" transform="translate(-18.61 -413.32)"/><path class="cls-1" d="M22.92,445.58A39.39,39.39,0,0,0,21.83,450c-.31,1.34-.45,2.72-.82,4.05a3.56,3.56,0,0,0-.19,1.63" transform="translate(-18.61 -413.32)"/><path class="cls-1" d="M43.19,447.21c.91,1.07,1.83,2.13,2.73,3.2,1.77,2.09,3.53,4.2,5.3,6.3" transform="translate(-18.61 -413.32)"/><path class="cls-1" d="M41.16,453.36c1.05,1.22,2.16,2.37,3.23,3.56,1.53,1.69,3.16,3.29,4.58,5.08a2.23,2.23,0,0,0,.54.4" transform="translate(-18.61 -413.32)"/><path class="cls-1" d="M133,460.76a19.1,19.1,0,0,0-3.71,4.69A10.9,10.9,0,0,0,127.7,470c0,.06-.1.1-.15.16" transform="translate(-18.61 -413.32)"/><path class="cls-1" d="M119.21,433.74c.46.46.25,1.1.35,1.64.31,1.64.44,3.32.66,5,.13,1,.31,1.92.47,2.88" transform="translate(-18.61 -413.32)"/><path class="cls-1" d="M105.87,482.65a2.74,2.74,0,0,1-.64,3,2.66,2.66,0,0,1-2.86.47,10.58,10.58,0,0,1-2.65-1.09c-.21-.12-.36-.32-.63-.14" transform="translate(-18.61 -413.32)"/><path class="cls-1" d="M55.82,465.59c.26,1.3.53,2.6.78,3.9s.52,2.9.79,4.36a.64.64,0,0,0,.45.56c.49.18.71.78,1.26.92" transform="translate(-18.61 -413.32)"/><path class="cls-1" d="M46.86,490.28a18.81,18.81,0,0,0,.43,3.5c.1,1.09.26,2.19.42,3.28.23,1.5.3,3,.61,4.52a10.51,10.51,0,0,1,.09,1.78" transform="translate(-18.61 -413.32)"/><path class="cls-1" d="M83.42,465.44a6.65,6.65,0,0,1,1.18,1.78c1.05,1.88,2.12,3.75,3.19,5.61" transform="translate(-18.61 -413.32)"/><path class="cls-1" d="M119.44,476.18c-1.11-1.67-1.86-3.55-3-5.2a14.52,14.52,0,0,0-3.89-4.11,3,3,0,0,0-4,.2,3.4,3.4,0,0,1-.7.55,1.21,1.21,0,0,0-.61,1.09,6.46,6.46,0,0,0,.45,3.19" transform="translate(-18.61 -413.32)"/><path class="cls-1" d="M78.51,472l4.91,6.93" transform="translate(-18.61 -413.32)"/><path class="cls-1" d="M36.1,477.58a1.18,1.18,0,0,0,.54-.54c.94-1.73,2.1-3.31,3.16-5,1.29-2,2.64-4,3.93-6a2.2,2.2,0,0,1,1.65-.92,29,29,0,0,1,4.75-.34c1.65,0,3.28.23,4.91.36a4.3,4.3,0,0,1,2.11,1.14c1.42,1.08,2.86,2.13,4.28,3.2" transform="translate(-18.61 -413.32)"/><path class="cls-1" d="M74.84,477A8.2,8.2,0,0,1,76.56,479l3.74,4.44" transform="translate(-18.61 -413.32)"/><path class="cls-1" d="M72.19,481.17c1.61,1.81,3.3,3.56,4.84,5.45.22.27.63.34.78.7" transform="translate(-18.61 -413.32)"/><path class="cls-1" d="M70,484.67c1,1,1.87,2,2.85,3a35.93,35.93,0,0,0,2.92,3" transform="translate(-18.61 -413.32)"/><path class="cls-1" d="M45.92,483.58c.15.66-.25,1.12-.53,1.64A34,34,0,0,0,43.58,489c-.82,2.12-2,4.09-2.76,6.22-.07.19,0,.53-.28.64" transform="translate(-18.61 -413.32)"/><path class="cls-1" d="M66,491.76a29.25,29.25,0,0,0,2.5,2.48A44.39,44.39,0,0,0,72,497.6" transform="translate(-18.61 -413.32)"/><path class="cls-1" d="M68,488.1c2.08,1.85,4,3.8,6,5.76" transform="translate(-18.61 -413.32)"/><path class="cls-1" d="M101.2,446.74c.87,2.06,1.41,4.22,2.18,6.31" transform="translate(-18.61 -413.32)"/><path class="cls-1" d="M39.45,459.36l5.69,5.76" transform="translate(-18.61 -413.32)"/><path class="cls-1" d="M44.59,442.93c-.67,1.44-1.12,3-1.71,4.44a37.7,37.7,0,0,0-1.72,5.37c-.4,1.66-1.16,3.22-1.47,4.91-.35,1.9-1,3.75-1.18,5.68,0,.06-.1.11-.15.16" transform="translate(-18.61 -413.32)"/><path class="cls-1" d="M39.61,497.91,37,503.75" transform="translate(-18.61 -413.32)"/><path class="cls-1" d="M108.06,472.83a9.4,9.4,0,0,1,.81,2.34,3.68,3.68,0,0,0,.76,1.55,35.11,35.11,0,0,1,2.24,3.9c.11.2.19.4.47.31" transform="translate(-18.61 -413.32)"/><path class="cls-1" d="M23.23,496.51Q24,499,24.8,501.57a1.42,1.42,0,0,0,.3.7" transform="translate(-18.61 -413.32)"/><path class="cls-1" d="M53.33,452c-.59,1.21-.91,2.5-1.4,3.74-.25.62-.47,1.25-.71,1.87" transform="translate(-18.61 -413.32)"/><path class="cls-1" d="M45.84,484.83a2.87,2.87,0,0,1,.44,1.79,27,27,0,0,1,.35,3.35s.1.1.15.15" transform="translate(-18.61 -413.32)"/><path class="cls-1" d="M38.28,463.64a18,18,0,0,1-.54,2.42c-.33,2-.63,4-.94,6a22.84,22.84,0,0,0-.48,3.5c0,.08-.09.16-.15.23" transform="translate(-18.61 -413.32)"/><path class="cls-1" d="M62.29,498.38A55.41,55.41,0,0,0,60,503.52" transform="translate(-18.61 -413.32)"/><path class="cls-1" d="M95,456.48a40.63,40.63,0,0,1,1.54,3.82,11.21,11.21,0,0,1,.56,1.16" transform="translate(-18.61 -413.32)"/><path class="cls-1" d="M92.46,483.58a5.3,5.3,0,0,0-.27,4.2c0,.18,0,.52.27.63" transform="translate(-18.61 -413.32)"/><path class="cls-1" d="M51.14,457.73a50.09,50.09,0,0,0-1.69,5.38c-.15.5-.54,1-.41,1.55" transform="translate(-18.61 -413.32)"/><path class="cls-1" d="M114.61,465.67a28,28,0,0,0,1.39,4c.07.14,0,.35,0,.54" transform="translate(-18.61 -413.32)"/><path class="cls-1" d="M42.72,491.21c1.28,1.11,2.74,2,4,3.11a1.48,1.48,0,0,0,.54.24" transform="translate(-18.61 -413.32)"/><path class="cls-1" d="M110.24,445.26c.46,1.38.67,2.81,1,4.21" transform="translate(-18.61 -413.32)"/><path class="cls-1" d="M68.61,504.14l-1.87,4.05" transform="translate(-18.61 -413.32)"/><path class="cls-1" d="M64.24,463.8c-.75,1.24-1.19,2.62-1.87,3.89" transform="translate(-18.61 -413.32)"/><path class="cls-1" d="M71,499.47a18.59,18.59,0,0,0-1.47,2.88c-.3.54-.58,1.09-.86,1.64" transform="translate(-18.61 -413.32)"/><path class="cls-1" d="M37.89,466.37c.62.17,1,.71,1.41,1.09.71.59,1.45,1.14,2.18,1.71" transform="translate(-18.61 -413.32)"/><path class="cls-1" d="M90.36,464c.8,1.07,1.17,2.37,1.87,3.5" transform="translate(-18.61 -413.32)"/><path class="cls-1" d="M109.07,440.36c.29,1.17.57,2.33.86,3.5" transform="translate(-18.61 -413.32)"/><path class="cls-1" d="M62.29,467.85a32.69,32.69,0,0,0-1.95,4.75.91.91,0,0,1-.15.23" transform="translate(-18.61 -413.32)"/><path class="cls-1" d="M60.11,473a25,25,0,0,0-1.33,3.66,1.08,1.08,0,0,1-.39.7" transform="translate(-18.61 -413.32)"/><path class="cls-1" d="M141.27,453.44l-2.18,2" transform="translate(-18.61 -413.32)"/><path class="cls-1" d="M45.92,440.2l-1,2.1" transform="translate(-18.61 -413.32)"/><path class="cls-1" d="M103.46,453.21a11.28,11.28,0,0,1,.78,2.1" transform="translate(-18.61 -413.32)"/><path class="cls-1" d="M93.71,453.75l.94,2.11" transform="translate(-18.61 -413.32)"/><path class="cls-1" d="M37,471.59a21.06,21.06,0,0,1,2,1.48" transform="translate(-18.61 -413.32)"/><path class="cls-1" d="M36.1,476l-.16,2" transform="translate(-18.61 -413.32)"/><path class="cls-1" d="M127.47,470.34a2.92,2.92,0,0,1-.23,1.4" transform="translate(-18.61 -413.32)"/><path class="cls-1" d="M93.4,482.1l-.86,1.33" transform="translate(-18.61 -413.32)"/><path class="cls-1" d="M58,476.42c.09.52.55,1,.32,1.55" transform="translate(-18.61 -413.32)"/></g></svg>