<?xml version="1.0" encoding="UTF-8"?><svg id="Calque_1" xmlns="http://www.w3.org/2000/svg" viewBox="0 0 5934.36 4258.15"><defs><style>.cls-1{letter-spacing:-.02em;}.cls-2{letter-spacing:-.04em;}.cls-3{letter-spacing:-.02em;}.cls-4{letter-spacing:-.02em;}.cls-5{letter-spacing:-.03em;}.cls-6{letter-spacing:0em;}.cls-7{letter-spacing:0em;}.cls-8{letter-spacing:-.04em;}.cls-9{letter-spacing:-.02em;}.cls-10{letter-spacing:-.03em;}.cls-11{letter-spacing:-.06em;}.cls-12{letter-spacing:-.06em;}.cls-13{letter-spacing:0em;}.cls-14{letter-spacing:0em;}.cls-15{letter-spacing:0em;}.cls-16{letter-spacing:0em;}.cls-17{letter-spacing:0em;}.cls-18{letter-spacing:-.09em;}.cls-19{fill:#000;font-family:DMSans-Bold, 'DM Sans';font-size:100px;font-variation-settings:'opsz' 14, 'wght' 700;font-weight:700;}.cls-20{letter-spacing:-.01em;}.cls-21{letter-spacing:-.03em;}.cls-22{letter-spacing:-.01em;}.cls-23{letter-spacing:-.03em;}.cls-24{letter-spacing:-.01em;}.cls-25{letter-spacing:-.01em;}</style></defs><text class="cls-19" transform="translate(2315.24 85)"><tspan class="cls-5" x="0" y="0">R</tspan><tspan x="60.1" y="0">éalis</tspan><tspan class="cls-6" x="286.2" y="0">a</tspan><tspan class="cls-24" x="344.2" y="0">t</tspan><tspan x="386.2" y="0">eur</tspan><tspan x="25.1" y="120">Scénari</tspan><tspan class="cls-20" x="395" y="120">s</tspan><tspan class="cls-24" x="446.7" y="120">t</tspan><tspan x="488.7" y="120">e</tspan><tspan x="-5.5" y="240">P</tspan><tspan class="cls-17" x="55.9" y="240">r</tspan><tspan x="96" y="240">odu</tspan><tspan class="cls-6" x="284.1" y="240">c</tspan><tspan class="cls-24" x="344.2" y="240">t</tspan><tspan x="386.2" y="240">eur</tspan><tspan x="-430.5" y="360">P</tspan><tspan class="cls-17" x="-369.1" y="360">r</tspan><tspan x="-329" y="360">odu</tspan><tspan class="cls-6" x="-140.9" y="360">c</tspan><tspan class="cls-24" x="-80.8" y="360">t</tspan><tspan x="-38.8" y="360">eur </tspan><tspan class="cls-23" x="147.4" y="360">e</tspan><tspan class="cls-10" x="204.1" y="360">x</tspan><tspan x="258.6" y="360">écutif</tspan><tspan x="-855.89" y="480">Di</tspan><tspan class="cls-17" x="-757.79" y="480">r</tspan><tspan x="-717.69" y="480">e</tspan><tspan class="cls-6" x="-657.49" y="480">c</tspan><tspan class="cls-24" x="-597.39" y="480">t</tspan><tspan x="-555.39" y="480">eur de la ph</tspan><tspan class="cls-3" x="16.1" y="480">o</tspan><tspan class="cls-24" x="75.1" y="480">t</tspan><tspan class="cls-21" x="117.1" y="480">o</tspan><tspan x="174.9" y="480">graphie </tspan><tspan x="-129" y="720">Chef mon</tspan><tspan class="cls-24" x="344.2" y="720">t</tspan><tspan x="386.2" y="720">eur</tspan><tspan x="-1243.88" y="840">Composi</tspan><tspan class="cls-24" x="-807.89" y="840">t</tspan><tspan x="-765.88" y="840">eur de la musique originale</tspan><tspan x="-397.39" y="960">Conce</tspan><tspan class="cls-4" x="-80" y="960">p</tspan><tspan class="cls-24" x="-16.5" y="960">t</tspan><tspan x="25.5" y="960">eur sono</tspan><tspan class="cls-15" x="448.6" y="960">r</tspan><tspan x="488.7" y="960">e</tspan><tspan x="-417.69" y="1080">Di</tspan><tspan class="cls-17" x="-319.6" y="1080">r</tspan><tspan x="-279.5" y="1080">e</tspan><tspan class="cls-6" x="-219.3" y="1080">c</tspan><tspan class="cls-24" x="-159.2" y="1080">t</tspan><tspan x="-117.2" y="1080">eur arti</tspan><tspan class="cls-20" x="239.2" y="1080">s</tspan><tspan x="290.9" y="1080">tique</tspan><tspan x="-258.5" y="1200">Chef décor</tspan><tspan class="cls-6" x="286.2" y="1200">a</tspan><tspan class="cls-24" x="344.2" y="1200">t</tspan><tspan x="386.2" y="1200">eur</tspan><tspan x="34.9" y="1440">Co</tspan><tspan class="cls-20" x="169.7" y="1440">s</tspan><tspan x="221.4" y="1440">tumier</tspan><tspan class="cls-5" x="-637.49" y="1560">R</tspan><tspan x="-577.39" y="1560">esponsable maquilla</tspan><tspan class="cls-4" x="431.1" y="1560">g</tspan><tspan x="488.7" y="1560">e</tspan><tspan class="cls-5" x="-485.69" y="1680">R</tspan><tspan x="-425.59" y="1680">esponsable coiffu</tspan><tspan class="cls-17" x="448.6" y="1680">r</tspan><tspan x="488.7" y="1680">e</tspan><tspan x="-1382.19" y="1800">Coo</tspan><tspan class="cls-17" x="-1186.39" y="1800">r</tspan><tspan x="-1146.29" y="1800">din</tspan><tspan class="cls-6" x="-991.7" y="1800">a</tspan><tspan class="cls-22" x="-933.7" y="1800">t</tspan><tspan x="-891.69" y="1800">eur des cascades </tspan><tspan class="cls-12" x="-8.9" y="1800">(</tspan><tspan x="25.9" y="1800">Cascade</tspan><tspan class="cls-24" x="456.5" y="1800">s</tspan><tspan x="508.4" y="1800">)</tspan><tspan class="cls-1" x="-387.6" y="1920">A</tspan><tspan class="cls-6" x="-319" y="1920">c</tspan><tspan class="cls-22" x="-258.9" y="1920">t</tspan><tspan x="-216.89" y="1920">eurs principaux</tspan><tspan class="cls-1" x="-1049.48" y="2040">A</tspan><tspan class="cls-6" x="-980.88" y="2040">c</tspan><tspan class="cls-22" x="-920.78" y="2040">t</tspan><tspan x="-878.78" y="2040">eurs de soutien / Second </tspan><tspan class="cls-17" x="360.9" y="2040">r</tspan><tspan x="401" y="2040">ôle</tspan><tspan x="-559.79" y="2280">Figurants / Silhou</tspan><tspan class="cls-16" x="290.7" y="2280">e</tspan><tspan x="350.2" y="2280">t</tspan><tspan class="cls-22" x="393.5" y="2280">t</tspan><tspan x="435.5" y="2280">es</tspan><tspan x="-256.69" y="2400">Doubleurs (</tspan><tspan class="cls-1" x="308.7" y="2400">v</tspan><tspan x="362.9" y="2400">oix)</tspan><tspan x="-1213.78" y="2520">Superviseur des ef</tspan><tspan class="cls-4" x="-302.19" y="2520">f</tspan><tspan class="cls-14" x="-267.09" y="2520">e</tspan><tspan class="cls-13" x="-207.59" y="2520">ts visuels (VFX)</tspan><tspan x="-1309.08" y="2640">Superviseur des ef</tspan><tspan class="cls-4" x="-397.49" y="2640">f</tspan><tspan class="cls-14" x="-362.39" y="2640">e</tspan><tspan class="cls-13" x="-302.89" y="2640">ts spéciaux (SFX)</tspan><tspan x="-1212.08" y="2760">Coo</tspan><tspan class="cls-17" x="-1016.29" y="2760">r</tspan><tspan x="-976.19" y="2760">din</tspan><tspan class="cls-6" x="-821.59" y="2760">a</tspan><tspan class="cls-22" x="-763.59" y="2760">t</tspan><tspan x="-721.59" y="2760">eur de la po</tspan><tspan class="cls-20" x="-150.9" y="2760">s</tspan><tspan x="-99.2" y="2760">t-p</tspan><tspan class="cls-17" x="67.2" y="2760">r</tspan><tspan x="107.3" y="2760">odu</tspan><tspan class="cls-6" x="295.4" y="2760">c</tspan><tspan x="355.5" y="2760">tion</tspan><tspan class="cls-5" x="-1005.18" y="2880">R</tspan><tspan x="-945.08" y="2880">esponsable des ef</tspan><tspan class="cls-4" x="-56.09" y="2880">f</tspan><tspan class="cls-14" x="-20.99" y="2880">e</tspan><tspan x="38.51" y="2880">ts sono</tspan><tspan class="cls-17" x="395.4" y="2880">r</tspan><tspan x="435.5" y="2880">es</tspan><tspan class="cls-5" x="-935.18" y="3120">R</tspan><tspan x="-875.08" y="3120">esponsable de la di</tspan><tspan class="cls-20" x="65.11" y="3120">s</tspan><tspan x="116.81" y="3120">tribution</tspan><tspan class="cls-5" x="-1411.08" y="3240">R</tspan><tspan x="-1350.98" y="3240">esponsable de la p</tspan><tspan class="cls-17" x="-438.19" y="3240">r</tspan><tspan x="-398.09" y="3240">om</tspan><tspan class="cls-4" x="-242.99" y="3240">o</tspan><tspan class="cls-7" x="-183.99" y="3240">tion</tspan><tspan class="cls-9" x="9.4" y="3240">/</tspan><tspan x="50.2" y="3240">mar</tspan><tspan class="cls-8" x="243.8" y="3240">k</tspan><tspan class="cls-14" x="297.4" y="3240">e</tspan><tspan x="356.9" y="3240">ting</tspan><tspan x="-2265.17" y="3360">Di</tspan><tspan class="cls-17" x="-2167.07" y="3360">r</tspan><tspan x="-2126.97" y="3360">e</tspan><tspan class="cls-6" x="-2066.77" y="3360">c</tspan><tspan class="cls-25" x="-2006.67" y="3360">t</tspan><tspan x="-1964.67" y="3360">eur de la ph</tspan><tspan class="cls-3" x="-1393.18" y="3360">o</tspan><tspan class="cls-24" x="-1334.18" y="3360">t</tspan><tspan class="cls-21" x="-1292.18" y="3360">o</tspan><tspan x="-1234.38" y="3360">graphie additionnelle (</tspan><tspan class="cls-14" x="-126.99" y="3360">2</tspan><tspan x="-69.99" y="3360">ème équipe)</tspan><tspan x="-651.69" y="3480">Scri</tspan><tspan class="cls-4" x="-462.3" y="3480">p</tspan><tspan class="cls-24" x="-398.8" y="3480">t</tspan><tspan x="-356.79" y="3480">e </tspan><tspan class="cls-11" x="-273.1" y="3480">(</tspan><tspan x="-238.29" y="3480">Chef opér</tspan><tspan class="cls-6" x="245.7" y="3480">a</tspan><tspan class="cls-22" x="303.7" y="3480">t</tspan><tspan x="345.7" y="3480">eur)</tspan><tspan class="cls-5" x="-315.59" y="3600">R</tspan><tspan class="cls-24" x="-255.5" y="3600">é</tspan><tspan x="-196.59" y="3600">gisseur </tspan><tspan class="cls-3" x="183" y="3600">g</tspan><tspan x="240.6" y="3600">énéral</tspan><tspan x="-466.8" y="3720">Assi</tspan><tspan class="cls-20" x="-262.1" y="3720">s</tspan><tspan x="-210.4" y="3720">tant </tspan><tspan class="cls-17" x="20" y="3720">r</tspan><tspan x="60.1" y="3720">éalis</tspan><tspan class="cls-6" x="286.2" y="3720">a</tspan><tspan class="cls-22" x="344.2" y="3720">t</tspan><tspan x="386.2" y="3720">eur</tspan><tspan x="-634.29" y="3840">Assi</tspan><tspan class="cls-20" x="-429.59" y="3840">s</tspan><tspan x="-377.89" y="3840">tant de p</tspan><tspan class="cls-17" x="67.2" y="3840">r</tspan><tspan x="107.3" y="3840">odu</tspan><tspan class="cls-6" x="295.4" y="3840">c</tspan><tspan x="355.5" y="3840">tion</tspan><tspan x="-368.49" y="3960">Équipe de sécuri</tspan><tspan class="cls-24" x="446.7" y="3960">t</tspan><tspan x="488.7" y="3960">é</tspan></text><text class="cls-19" transform="translate(3070.22 85)"><tspan x="0" y="0">Nomiclu S</tspan><tspan class="cls-24" x="488.29" y="0">t</tspan><tspan x="530.29" y="0">odio</tspan><tspan x="0" y="120">Molecno Studoi</tspan><tspan x="0" y="240">Lumicle S</tspan><tspan class="cls-4" x="470.39" y="240">o</tspan><tspan class="cls-24" x="529.39" y="240">t</tspan><tspan x="571.39" y="240">dio</tspan><tspan x="0" y="360">Monocel Stud</tspan><tspan class="cls-2" x="674.19" y="360">y</tspan><tspan x="730.29" y="360">o</tspan><tspan x="0" y="480">Unocleo Stidmo</tspan><tspan x="0" y="720">Molenco Suid</tspan><tspan class="cls-4" x="658.29" y="720">o</tspan><tspan x="717.29" y="720">t</tspan><tspan x="0" y="840">Nomocle </tspan><tspan class="cls-18" x="460.09" y="840">T</tspan><tspan x="510.79" y="840">odios</tspan><tspan x="0" y="960">Cimonle Sudi</tspan><tspan class="cls-24" x="643.29" y="960">t</tspan><tspan x="685.29" y="960">o</tspan><tspan x="0" y="1080">Oluncem S</tspan><tspan class="cls-24" x="527.29" y="1080">t</tspan><tspan x="569.29" y="1080">oido</tspan><tspan x="0" y="1200">Nomolec Situdo</tspan><tspan x="0" y="1440">Eumocle Sd</tspan><tspan class="cls-4" x="571.99" y="1440">o</tspan><tspan x="630.99" y="1440">tio</tspan><tspan x="0" y="1560">Minocel Studoi</tspan><tspan x="0" y="1680">Monlceu Stidoo</tspan><tspan x="0" y="1800">Uonmcel Soi</tspan><tspan class="cls-24" x="605.19" y="1800">t</tspan><tspan x="647.19" y="1800">od</tspan><tspan x="0" y="1920">Menocle Soutid</tspan><tspan class="cls-1" x="0" y="2040">L</tspan><tspan x="53.5" y="2040">omcien Sud</tspan><tspan class="cls-4" x="629.59" y="2040">o</tspan><tspan class="cls-22" x="688.59" y="2040">t</tspan><tspan x="730.59" y="2040">o</tspan><tspan x="0" y="2280">Monocli S</tspan><tspan class="cls-24" x="470.99" y="2280">t</tspan><tspan x="512.99" y="2280">oudo</tspan><tspan x="0" y="2400">Oumlcen Sod</tspan><tspan class="cls-4" x="653.79" y="2400">o</tspan><tspan x="712.79" y="2400">ti</tspan><tspan x="0" y="2520">Namocle Situdo</tspan><tspan x="0" y="2640">Mconleu S</tspan><tspan class="cls-4" x="504.39" y="2640">o</tspan><tspan class="cls-24" x="563.39" y="2640">t</tspan><tspan x="605.39" y="2640">dio</tspan><tspan x="0" y="2760">Mincole Stuido</tspan><tspan x="0" y="2880">Uolmcen Si</tspan><tspan class="cls-24" x="544.19" y="2880">t</tspan><tspan x="586.19" y="2880">odo</tspan><tspan x="0" y="3120">Moncelo Sud</tspan><tspan class="cls-4" x="630.89" y="3120">o</tspan><tspan x="689.89" y="3120">ti</tspan><tspan x="0" y="3240">Onulcem S</tspan><tspan class="cls-24" x="527.29" y="3240">t</tspan><tspan x="569.29" y="3240">oido</tspan><tspan x="0" y="3360">Mocenlu Studoi</tspan><tspan x="0" y="3480">Noncleo Su</tspan><tspan class="cls-24" x="549.69" y="3480">t</tspan><tspan x="591.69" y="3480">dio</tspan><tspan x="0" y="3600">Ulmnoce Stidoo</tspan><tspan x="0" y="3720">Monclei Sd</tspan><tspan class="cls-4" x="535.69" y="3720">o</tspan><tspan x="594.69" y="3720">tuo</tspan><tspan x="0" y="3840">Ocnulem Stidoo</tspan><tspan x="0" y="3960">Moncleu Si</tspan><tspan class="cls-24" x="531.79" y="3960">t</tspan><tspan x="573.79" y="3960">ood</tspan><tspan x="0" y="4080">Oinmcle Sud</tspan><tspan class="cls-4" x="620.19" y="4080">o</tspan><tspan x="679.19" y="4080">ti</tspan></text><text/></svg>