<?xml version="1.0" encoding="UTF-8"?><svg id="Calque_2" xmlns="http://www.w3.org/2000/svg" viewBox="0 0 951.02 1532.51"><defs><style>.cls-1{fill:none;}.cls-1,.cls-2,.cls-3,.cls-4,.cls-5{stroke-width:0px;}.cls-2{fill:#202529;}.cls-3{fill:#c92d2d;}.cls-4{fill:#f7f8f9;}.cls-5{fill:#fff;}</style></defs><g id="Calque_1-2"><path class="cls-2" d="M184.24,355.71c-4.1-3.52-8.2-7.03-12.3-10.55h0c-.26.15-.5.31-.75.46-2.91,1.77-5.13,3.27-7.47,4.46-11.37,5.76-22,12.23-31.98,19.32-39.71,28.21-68.99,66.41-92.17,110.43-18.62,35.38-23.97,73.22-17.54,112.14,8.3,50.17,35.74,88.49,78.36,115.68,34.07,21.75,70.79,37.6,110.4,46.39,4.54,1.02,11.8.86,10.09,7.7-1.45,5.77-7.88,2.6-11.98,1.82-9.58-1.86-19.04-4.38-28.9-6.7-15.3,38.59-30.23,76.18-44.98,113.34-19.99,4.28-37.97,9.48-37.76,33.7-3.41.5-5.87.84-8.32,1.25-43.51,7.3-71.82,32.74-84.52,74.29-9.47,30.97-4.03,60.21,19.34,83.94,6.78,6.88,11.69,13.3,11.28,23.09-.06,1.21.23,2.47.49,3.68,7.85,38.96,45.13,59.2,78.77,42.29,1.72-.85,3.57-1.43,5.23-2.09,1.34,1.58,2.21,2.45,2.89,3.45,14.17,21,34.15,27.61,58.36,23.34,30.71-5.42,58.42-33.55,63.25-64.23,1-6.46.89-13.08,1.26-19.22,56.31-36.2,50.45-122.94-17.73-146.15,8.53-16.96,7.36-21.54-10.8-40.89,14.67-36.08,29.41-72.36,45.02-110.76,4.35,5.44,7.22,8.93,9.98,12.51,50.99,66.3,101.89,132.71,153,198.93,29.1,37.68,58.46,75.19,88.01,112.54,4.32,5.45,5.25,10.26,3.64,16.97-17.01,70.82-33.84,141.7-50.26,212.66-1.8,7.85-5.01,11.56-12.76,14.1-31.19,10.28-52.62,30.72-61.05,63.11-9.34,35.84.42,68.79,16.65,100.44,1.26,2.47,4.92,4.34,7.85,5.22,9.49,2.8,19.07,5.54,28.79,7.38,44.1,8.35,88.79,10.97,133.47,12.21,44.68,1.22,89.43.13,134.16-.65,19.85-.34,39.65-2.69,59.5-3.62,14.5-.68,22.27-8.68,26.08-21.78.8-2.78,1.58-5.57,2.15-8.41,11.3-55.95-21-113.98-74.67-133.58-25.55-9.32-51.24-9.08-76.14,2.35-8.55,3.94-16.23,9.74-23.93,14.47-13.52-7.45-26.56-15.54-40.38-22-14.06-6.55-28.89-11.49-43.6-17.23.44-2.26.77-4.29,1.26-6.29,17.75-72.78,35.23-145.6,53.43-218.25,4.82-19.29,1.67-35.24-10.95-50.87-32.74-40.62-64.65-81.92-96.71-123.09-34.88-44.75-69.55-89.66-104.28-134.52-1.97-2.54-3.67-5.3-6.44-9.35,14.1,1.93,26.53,3.64,39.54,5.42,0,6.31.44,12.07-.11,17.73-.69,7.05,1.34,12.62,5.71,18.2,19.17,24.44,37.96,49.17,56.96,73.75,1.83,2.37,4.14,4.41,7.92,8.37,1.48-40.3,2.87-78.1,4.24-115.29,8.87-2.71,13.32.69,18.22,6.29,30,34.27,59.59,68.98,91.11,101.81,22.28,23.21,33.84,28.33,65.57,9.19,26.54-16,51.88-34.03,77.46-51.61,6.4-4.4,11.72-6.75,20.19-4.88,18.3,4.08,27.01-3.58,28.41-22.41.08-1.13.63-2.23.94-3.25,7.57,1.11,14.91,2.89,22.28,3.12,7.81.22,15.66-1.07,23.5-1.6,4-.28,7.79-1.23,11.1,3.05,8.35,10.81,19.96,12.85,32.46,9.57,30.97-8.11,50.36-28.85,61.24-58.15,3.23-8.66,3.57-17.64.94-26.83-.88-3.11.64-6.95,1.2-10.42,1.2-7.68,4.22-15.51,3.43-22.96-2.24-21.47-16.58-35.25-38.4-37.94-5.56-14.9-17.29-23.25-33.23-26.08,1.82-31.38-12.19-54.46-33.41-74.15-3.34-3.1-6.72-6.18-10-9.32-36.77-35.12-80.9-42.64-129.08-33.91-25.22,4.56-47.83,15.96-69.46,29.1-21.58,13.1-42.56,27.16-63.84,40.75-3.73,2.37-7.6,4.54-12.21,7.27-1.59-5.07-2.68-8.94-4.02-12.75-5.14-14.56-11.41-28.55-22.91-39.33-14.64-13.71-31.46-11.05-41.22,6.46-2.4,4.31-4.21,9.03-5.57,13.76-4.12,14.5-5.15,29.32-3.6,44.32.65,6.5,1.32,12.99,1.96,19.33-28.49,7.98-214.1,2.29-236.6-7.1,3.58-18.28,6.51-36.79,2.35-55.32-1.87-8.33-4.67-16.9-9.16-24.06-7.25-11.62-19.83-14.18-31.35-6.74-6.44,4.17-12.14,10-16.92,16.07-9.31,11.85-14.64,25.84-18.99,40.19-1,3.31-2.29,6.52-3.74,10.58-15.45-9.18-30.09-17.14-38.51-32.39-14.19-25.67-18.58-64.04,15.16-92.17,33.31-27.77,71.68-44.09,115.35-46.51,26.61-1.48,52.89,1.9,79.07,6.29,13.25,2.23,26.46,4.83,40.42,7.37-1.13,4.66-1.8,7.83-2.65,10.97-4.42,16.17-5.46,32.65-4.25,49.27.92,12.5,3.42,24.71,10.48,35.36,9.08,13.71,23.56,16.38,36.29,5.98,5.97-4.87,11.65-11.01,15.12-17.8,5.99-11.7,10.97-24.08,14.79-36.66,3.34-10.95,4.49-22.56,6.47-33.24,41.06,1.26,81.83,2.5,122.33,3.75,2.21,7.08,3.56,14.14,6.58,20.41,4.1,8.49,8.41,17.29,14.52,24.32,11.87,13.67,28.82,12.87,38.97-2.06,5.68-8.34,9.44-18.34,12.39-28.11,2.69-8.97,3.16-18.61,4.74-28.79,5.79-2.17,11.83-4.43,18.08-6.77,2.92,4.5,5.01,8.61,7.93,12,4.29,4.98,8.62,10.27,13.93,13.95,11.05,7.64,22.89,4.84,29.89-6.62,2.53-4.16,4.8-8.95,5.47-13.69,1.69-12.23,2.39-24.61,3.62-38.24,5.24-4.15,11.84-9.13,18.14-14.44,23.26-19.58,39.59-43.67,44.27-74.04,2.65-17.1,3.42-34.63,3.55-52.01.34-44.32-24.28-74.34-67.95-83.39-10.5-2.15-21.34-2.71-32-4.09-38.22-5-76.13-4.16-113.89-.47-24.62,2.41-49.18,6.03-73.73,10.03-.48,1.74-.9,2.89-1.11,4.05-11.84,70.81-51.13,121.71-113.46,155.52-29.48,16-61.25,22.29-94.75,18.95-4.09-.41-8.49-.25-12.63-2.64-1.06-.61-2.09-1.38-3.1-2.37-.19-.18-.37-.36-.56-.55-2.08-.1-5.05-.29-8.59-.71,0,0-13.45-1.6-28.62-7.02-12.79-4.57-38.16-16.88-69.01-37.1ZM726.3,470.36c-.04.63-.09,1.25-.16,1.87-.06.62-.13,1.24-.21,1.86-.11.92-.25,1.84-.41,2.74-.15.91-.33,1.82-.53,2.71-.21.91-.43,1.82-.69,2.72-.25.91-.53,1.8-.84,2.69-.18.54-.37,1.07-.58,1.6-.2.53-.42,1.06-.64,1.59-.53,1.24-1.08,2.36-1.67,3.38-.2.34-.4.67-.59.99-.39.63-.8,1.2-1.23,1.73-.42.53-.85,1.01-1.3,1.44-.43.43-.89.81-1.36,1.15-.47.33-.95.61-1.43.84-.49.23-.99.41-1.5.54-.5.12-1.02.2-1.55.23-.04,0-.08.01-.11.01h-.01c-1.12.04-2.28-.14-3.48-.54-.22-.08-.43-.16-.65-.25-.44-.17-.89-.38-1.34-.62-.68-.36-1.37-.78-2.07-1.27-.24-.17-.47-.34-.7-.51-.95-.71-1.91-1.55-2.9-2.5-.28-.27-.55-.55-.83-.82-.27-.28-.54-.57-.8-.85-3.07-3.26-5.75-6.97-8.55-10.79-1.26-1.72-2.54-3.46-3.9-5.2,11.08-5.91,21.26-11.35,32.11-17.13,1.25-.67,2.51-1.34,3.78-2.02,1.26-.68,2.54-1.37,3.84-2.06h0s0,.01.01.01c.05.58.09,1.16.13,1.73h0c.09,1.16.15,2.28.21,3.41.03.56.05,1.11.07,1.67h0s0,.09.01.14c.11,3.26.09,6.43-.13,9.51ZM656.17,439.68c.41-.34.8-.64,1.23-.86,4.62-2.33,9.31-4.55,13.97-6.81,4.5-2.19,8.99-4.41,13.38-6.82,1.2-.66,2.41-1.33,3.6-2.03,11.33-6.57,21.38-14.81,29.29-25.3.45-.59.88-1.19,1.31-1.79.23-.33.47-.66.7-1,.44-.63.87-1.27,1.29-1.92.33-.51.67-1.02,1.02-1.52.26-.38.54-.74.82-1.09.28-.34.57-.67.87-.97.6-.61,1.24-1.11,1.94-1.44.81-.38,1.69-.53,2.68-.33.1.02.21.05.31.08.19.06.39.12.59.2.08.03.17.06.25.1h0s.01.01.01.01c.14.06.29.13.43.21h0s.01,0,.01,0c.15.07.29.16.44.25h.01c.15.1.31.2.46.31.17.12.33.24.48.37.16.12.3.25.43.37.26.25.49.5.68.76.19.26.35.52.48.78.13.27.23.53.29.8.1.36.14.72.14,1.08,0,.24-.02.48-.06.72-.03.24-.08.48-.14.73t-.01.02c-.03.12-.07.24-.11.36-.21.65-.51,1.29-.85,1.93-.09.16-.18.31-.27.47-.3.51-.62,1.01-.94,1.5-.23.34-.45.66-.67.99h0c-.33.5-.66.98-1,1.46h0c-.33.5-.68.98-1.02,1.46-.35.48-.7.96-1.05,1.43h0c-.36.48-.72.95-1.08,1.42-1.6,2.06-3.28,4.05-5.07,5.91h0c-.51.54-1.02,1.06-1.54,1.58-.51.52-1.03,1.04-1.56,1.55-1.04,1.02-2.1,2.02-3.17,3-9.3,8.47-19.6,15.38-30.69,21.28-5.44,2.89-11.06,5.55-16.86,8.02-1.16.49-2.33.98-3.5,1.46-2.34.96-4.71,1.89-7.11,2.8-.02-.1-.04-.19-.07-.29-.13-.55-.27-1.09-.39-1.61-.26-1.05-.5-2.03-.72-2.98-.12-.48-.23-.94-.34-1.4-.3-1.22-.59-2.4-.87-3.57.8-.64,1.4-1.21,1.98-1.69ZM590.32,454.95c2.05-.44,4.11-.87,6.18-1.3,11.4-2.4,23.12-4.86,35.52-7.47.9-.19,1.81-.38,2.72-.57,2.72-.58,5.48-1.16,8.28-1.74.12,1,.23,1.96.35,2.93.14,1.16.28,2.31.42,3.43.29,2.25.57,4.43.84,6.56.4,3.2.77,6.28,1.07,9.32.2,2.02.36,4.03.48,6.04.17,2.92.26,5.83.26,8.73,0,.67,0,1.35-.01,2.02,0,0-.01.02,0,.03-.01.67-.03,1.34-.05,2.02v.03c-.02.67-.04,1.34-.07,2.01-.01.01-.01.02,0,.03-.03.67-.07,1.34-.11,2.01v.03c-.04.67-.08,1.34-.14,2.01v.02c-.05.67-.1,1.34-.17,2.01v.03c-.06.67-.12,1.33-.2,2v.02c-.07.67-.15,1.34-.23,2.01h0c-.08.68-.17,1.35-.27,2.02h0c-.09.68-.19,1.34-.3,2.01v.02c-.32,2-.69,4-1.11,5.99h0c-.14.68-.29,1.35-.44,2.01-.31,1.32-.64,2.64-.99,3.96-.91,3.39-1.98,6.75-3.23,10.09-.39,1.03-.79,2.08-1.2,3.13-.42,1.05-.86,2.1-1.32,3.13-.39.86-.8,1.71-1.24,2.53-.14.27-.3.54-.45.81-.21.36-.41.71-.63,1.05h0c-.43.7-.89,1.36-1.38,1.99-.24.31-.49.62-.75.91h0c-.27.31-.54.59-.81.86-.68.7-1.43,1.32-2.25,1.86-.48.33-.99.62-1.52.88-1.42.69-3.03,1.15-4.84,1.31-.46.04-.91.06-1.35.06-1.5,0-2.88-.23-4.14-.63-.25-.08-.49-.17-.74-.26-.49-.2-.96-.42-1.42-.66-.23-.12-.45-.25-.66-.38h-.01c-.22-.14-.43-.28-.65-.42-.21-.15-.43-.3-.63-.46-.21-.16-.41-.32-.6-.48h0c-.2-.18-.39-.34-.58-.52h-.01c-.19-.18-.38-.36-.56-.54-.19-.18-.38-.37-.56-.57-.37-.39-.72-.79-1.06-1.21-.68-.84-1.33-1.73-1.94-2.65-.46-.69-.91-1.4-1.34-2.12-.14-.24-.28-.48-.42-.72-.99-1.69-1.92-3.42-2.83-5.07-2.26-4.08-4.3-8.89-6.05-14.18-2.92-8.8-5.08-18.91-6.24-29.14-.08-.68-.15-1.36-.22-2.05-.14-1.36-.26-2.73-.36-4.09-.25-3.41-.39-6.81-.41-10.15-.02-3.59.1-7.13.38-10.53ZM545.83,460.78c0-.09.02-.19.05-.29,0-.06.02-.11.03-.17.07-.28.17-.56.31-.82.08-.17.18-.32.29-.47.11-.16.23-.3.36-.44h.01c.15-.16.29-.31.44-.44,1.03-1.03,2.07-1.85,3.16-1.91,4.07-.25,8.14-.32,12.37-.32h.02c.27,0,.53-.01.8-.01.51.01,1.03.01,1.55.01h.44c.53,0,1.07.01,1.61.01s1.07,0,1.62.01c.44.01.88.01,1.32.01.55.01,1.11.01,1.67.01,1,0,2.01.02,3.04.03,1.43.01,2.9.02,4.4.02-.15,1.5-.28,2.83-.4,4.09,0,.03-.01.07-.01.1-.07.61-.13,1.22-.19,1.83-.16,1.69-.33,3.43-.54,5.53-1.19-.08-2.38-.14-3.56-.22-.04-.01-.08-.01-.12-.01h-.23c-2.16-.12-4.31-.23-6.44-.35-2.02-.11-4.02-.22-6.01-.35-.77-.05-1.53-.1-2.3-.15-1.53-.1-3.06-.22-4.59-.35-.76-.06-1.52-.13-2.28-.2-1.02-.1-2.03-.2-3.04-.31-.88-.09-1.7-.73-2.5-1.56-.06-.06-.12-.12-.17-.18-.07-.06-.12-.12-.18-.18-.16-.18-.3-.37-.42-.56-.12-.2-.22-.4-.3-.61-.08-.21-.14-.43-.18-.65-.04-.22-.06-.44-.06-.66,0-.15.01-.29.03-.44ZM387.8,515.09c.14-1.69.3-3.39.49-5.08.1-.85.2-1.7.31-2.54.22-1.7.46-3.4.73-5.11.13-.85.27-1.71.42-2.56.37-2.14.77-4.29,1.21-6.44.44-2.15.91-4.31,1.42-6.47h.01c1.41-.19,2.82-.32,4.22-.41,5.43-.34,10.76.02,16.08.73,11.16,1.49,22.22,4.47,33.83,5.55-.01.21-.03.42-.04.63-.23,4.15-.56,8.2-1.02,12.17-.14,1.19-.28,2.37-.44,3.55-.32,2.35-.68,4.67-1.1,6.96-.2,1.15-.42,2.29-.65,3.42-.46,2.27-.97,4.51-1.53,6.72-.37,1.47-.77,2.94-1.19,4.39-2.46,8.53-5.73,16.69-9.98,24.57-.3.56-.62,1.12-.93,1.68-.64,1.11-1.31,2.22-2.01,3.31-.35.54-.71,1.09-1.07,1.62-.73,1.08-1.49,2.14-2.27,3.17-.79,1.04-1.59,2.05-2.43,3.04-.36.42-.72.85-1.09,1.26-.73.84-1.49,1.65-2.26,2.43-.38.39-.77.77-1.16,1.15-1.11,1.06-2.2,1.96-3.28,2.7-.16.11-.31.21-.47.31-.31.21-.62.4-.93.57-.16.08-.31.17-.47.25-.61.33-1.22.6-1.82.81-.45.16-.9.29-1.35.39-1.05.25-2.08.31-3.09.21-.6-.06-1.19-.18-1.77-.36-.29-.08-.57-.19-.86-.31h-.01c-.1-.04-.2-.09-.3-.14-.08-.04-.17-.08-.25-.12h-.01c-.19-.1-.37-.19-.56-.3-.93-.53-1.83-1.23-2.7-2.1-.22-.22-.44-.45-.66-.7-.06-.07-.13-.14-.2-.22h-.01c-.14-.17-.27-.34-.41-.5h-.01c-.14-.18-.27-.36-.41-.54-.22-.29-.44-.6-.64-.91-.11-.16-.22-.32-.32-.48-.22-.33-.43-.66-.63-1.01-.26-.44-.51-.89-.76-1.37-1.38-2.66-2.58-5.47-3.6-8.35-.83-2.34-1.53-4.72-2.08-7.12-.25-1.09-.48-2.17-.67-3.25-.07-.37-.12-.73-.18-1.09-.02-.12-.04-.24-.05-.36-.24-1.55-.45-3.1-.63-4.64-.59-5.01-.89-10.01-.94-15.02,0-.49,0-.98,0-1.47,0-4.2.18-8.4.53-12.62ZM218.37,906.19c4.55,5.13,3.67,9.66-1.82,13.87-2.42,1.85-5.26,3.15-8.14,4.37-.95.4-1.89.79-2.83,1.18-2.65,1.11-5.87,1.11-8.23,2.6-2.09,1.3-3.35,3.98-4.98,6.04,2.13,1.52,4.15,3.21,6.44,4.42.01.01.02.01.04.02.56.27,1.32.16,2.11.02.5-.1,1.02-.21,1.49-.25,8.83-.59,17.29.46,25.07,2.91,23.08,7.26,40.22,26.89,43.54,52.95,2.7,21.15-2.28,39.32-14.78,54.03-3.54,4.16-7.69,8.06-12.43,11.66-1.69-1.97-3.36-3.9-5.02-5.83-5.76-6.68-11.43-13.26-17.52-20.33-.71-.81-1.41-1.62-2.12-2.45.86-.62,1.79-1.29,2.78-2.01,2.86-2.08,6.2-4.51,9.6-6.83,2.13-1.45,4.48-2.87,5.12-4.99.31-1.05.22-2.26-.52-3.73-1.1-2.19-2.5-3.16-4.04-3.39-1.92-.29-4.05.58-6.12,1.71-.15.08-.31.17-.46.26-.64.36-1.26.75-1.88,1.12-14.57,8.73-25.26,20.51-32.48,34.98-.03.08-.08.15-.12.23-.14.3-.28.61-.42.91-2.32,4.81-4.27,9.89-5.86,15.25-.31,1.03-.63,2.25-.66,3.35-.01.54.06,1.06.24,1.5.86,2.01,2.01,4.14,3.56,5.57.3.27.6.52.93.74.74.5,4.4-1.88,5.41-3.68.1-.16.17-.34.26-.51,1.57-3.09,2.07-6.77,3.58-9.92,3.18-6.58,6.76-12.97,10.13-19.37,17.9,8.87,26.5,23.56,25.14,41.48-.16,2.09-.44,4.17-.81,6.24-3.34,18.43-15,35.51-30.75,45.88-5.28,3.48-11.02,6.21-17.06,7.98-13.15,3.86-25.7,3.99-36.76-2.04-3.62-1.98-7.09-4.62-10.36-8-12.3-12.73-13.39-28.14-9.43-44.17.18-.74.37-1.49.58-2.23.12-.45.26-.9.4-1.34.51-1.59,1.14-3.14,1.82-4.68.45-1.02.93-2.03,1.41-3.04.55-1.16,1.11-2.32,1.65-3.47,1.32-2.82,2.95-5.88,1.81-8.37-.42-.92-1.2-1.76-2.53-2.49-1.44-.79-2.66-1.05-3.72-.95-2.29.22-3.81,2.17-5.07,4.34-.49.85-.94,1.73-1.37,2.55-5.35,10.17-8.6,20.89-8.74,32.38-.02,1.12-.01,2.24.03,3.37.18,4.1.04,8.19.04,12.24-2.58,1.96-5.28,3.57-8.06,4.85-25.12,11.57-56.96-4.37-60.43-42.7-1.68-18.58,4.22-35.09,16.56-49.18,1.96-2.24,4.97-4.54,5.63-7.15.02-.05.02-.1.03-.15.02-.08.04-.16.06-.25v-.04c.22-1.44-.32-2.98-2.14-4.65-.64-.59-1.27-1.02-1.88-1.32-4.3-2.1-7.95,2.31-10.23,5.72-2.32,3.47-4.56,6.99-6.79,10.56-4.51,7.26-8.92,14.72-13.63,22.4-3.19-2.56-5.99-5.45-8.42-8.61-2.43-3.16-4.5-6.59-6.21-10.25-2.75-5.83-4.61-12.24-5.66-19-6.08-39.13,17-77.94,51.69-94.58,8.9-4.27,18.57-7.09,28.7-8.07,5.52-.53,10.39-.7,14.79,3.92,2.73,2.85,6.95,4.36,10.65,6.16,2.44,1.2,5.12,2.4,7.36,1.67.8-.26,1.55-.76,2.2-1.61.36-.45.68-1.01.98-1.68,1.57-3.53-.27-5.66-2.85-7.47-.61-.42-1.25-.83-1.91-1.23-3.05-1.86-6.21-3.82-8.85-6.21-.67-.61-1.31-1.23-1.9-1.9-6.15-6.98-6.22-13.04-.03-17.51,1.11-.81,2.41-1.56,3.93-2.26,2.35-1.08,4.81-2.04,7.31-2.87,4.58-1.52,9.34-2.59,14.03-3.05,3.13-.31,6.24-.48,9.34-.55,18.95-.41,37.25,3.64,54.37,12.56,2.86,1.49,5.59,3.37,8.14,5.49,2.55,2.12,4.93,4.46,7.07,6.88ZM241.44,630.48c-.05,1.49-.12,2.97-.21,4.45-.09,1.65-.25,3.3-.43,4.97-.32,2.9-.76,5.88-1.25,9.08-.16,1.07-.33,2.16-.5,3.28-.26,1.65-.52,3.37-.77,5.17-.08.59-.17,1.2-.25,1.82h0c-11.06-2.74-21.46-5.32-31.87-7.9-4.72-1.17-9.44-2.34-14.23-3.52-1.44-.36-2.88-.71-4.33-1.07s-2.91-.72-4.38-1.08h0c1.39-5.91,2.86-11.67,4.56-17.22,3.18-10.46,7.18-20.22,12.99-28.97,3.3-4.97,7.18-9.61,11.83-13.87h.01c.25-.23.49-.45.74-.66h.01c.08-.08.17-.16.25-.22.4-.36.8-.68,1.21-.98h.01s.08-.07.12-.09c.08-.07.16-.13.24-.18.06-.05.11-.09.17-.13.04-.03.07-.06.11-.08.03-.02.06-.04.09-.06.05-.04.11-.08.16-.11.18-.14.37-.26.56-.39.47-.31.94-.59,1.41-.84,0-.01.01-.01.01-.01.03-.02.07-.04.1-.05.2-.11.4-.22.6-.31.23-.11.46-.22.69-.32.46-.2.92-.37,1.37-.51,3.32-1.04,6.36-.54,9.07,1.44.32.24.64.5.95.78.47.42.93.89,1.38,1.41,1.49,1.72,2.85,3.97,4.06,6.74,1.64,3.78,2.93,7.8,3.83,11.89.06.25.12.5.16.75.28,1.29.52,2.59.71,3.88l.18,1.29c.03.22.06.43.08.65.03.21.06.43.08.64.73,6.72.76,13.54.49,20.33ZM457.88,1355.77c.01-.07.01-.13.03-.2.02.01.05.02.08.03.04.02.09.03.13.05,0-.27.01-.52.01-.8.06.09.12.16.17.25.18.26.36.52.53.79h-.01c-.24-.08-.46-.16-.7-.24v.16c-.08,0-.15,0-.24-.02v-.02ZM522.96,1402.74c3.75-2.5,6.1-6.23,7.16-11.65.4-2.01.83-4.02,1.28-6.02,2.15-9.66,4.8-19.2,7.14-28.68,16.67-.66,59.17,18.18,78.15,34.37-1.38,2.53-2.79,5.04-4.21,7.56-3.2,5.7-6.4,11.41-9.07,17.35-.03.09-.07.18-.1.27-1.73,3.93-2.58,8.36-3,12.73-.08.85-.15,1.7-.2,2.55-.06,1.01.61,2.07,1.49,3.14l.03.03s.02.03.03.04c.89,1.06,1.97,2.14,2.71,3.19.4-.34.83-.66,1.27-.98,1.43-1.05,2.92-2.05,3.84-3.44.42-.64.74-1.34,1.02-2.07.59-1.57.95-3.29,1.52-4.88,16.57-45.53,59.46-66.96,105.71-52.82,12.52,3.83,23.97,10.21,33.92,18.39,18.69,15.38,32.1,37.14,37.42,60.49,3.27,14.31,3.5,29.21.04,43.59-.63,2.64-1.24,4.95-1.88,6.97-2.78,8.76-6.13,11.96-14.85,13.28-2.1.32-4.51.53-7.3.68-59.11,3.2-118.29,6.91-177.51,3.7-39.26-2.12-78.49-5.07-117.65-8.63-14.74-1.34-29.26-5.23-43.8-8.48-.7-.16-1.44-.39-2.18-.68-2.71-1.04-5.48-2.86-6.54-4.99-1.49-3.01-2.91-6.04-4.25-9.08-2.03-4.59-3.87-9.22-5.48-13.88-7.14-20.65-9.81-42.06-4.16-64.6,6.74-26.93,24.16-44.61,49.9-54.31,1.08-.4,2.36-.23,3.62-.13.28.02.56.04.84.04-.67,5.5-1.08,11.1-2.12,16.53-.36,1.89-.58,3.66-.68,5.36-.36,6.08.97,11.06,4.39,15.26,1.99,2.44,4.68,4.62,8.14,6.61,13.46,7.72,27.7,10.24,42.56,7.5.04-.01.09-.02.13-.02.06,0,.12-.03.18-.04,2.07-.39,4.16-.88,6.25-1.48,1.52-.43,2.9-.96,4.17-1.58.73-.36,1.42-.76,2.07-1.19ZM550.52,640.47c-1.16.9-2.32,1.77-3.49,2.6-1.95,1.39-3.92,2.69-5.9,3.92-4.79,2.97-9.68,5.46-14.69,7.61-2.97,1.27-5.98,2.42-9.04,3.47-6.13,2.11-12.47,3.84-19.08,5.37-.27-1.39-.52-2.78-.76-4.16-1.86-10.63-2.94-21.13-2.47-31.48.05-1.08.11-2.16.2-3.24.04-.54.09-1.08.14-1.63.1-1.07.22-2.15.36-3.22h0c.11-.82.22-1.62.35-2.42.38-2.41.86-4.82,1.45-7.21.13-.53.27-1.07.41-1.6.14-.53.28-1.06.44-1.59.4-1.4.85-2.79,1.34-4.18.16-.47.32-.93.5-1.39.34-.93.7-1.85,1.08-2.77h0c.38-.93.78-1.85,1.2-2.77.21-.45.42-.89.63-1.32.22-.42.43-.84.65-1.23.45-.8.9-1.53,1.37-2.21.35-.51.71-.98,1.08-1.43h0c.24-.3.48-.58.74-.85h0c.5-.55,1.01-1.03,1.54-1.45.16-.13.33-.26.49-.38.34-.24.67-.47,1.01-.66.34-.2.69-.38,1.04-.53.35-.16.7-.29,1.06-.4.18-.06.36-.11.54-.15h.01c.49-.12.99-.2,1.49-.23.38-.04.76-.04,1.14-.02.43.01.86.06,1.29.13.07.01.14.02.21.03,1.06.2,2.14.56,3.24,1.09.22.1.44.21.66.33h.01c.22.12.44.24.66.38,1.79,1.05,3.64,2.51,5.52,4.39.24.23.47.47.71.72,6.6,6.89,11.26,14.74,14.83,23.12,2.15,5.04,3.91,10.28,5.45,15.63.85,2.94,1.64,5.91,2.38,8.9.07.27.14.55.21.82h0ZM699.83,812.82c-17.61,10.74-37.89,23.08-58.84,35.85-14.07-16.93-27.89-33.57-42.92-51.66,37.6-4.2,73.04-8.17,107.57-12-1.68,8.01-3.44,16.45-5.81,27.81ZM794.91,763.26c10.95-5.78,21.86-11.54,32.74-17.28,5.88-3.11,11.77-6.22,17.63-9.31,1.19,9.89-3.64,18.1-12,23.21-6.65,4.07-15.55,6.18-25.42,5.6h-.13c-.32-.02-.65-.06-.97-.08-3.84-.3-7.81-.99-11.85-2.13h0ZM779.29,855.37c-1.43,1.28-3.45,1.96-6.13,1.96-.9.01-1.82-.04-2.74-.12-3.58-.3-7.22-1.18-10.45-2.54-18.92-8.01-33.33-21.22-42.82-39.49-3.17-6.11-6.52-13.59-1.62-19.25.13-.16.25-.32.4-.48.68-.7,1.39-1.27,2.11-1.73,5.71-3.61,12.73-.22,18.76,2.41.7.31,1.37.72,2.01,1.19,1.93,1.4,3.62,3.37,5.36,5.05,8.92,8.7,17.52,17.77,26.72,26.14,1.13,1.02,2.26,2.04,3.4,3.04.15.13.29.26.44.4,3.21,2.94,4.94,6.19,5.99,9.71.56,1.89.94,3.86,1.25,5.9,0,3.52-.85,6.17-2.68,7.81ZM942.26,789.69c-9.93,26.17-28.11,44.87-53.54,56.2-5.9,2.65-12.79,4.03-19.28,4.19-12.73.32-19.76-6.79-20.92-19.54-1.03-11.27,2.74-21.27,7.98-32.02-1-.28-2-.6-2.99-.94-2.73,9.16-5.4,18.15-8.13,27.35-.59,1.97-1.17,3.93-1.76,5.92-7.67,2.29-15.13,3.36-22.32,3.36s-13.58-.99-19.92-2.82c-25.48-7.37-45.81-28.4-56.99-53.99h0c9.5-2.73,18.84-5.6,28.3-8.01,1.07-.27,2.32-.29,3.54-.12.46.06.91.16,1.35.27.78.21,1.52.48,2.16.82,12.8,6.75,25.97,8.37,39.07,6.67,4.03-.52,8.05-1.35,12.05-2.45.12.05.23.1.34.15.74.28,1.47.59,2.18.9.24.1.47.21.71.32.65.3,1.3.61,1.92.93.12.06.24.11.35.17-.13-.32-.26-.64-.39-.96,2.83-2.63,5.4-5.33,7.67-8.11-.07-.18-.14-.36-.22-.54.9-.83,1.76-1.67,2.59-2.52h.01c8.57-11.82,11.75-24.84,6.99-38.63,9.87-17.7,18.54-33.24,27.47-49.23,15.13,1.48,27.77,12.97,30.52,27.72.08-.83.17-1.65.24-2.47,8.11-1.5,13.34,3.52,17.96,8.75,6.99,7.91,11.35,17.12,10.75,28.03-.03.63-.08,1.25-.13,1.88h0c.05.99.04,1.98-.01,3-.79,14.85-9.05,28.19-20.71,37.27-10.73,9.97-24.54,16.81-38.83,18.79,24.47,1.61,46.08-7.9,64.05-30.02.71.78,1.41,1.58,2.09,2.36-1.34,5.79-2.04,11.82-4.15,17.32Z"/><path class="cls-1" d="M216.68,582.48c-.27.17-.54.34-.81.53.27-.18.54-.36.81-.53Z"/><path class="cls-1" d="M215.35,583.36s.07-.06.11-.08c-.03.02-.05.03-.07.06-.02,0-.03,0-.04.02Z"/><path class="cls-1" d="M216.98,582.28c.07-.04.14-.08.21-.12-.16.1-.34.21-.51.31.1-.07.2-.13.3-.19Z"/><path class="cls-1" d="M217.79,581.82s-.07.04-.11.06c0-.01.01-.01.01-.01.03-.02.07-.04.1-.05Z"/><path class="cls-1" d="M240.8,639.9c-.43,3.87-1.07,7.88-1.75,12.36.69-4.48,1.32-8.49,1.75-12.36Z"/><path class="cls-1" d="M183.21,645.68c7.83,1.94,15.39,3.81,22.94,5.68-7.55-1.87-15.1-3.74-22.94-5.68,0,0,0,0,0,0Z"/><path class="cls-1" d="M187.76,628.46c3.19-10.45,7.18-20.21,12.99-28.97-5.81,8.75-9.81,18.51-12.99,28.97Z"/><path class="cls-1" d="M240.94,610.15c-.09-.86-.21-1.72-.34-2.58.13.86.24,1.72.34,2.57.73,6.72.77,13.55.5,20.33.27-6.79.23-13.61-.5-20.33Z"/><path class="cls-1" d="M601.62,1434.39s.02.03.04.04c-.01-.01-.02-.03-.04-.04Z"/><path class="cls-1" d="M457.91,1355.57h0s.05.02.08.03c-.03-.01-.06-.02-.08-.03Z"/><path class="cls-1" d="M413.14,1488.67c-2.02-4.59-3.86-9.21-5.48-13.88,1.61,4.66,3.45,9.29,5.48,13.88Z"/><path class="cls-1" d="M201.82,1136.19c15.75-10.37,27.41-27.45,30.75-45.88-3.33,18.44-14.99,35.51-30.75,45.88Z"/><path class="cls-1" d="M184.13,1068.26c.02-1.09.35-2.32.66-3.35,1.59-5.37,3.54-10.45,5.86-15.25-2.31,4.8-4.27,9.88-5.86,15.25-.31,1.03-.64,2.25-.66,3.35Z"/><path class="cls-1" d="M194.27,1072.39c.09-.17.17-.34.25-.51-.09.17-.16.34-.26.51-1.02,1.8-4.68,4.18-5.42,3.68-.32-.21-.63-.47-.92-.74.29.27.6.52.92.74.74.5,4.4-1.87,5.42-3.68Z"/><path class="cls-1" d="M223.67,1013.54c.63-.38,1.24-.76,1.88-1.13.15-.09.31-.17.47-.26-.16.09-.31.17-.47.26-.64.36-1.25.75-1.88,1.12Z"/><path class="cls-1" d="M458.13,1354.84h0c.05.09.11.17.17.26-.06-.08-.11-.17-.17-.26Z"/><path class="cls-1" d="M271.05,994.32c2.7,21.15-2.27,39.32-14.77,54.02,12.5-14.7,17.48-32.88,14.77-54.02-3.32-26.06-20.46-45.7-43.54-52.96,23.07,7.26,40.22,26.9,43.53,52.96Z"/><path class="cls-1" d="M236.17,1013.84c-1.1-2.19-2.5-3.16-4.04-3.39,1.54.23,2.94,1.2,4.04,3.39.75,1.47.84,2.68.52,3.73.32-1.05.23-2.26-.52-3.73Z"/><path class="cls-1" d="M200.95,938.71c-.79.15-1.55.25-2.11-.02.56.27,1.33.17,2.11.02Z"/><path class="cls-1" d="M211.29,899.31c2.55,2.12,4.92,4.47,7.07,6.88,4.55,5.13,3.68,9.66-1.82,13.87-2.42,1.84-5.26,3.15-8.14,4.36,2.88-1.21,5.72-2.52,8.14-4.36,5.5-4.21,6.37-8.74,1.82-13.87-2.14-2.42-4.52-4.76-7.07-6.88Z"/><path class="cls-1" d="M603.3,1415.94c.04-.09.07-.18.11-.26,2.66-5.94,5.86-11.65,9.07-17.35-3.21,5.7-6.41,11.41-9.07,17.35-.04.09-.07.18-.11.27Z"/><path class="cls-1" d="M128.2,1089.96c-3.96,16.03-2.86,31.43,9.43,44.16,3.27,3.39,6.74,6.02,10.36,8-3.62-1.98-7.09-4.61-10.36-8-12.3-12.73-13.38-28.13-9.43-44.16Z"/><path class="cls-1" d="M530.12,1391.1c.4-2.02.83-4.02,1.28-6.03-.45,2-.88,4.01-1.28,6.03-1.06,5.42-3.41,9.14-7.15,11.64,3.74-2.5,6.09-6.22,7.16-11.64Z"/><path class="cls-1" d="M601.6,1434.36c-.88-1.07-1.56-2.13-1.49-3.14.05-.84.12-1.7.2-2.55-.08.85-.15,1.7-.2,2.55-.06,1.02.61,2.07,1.5,3.14Z"/><path class="cls-1" d="M541.13,646.99c3.17-1.96,6.29-4.12,9.39-6.53-2.17-8.71-4.6-17.28-8.04-25.35,3.44,8.07,5.87,16.63,8.04,25.35-3.1,2.41-6.22,4.57-9.39,6.53Z"/><path class="cls-1" d="M517.4,658.07c3.06-1.05,6.07-2.2,9.04-3.47-2.96,1.27-5.98,2.42-9.04,3.47Z"/><path class="cls-1" d="M498.44,606.89c-4.93,17.02-4,34.52-.89,52.38-3.12-17.86-4.04-35.37.89-52.38Z"/><path class="cls-1" d="M605.63,1436.64c-.44.32-.87.64-1.27.98,0,0,0,0,0,0,.41-.34.84-.66,1.27-.98Z"/><path class="cls-1" d="M520.89,1403.93c-1.26.62-2.65,1.15-4.17,1.58-2.1.6-4.18,1.09-6.25,1.48,2.07-.39,4.16-.88,6.25-1.48,1.52-.43,2.9-.96,4.17-1.58Z"/><path class="cls-1" d="M459.46,1392.94c-3.42-4.2-4.75-9.18-4.39-15.26-.36,6.08.97,11.06,4.39,15.26Z"/><path class="cls-1" d="M457.88,1355.77s0,.02,0,.03h0s0-.02,0-.03Z"/><path class="cls-1" d="M458.11,1355.65c.24.08.47.16.71.24,0,0,0,0,0,0-.24-.08-.46-.16-.7-.24h0Z"/><path class="cls-1" d="M510.15,1407.05s.09-.01.14-.02c-.05,0-.09.01-.14.02Z"/><path class="cls-1" d="M789.11,1495.9c-.64,2.65-1.24,4.95-1.88,6.97.64-2.01,1.25-4.32,1.88-6.97,3.46-14.38,3.23-29.28-.04-43.59,3.26,14.31,3.49,29.21.03,43.59Z"/><path class="cls-1" d="M717.73,1373.44c12.52,3.83,23.96,10.2,33.92,18.39-9.95-8.19-21.4-14.56-33.92-18.39-46.25-14.14-89.14,7.29-105.71,52.82-.57,1.59-.94,3.31-1.53,4.88.59-1.57.96-3.29,1.53-4.88,16.56-45.52,59.46-66.96,105.71-52.81Z"/><path class="cls-1" d="M640.98,848.67c20.96-12.78,41.24-25.11,58.85-35.85,2.37-11.36,4.13-19.8,5.81-27.81-34.53,3.84-69.97,7.81-107.56,12,15.03,18.09,28.85,34.73,42.91,51.67Z"/><path class="cls-1" d="M457.87,1355.79c-.28,0-.56-.02-.84-.04.28.02.56.04.84.05,0,0,0,0,0,0Z"/><path class="cls-1" d="M587.56,1520.53c-39.25-2.11-78.49-5.06-117.64-8.63-14.74-1.34-29.27-5.23-43.8-8.48-.7-.16-1.44-.39-2.19-.68.75.29,1.49.52,2.18.68,14.54,3.25,29.06,7.14,43.8,8.48,39.16,3.56,78.39,6.51,117.65,8.63,59.23,3.21,118.4-.5,177.51-3.69,2.79-.15,5.2-.36,7.31-.68-2.1.32-4.51.53-7.3.68-59.12,3.19-118.29,6.9-177.52,3.69Z"/><path class="cls-1" d="M643.02,443.87s0,0,0,0c.11,1,.23,1.96.35,2.93-.12-.97-.23-1.93-.35-2.93Z"/><path class="cls-1" d="M135.88,1066.83c1.14,2.5-.49,5.55-1.81,8.37-.54,1.16-1.1,2.31-1.65,3.47.55-1.16,1.11-2.31,1.65-3.47,1.32-2.82,2.95-5.88,1.8-8.37Z"/><path class="cls-1" d="M656.12,449.32c-.26-1.05-.5-2.03-.72-2.98.23.95.47,1.93.72,2.98Z"/><path class="cls-1" d="M574.92,455.99c-.8,0-1.59-.01-2.38-.02-.22,0-.44,0-.66,0,1,0,2.01.02,3.04.03Z"/><path class="cls-1" d="M578.72,462.03c-.16,1.69-.33,3.43-.54,5.53-1.19-.08-2.38-.14-3.56-.22-.04-.01-.08-.01-.12-.01,2.07,0,3.81-1.47,4.02-3.44.07-.64.14-1.25.2-1.86Z"/><path class="cls-1" d="M579.32,456.01c-.15,1.5-.28,2.83-.4,4.09.16-2.2-1.67-4.09-4-4.11,1.43.01,2.9.02,4.4.02Z"/><path class="cls-1" d="M565.22,455.92h-2.35c.27,0,.53-.01.8-.01.51.01,1.03.01,1.55.01Z"/><path class="cls-1" d="M726,453.89h0c-.86.47-1.71.93-2.56,1.38-.43.23-.86.45-1.28.68,1.26-.68,2.54-1.37,3.84-2.06Z"/><path class="cls-1" d="M108.53,919.77c2.73,2.85,6.95,4.35,10.64,6.16,2.45,1.2,5.13,2.4,7.36,1.67-2.23.72-4.91-.47-7.36-1.67-3.69-1.8-7.92-3.3-10.65-6.16-4.4-4.62-9.27-4.45-14.79-3.92-10.13.98-19.8,3.79-28.7,8.06,8.9-4.27,18.57-7.08,28.7-8.06,5.52-.53,10.39-.71,14.79,3.92Z"/><path class="cls-1" d="M148.79,881.26c-3.1.07-6.21.24-9.34.55-4.69.46-9.45,1.53-14.03,3.05,4.58-1.52,9.33-2.59,14.02-3.05,3.13-.31,6.25-.48,9.34-.55Z"/><path class="cls-1" d="M126.87,916.84c2.58,1.81,4.42,3.94,2.85,7.46-.3.67-.62,1.23-.98,1.69.35-.46.68-1.02.98-1.69,1.57-3.53-.27-5.66-2.85-7.46Z"/><path class="cls-1" d="M114.2,907.5c-6.15-6.98-6.22-13.04-.03-17.51-6.19,4.47-6.12,10.53.03,17.51.59.67,1.23,1.29,1.9,1.9-.67-.6-1.31-1.23-1.9-1.9Z"/><path class="cls-1" d="M19,1037.5c3.44,7.31,8.26,13.73,14.63,18.86,0,0,0,0,0,0-6.37-5.13-11.2-11.55-14.63-18.86Z"/><path class="cls-1" d="M124.56,1067.73c1.26-2.17,2.78-4.13,5.07-4.35-2.29.22-3.82,2.17-5.07,4.35Z"/><path class="cls-1" d="M54.05,1023.4c-2.32,3.47-4.56,6.99-6.78,10.56,2.22-3.57,4.46-7.09,6.78-10.56,2.29-3.41,5.93-7.81,10.23-5.72-4.3-2.1-7.94,2.31-10.23,5.72Z"/><path class="cls-1" d="M114.48,1106.03c.18,4.1.03,8.19.03,12.24-2.57,1.96-5.28,3.57-8.06,4.85,2.78-1.28,5.49-2.89,8.06-4.85,0-4.05.15-8.14-.03-12.24-.05-1.13-.05-2.25-.04-3.37-.01,1.12,0,2.24.04,3.37Z"/><path class="cls-1" d="M68.3,1023.69s0-.03,0-.05c0,.02,0,.03,0,.05Z"/><path class="cls-1" d="M238.83,1054.18c-5.76-6.69-11.43-13.26-17.52-20.33,6.1,7.07,11.76,13.65,17.52,20.33Z"/><path class="cls-1" d="M398.2,573.31h0s-.01,0-.01,0c-.14-.17-.27-.35-.41-.53.14.18.28.36.42.53Z"/><path class="cls-1" d="M398.62,573.81h0s-.01,0-.01,0c-.14-.16-.27-.33-.41-.49.14.17.28.33.42.49Z"/><path class="cls-1" d="M219.19,1031.4s0,0,0,0c.86-.62,1.79-1.29,2.78-2.01-.99.72-1.92,1.39-2.78,2.01Z"/><path class="cls-1" d="M191.19,1048.52c-.04.08-.08.15-.12.23.04-.08.08-.15.12-.23Z"/><path class="cls-1" d="M68.22,1024.09s.02-.1.03-.15c-.01.05-.02.1-.03.15Z"/><path class="cls-1" d="M129.19,1086.39c.51-1.58,1.14-3.14,1.82-4.68-.68,1.54-1.31,3.09-1.82,4.68Z"/><path class="cls-1" d="M770.42,857.21c.92.08,1.84.13,2.74.12,2.68,0,4.7-.68,6.12-1.96-1.42,1.28-3.45,1.95-6.13,1.96-.9,0-1.82-.04-2.74-.12Z"/><path class="cls-1" d="M843.62,830.85c.59-1.99,1.17-3.95,1.76-5.92-.58,1.97-1.17,3.93-1.76,5.92,0,0,0,0,0,0Z"/><path class="cls-1" d="M780.71,841.66c-1.05-3.52-2.77-6.77-5.99-9.71,3.21,2.94,4.94,6.19,5.99,9.71Z"/><path class="cls-1" d="M836.36,777.05c-.11-.06-.24-.11-.35-.17.12.06.24.12.35.18,0,0,0,0,0-.01Z"/><path class="cls-1" d="M831.2,774.73c-.12-.05-.23-.1-.34-.14-4,1.1-8.02,1.93-12.05,2.45,4.03-.52,8.05-1.35,12.05-2.45.12.04.23.09.34.14Z"/><path class="cls-1" d="M842.99,781.31c-.28-.22-.56-.45-.86-.67.29.22.57.45.86.67Z"/><path class="cls-1" d="M794.91,763.27c10.95-5.79,21.85-11.55,32.73-17.29-10.88,5.74-21.79,11.5-32.74,17.29,0,0,0,0,0,0Z"/><path class="cls-1" d="M840.47,779.47s0,0,0,0c.48.32.94.65,1.4.98-.46-.33-.91-.66-1.39-.98,0,0,0,0,0,0Z"/><path class="cls-1" d="M846.01,764.92c-.83.85-1.69,1.69-2.59,2.52.08.18.15.36.22.54.83-1.02,1.63-2.04,2.38-3.08,0,0,0,0-.02.02Z"/><path class="cls-1" d="M845.73,783.7c-.13-.13-.26-.26-.4-.39.14.13.26.26.4.39Z"/><path class="cls-1" d="M744.16,802.37c8.92,8.7,17.52,17.77,26.73,26.14-9.21-8.37-17.8-17.44-26.73-26.14-1.74-1.68-3.43-3.65-5.35-5.06,1.92,1.4,3.61,3.38,5.35,5.06Z"/><path class="cls-1" d="M718.04,793.72c-.73.46-1.44,1.03-2.12,1.73-.15.15-.27.32-.4.47.14-.16.25-.32.4-.47.68-.7,1.39-1.27,2.12-1.73Z"/><path class="cls-1" d="M807.73,765.48c-.32-.02-.65-.06-.98-.08.33.03.65.06.98.08Z"/><path class="cls-1" d="M919.1,781.24c11.65-9.08,19.91-22.41,20.71-37.27.05-1.02.06-2.01,0-2.98,0,0,0,0,0-.01-1.37,15.56-9.31,29.68-20.71,40.27Z"/><path class="cls-1" d="M846.86,784.82s0,0,0,0c0,0-.02-.02-.03-.03,0,0,.02.02.03.03Z"/><path class="cls-1" d="M744.39,777.4s0,0,0,0c11.18,25.6,31.51,46.63,56.99,53.99-25.47-7.37-45.81-28.39-56.98-53.99Z"/><path class="cls-1" d="M833.38,775.63c.24.11.47.21.71.32-.24-.11-.47-.22-.71-.32Z"/><path class="cls-1" d="M807.86,765.48c9.87.57,18.77-1.53,25.42-5.6-6.66,4.07-15.55,6.18-25.42,5.6Z"/><path class="cls-1" d="M844.39,782.47c-.21-.18-.4-.36-.61-.54.21.17.41.36.61.54Z"/><path class="cls-1" d="M776.23,769.27c.46.06.91.16,1.35.28-.44-.12-.89-.21-1.35-.28Z"/><path class="cls-4" d="M865.27,802.22c-4.77,9.53-8.44,18.18-7.53,28.03.94,10.28,6.6,15.99,16.85,15.74,5.23-.12,10.78-1.23,15.54-3.36,20.48-9.13,35.12-24.19,43.12-45.27,1.69-4.43,2.26-9.29,3.34-13.95-.55-.63-1.11-1.28-1.68-1.91-18.75,23.08-42.41,29.13-69.63,20.72Z"/><path class="cls-4" d="M847.18,785.18c-.1-.11-.2-.23-.31-.34,0,0,0,0-.01-.01,0,0,0,0,0,0,.11.12.22.24.32.35Z"/><path class="cls-4" d="M851.53,791.04c.2.35.4.7.59,1.06-.19-.36-.39-.71-.59-1.06Z"/><path class="cls-4" d="M848.37,786.53c.24.29.48.57.71.86-.23-.29-.47-.58-.71-.86Z"/><path class="cls-4" d="M853.69,796.94c.09-.29.17-.57.26-.86-.23-.6-.48-1.18-.73-1.76.26.58.5,1.17.73,1.76-.09.29-.17.57-.25.86Z"/><path class="cls-4" d="M916.68,714.34c-2.36,29.44-22.73,58.66-60,69.16,5.88,3.42,9.13,5.99,12.8,7.32,16.7,6.11,35.59,1.35,49.58-9.56.01-.01.03-.02.04-.03,11.4-10.59,19.35-24.71,20.71-40.27-.37-7.5-3.69-13.95-8.67-19.58-3.73-4.21-7.94-8.26-14.47-7.05Z"/><path class="cls-4" d="M849.52,787.99c.22.3.44.59.65.89-.21-.3-.43-.6-.65-.89Z"/><path class="cls-4" d="M850.56,789.49c.21.32.41.63.61.96-.2-.32-.4-.64-.61-.96Z"/><path class="cls-4" d="M852.42,792.65c.21.42.42.84.62,1.27-.2-.43-.4-.85-.62-1.27Z"/><path class="cls-4" d="M836.54,777.15c-.06-.03-.12-.07-.18-.1h0c.06.04.12.07.18.1Z"/><path class="cls-4" d="M839.82,779.06c.21.14.43.27.64.41,0,0,0,0,0,0-.21-.14-.43-.27-.65-.41Z"/><path class="cls-4" d="M844.58,770.28c5.98-.43,12.4.41,17.85-1.51,23.01-8.12,36.72-25.11,41.35-48.66,3.23-16.38-9.03-30.91-24.51-32.43-7.2,12.89-14.18,25.4-22.13,39.65,4.74,13.69-.25,26.44-11.12,37.57,0,0,0,0,0,0-.75,1.04-1.55,2.06-2.38,3.08,0,0,0,0,0,0,.31.77.63,1.53.94,2.29Z"/><path class="cls-4" d="M837.93,777.92c.22.12.44.24.66.37-.21-.13-.44-.25-.66-.37Z"/><path class="cls-2" d="M458.11,1355.81v-.16s-.08-.04-.13-.05c-.03,0-.05-.02-.08-.03-.01.07-.02.13-.03.2,0,0,0,.02,0,.03.08.02.16.02.24.02Z"/><path class="cls-2" d="M458.82,1355.89c-.17-.27-.35-.53-.52-.79-.06-.08-.11-.17-.17-.25,0,.27-.02.53-.02.8.24.08.46.16.7.24Z"/><path class="cls-2" d="M213.35,584.95h0c.08-.07.17-.14.25-.21-.08.06-.17.14-.25.21ZM215.71,583.11s-.02,0-.02.02c.06-.05.13-.09.19-.13-.06.04-.12.07-.17.11ZM215.46,583.28s-.07.05-.11.08c-.06.04-.11.08-.17.13.02-.02.04-.04.06-.04.05-.04.1-.08.15-.11.1-.07.2-.14.3-.21-.05.02-.1.05-.14.09-.03.03-.06.05-.09.06ZM214.82,583.76s.08-.07.12-.09c-.04.02-.08.05-.12.08h0ZM389.08,550.29c.19,1.08.42,2.16.67,3.25-.25-1.08-.47-2.17-.67-3.25ZM392.38,486.89c-.51,2.16-.98,4.32-1.42,6.47.44-2.15.92-4.31,1.43-6.47h-.01ZM398.19,573.31h.01s0,0,0,0h-.01ZM398.61,573.81h.01s0,0,0,0h-.01ZM403,577.26c.1.05.2.1.3.14h0c-.1-.05-.2-.09-.3-.14ZM498.44,606.89c-.16.53-.3,1.06-.44,1.59.15-.53.3-1.06.45-1.59.41-1.4.85-2.79,1.33-4.18-.49,1.39-.94,2.78-1.34,4.18ZM510.07,586.25c-.34.19-.67.42-1.01.66.34-.24.67-.46,1.01-.66ZM546.87,458.59c-.13.14-.25.28-.36.44.11-.16.23-.3.37-.44h-.01ZM546.77,463.7c-.08-.09-.16-.18-.23-.27.06.09.14.18.22.27.06.06.11.12.18.18-.06-.06-.12-.12-.17-.18ZM563.67,455.91c-.27,0-.53.01-.8.01h2.35c-.52,0-1.04,0-1.55-.01ZM565.66,455.92h-.44c.15,0,.3,0,.45.01h1.6c-.54,0-1.08-.01-1.61-.01ZM571.88,455.96c-.56,0-1.12,0-1.67-.01.55.01,1.11.01,1.67.02h.66c.79.01,1.58.02,2.38.02-1.03-.01-2.04-.02-3.04-.03ZM634.74,445.61c2.72-.57,5.48-1.15,8.28-1.74-2.8.58-5.56,1.16-8.28,1.74ZM722.16,455.95c.42-.23.85-.45,1.28-.68.85-.45,1.7-.91,2.56-1.36h0v-.02c-1.3.69-2.58,1.38-3.84,2.06ZM730.78,388.97c-.15-.11-.31-.21-.46-.3.15.1.3.2.45.31.17.12.34.24.49.36-.15-.13-.31-.25-.48-.37ZM213.35,584.95h0c.08-.07.17-.14.25-.21-.08.06-.17.14-.25.21ZM215.35,583.36s.02-.02.04-.02c.02-.03.04-.04.07-.06-.04.02-.07.05-.11.08ZM215.24,583.45s.07-.07.11-.09c-.06.04-.11.08-.17.13.02-.02.04-.04.06-.04ZM214.82,583.76s.08-.07.12-.09c-.04.02-.08.05-.12.08h0ZM510.07,586.25c-.34.19-.67.42-1.01.66.34-.24.67-.46,1.01-.66Z"/><path class="cls-2" d="M840.47,779.47s0,0,0,0c.48.32.93.65,1.39.98.09.07.19.13.28.2.29.22.57.45.86.67.26.21.53.41.78.62.21.17.41.36.61.54.32.28.64.55.95.84.14.13.26.26.4.39.37.36.74.72,1.1,1.1,0,0,.02.02.03.03,7.26-2.77,13.92-6.13,19.98-10.01-2.33,1.05-4.75,2.03-7.27,2.92-5.85,2.06-12.59,1.56-19.11,1.74Z"/><polygon class="cls-2" points="457.87 1355.79 457.87 1355.79 457.87 1355.79 457.87 1355.79 457.87 1355.79"/><path class="cls-2" d="M880.27,800.03c-7.93,1.1-16,.69-23.78-1.51-5.23,10.75-9.01,20.75-7.98,32.02,1.16,12.75,8.19,19.86,20.92,19.54,6.49-.16,13.38-1.54,19.28-4.18,25.43-11.33,43.61-30.03,53.54-56.2,2.1-5.51,2.8-11.53,4.14-17.32-.68-.78-1.38-1.58-2.08-2.36-17.98,22.12-39.58,31.63-64.05,30.02ZM933.24,797.36c-8,21.08-22.64,36.14-43.12,45.27-4.76,2.13-10.31,3.24-15.54,3.36-10.25.26-15.91-5.46-16.85-15.74-.91-9.85,2.76-18.5,7.53-28.03,27.22,8.4,50.88,2.35,69.63-20.72.57.63,1.13,1.28,1.68,1.91-1.08,4.66-1.65,9.52-3.34,13.95Z"/><path class="cls-2" d="M880.27,800.03c14.29-1.97,28.09-8.82,38.83-18.79-.01.01-.03.02-.04.03-13.99,10.9-32.88,15.67-49.58,9.56-3.68-1.34-6.92-3.91-12.8-7.32,37.27-10.5,57.65-39.72,60-69.16,6.53-1.21,10.74,2.84,14.47,7.05,4.97,5.63,8.29,12.08,8.67,19.58.05-.62.1-1.25.13-1.88.6-10.91-3.76-20.12-10.75-28.03-4.62-5.23-9.85-10.25-17.96-8.75-.07.82-.16,1.65-.24,2.47.74,3.99.77,8.21-.08,12.54-5.24,26.66-19.86,46.56-44.07,57.49-6.06,3.88-12.72,7.24-19.98,10.01,0,0,0,0,.01.01.11.11.21.23.31.34.41.44.81.89,1.19,1.36.24.29.48.57.71.86.15.2.29.4.44.6.22.3.44.59.65.89.14.2.27.4.4.6.21.32.41.63.61.96.12.2.24.4.35.59.2.35.4.7.59,1.06.1.18.2.36.29.55.21.42.42.84.62,1.27.06.13.13.26.19.39.26.58.51,1.16.73,1.76-.08.29-.17.57-.26.86-.06.21-.13.42-.19.63.99.34,1.99.66,2.99.94.45-.92.9-1.85,1.37-2.78,7.71,2.38,15.18,3.81,22.41,4.29Z"/><path class="cls-2" d="M880.27,800.03c-7.23-.48-14.7-1.91-22.41-4.29-.47.93-.92,1.86-1.37,2.78,7.78,2.2,15.85,2.6,23.78,1.51Z"/><path class="cls-2" d="M836.54,777.15c.47.25.93.51,1.39.77.22.12.44.25.66.37.42.25.82.51,1.23.77.21.14.44.27.65.41,6.52-.18,13.26.32,19.11-1.74,2.51-.89,4.93-1.86,7.27-2.92,26.37-16.88,41.27-43.24,44.16-70.03-2.75-14.75-15.39-26.24-30.52-27.72-8.93,16-17.6,31.53-27.47,49.23,4.77,13.79,1.59,26.81-6.98,38.62,0,0,0,0,0,0,10.87-11.13,15.86-23.88,11.12-37.57,7.95-14.25,14.93-26.76,22.13-39.65,15.48,1.52,27.74,16.05,24.51,32.43-4.63,23.54-18.34,40.54-41.35,48.66-5.45,1.92-11.87,1.08-17.85,1.51-.31-.77-.63-1.53-.94-2.29,0,0,0,0,0,0-2.27,2.78-4.84,5.48-7.68,8.1.13.32.26.64.4.97h0c.06.03.12.07.18.1Z"/><path class="cls-2" d="M866.84,774.81c24.21-10.94,38.83-30.83,44.07-57.49.85-4.33.83-8.55.08-12.54-2.88,26.8-17.79,53.16-44.16,70.03Z"/><path class="cls-2" d="M458.11,1355.65s-.08-.03-.13-.05c.05.02.09.03.13.05h0Z"/><path class="cls-2" d="M457.87,1355.79c.08.02.16.02.24.02h0c-.08,0-.16,0-.24-.02,0,0,0,0,0,0Z"/><path class="cls-2" d="M457.9,1355.57c-.01.07-.02.13-.03.2.01-.06.02-.12.03-.2,0,0,0,0,0,0Z"/><path class="cls-2" d="M458.13,1354.85s0,0,0,0c0,.27-.02.53-.02.81h0c0-.27.02-.53.02-.8Z"/><path class="cls-2" d="M458.82,1355.89c-.17-.27-.35-.53-.52-.79.17.26.35.52.52.79,0,0,0,0,0,0Z"/><path class="cls-2" d="M307.53,1350.09c-2.29.44-4.69.34-6.45.45-6.16-24.74-12.14-48.75-18.32-73.57,5.89-4.61,12.35-9.72,18.88-14.77,52.77-40.69,105.56-81.32,158.28-122.08,14.85-11.48,24.48-25.75,22.64-45.65-.23-2.45-.13-4.98.19-7.43.76-5.76-1.35-10.13-4.95-14.63-18.59-23.3-36.85-46.88-55.25-70.33-2.44-3.11-5.06-6.05-9.19-10.93-.34,4.68-.58,6.93-.65,9.21-.69,21.53-1.69,43.06-1.82,64.59-.06,8.16-2.6,13.45-9.21,18.58-50.77,39.25-101.18,78.97-151.73,118.51-3.16,2.47-6.58,4.63-9.82,6.9-5.52-4.18-10.19-8.32-15.43-11.55-5.24-3.24-10.84-6.14-16.63-8.21-44.75-16.01-93.34,6.92-113.14,52.94-6.51,15.14-8,30.38-1.95,45.86,11.56,29.66,22.22,59.75,35.43,88.66,15.87,34.75,35.96,67.18,63.09,94.61,15.72,15.9,33.93,28.09,56.09,32.64,30.59,6.27,61.52,7.77,92.63,3.87,14.42-1.81,25.27-8.97,30.72-22.09,5.03-12.13,9.37-24.87,11.61-37.75,3.73-21.38,3.9-42.9-6.19-63.2-13.29-26.71-39.78-40.09-68.83-34.64ZM363.36,1472.45c-5.08,14.09-14,22.29-29.93,23.54-27.45,2.18-54.62.95-81.55-4.11-19.69-3.69-35.88-14.45-50.06-28.27-20.37-19.85-35.59-43.48-49.49-68-20.48-36.14-34.36-75.1-48.06-114.11-3.58-10.21-2.9-20.27.77-30.35,14.43-39.59,53.38-61.46,92.68-51.96,11.84,2.85,20.66,8.01,30.09,17.96-2.1,2.21-4.05,4.73-6.43,6.69-7.02,5.79-13.93,11.79-21.43,16.92-6.64,4.55-8.9,10.77-8.68,18.09.69,22.5,11.13,39.32,30.5,50.64,7.14,4.19,13.92,3.77,20.59-1.53,9.05-7.18,18.37-13.98,27.66-21.01,7.76,15.21,16.34,51.07,16.82,69.65-7.61,5.63-16.06,10.42-22.61,17.08-7.74,7.84-14.05,17.14-20.51,26.14-1.79,2.5-2.56,6.21-2.56,9.35,0,1.94,2,4.9,3.77,5.52,1.71.6,4.76-.69,6.31-2.14,1.68-1.58,2.21-4.34,3.35-6.51,11.69-22.03,29.91-36.38,53.64-42.88,20.96-5.76,38.22,1.76,51.41,18.59,6.52,8.31,10.24,18,11.39,28.46,2.34,21.32-.39,42.07-7.66,62.25Z"/><path class="cls-4" d="M522.96,1402.74c-.65.43-1.34.83-2.08,1.19-1.26.62-2.65,1.15-4.17,1.58-2.1.6-4.18,1.09-6.25,1.48-.06.01-.12.03-.18.04-.05,0-.09.01-.14.02-14.86,2.74-29.1.22-42.56-7.5-3.46-1.99-6.15-4.17-8.14-6.61-3.42-4.2-4.75-9.18-4.39-15.26.1-1.7.32-3.48.67-5.36,1.05-5.43,1.45-11.02,2.13-16.53-.28,0-.56-.02-.84-.05-1.26-.09-2.55-.27-3.62.13-25.73,9.71-43.15,27.38-49.89,54.31-5.65,22.55-2.98,43.96,4.16,64.6,1.61,4.66,3.45,9.29,5.48,13.88,1.34,3.04,2.76,6.07,4.25,9.08,1.06,2.12,3.84,3.94,6.54,4.99.75.29,1.49.52,2.19.68,14.53,3.26,29.06,7.14,43.8,8.48,39.15,3.56,78.39,6.51,117.64,8.63,59.23,3.21,118.4-.5,177.52-3.69,2.79-.15,5.2-.36,7.3-.68,8.71-1.32,12.07-4.53,14.84-13.28.64-2.01,1.25-4.32,1.88-6.97,3.46-14.38,3.23-29.28-.03-43.59-5.33-23.34-18.74-45.11-37.43-60.49-9.95-8.18-21.4-14.56-33.92-18.39-46.25-14.14-89.15,7.29-105.71,52.81-.57,1.59-.94,3.31-1.53,4.88-.28.73-.6,1.44-1.02,2.07-.91,1.38-2.41,2.39-3.84,3.44-.44.32-.87.64-1.27.98,0,0,0,0,0,0,0,0,0,0,0,0-.74-1.05-1.82-2.13-2.7-3.19-.01-.01-.02-.03-.04-.04,0,0-.01-.02-.02-.03-.88-1.07-1.56-2.13-1.5-3.14.05-.84.12-1.69.2-2.55.42-4.37,1.27-8.8,2.99-12.73.04-.09.07-.18.11-.27,2.66-5.94,5.86-11.65,9.07-17.35,1.41-2.52,2.83-5.03,4.2-7.56-18.98-16.19-61.47-35.03-78.14-34.36-2.34,9.48-4.98,19.01-7.14,28.67-.45,2.01-.88,4.01-1.28,6.03-1.06,5.42-3.42,9.14-7.16,11.64Z"/><path class="cls-4" d="M609.48,1433.2c.42-.64.74-1.34,1.02-2.07-.28.73-.6,1.43-1.02,2.07-.92,1.39-2.41,2.39-3.84,3.44,1.43-1.05,2.93-2.06,3.84-3.44Z"/><path class="cls-4" d="M604.36,1437.62c-.74-1.05-1.82-2.12-2.7-3.19.89,1.06,1.96,2.14,2.7,3.19,0,0,0,0,0,0Z"/><path class="cls-4" d="M616.68,1390.76c-1.37,2.53-2.79,5.05-4.2,7.56,1.41-2.52,2.83-5.03,4.2-7.56-18.98-16.19-61.47-35.03-78.15-34.37-2.34,9.48-4.99,19.02-7.14,28.67,2.16-9.66,4.8-19.19,7.14-28.67,16.68-.66,59.17,18.17,78.14,34.36Z"/><path class="cls-4" d="M520.89,1403.93c.73-.36,1.43-.76,2.08-1.19-.65.43-1.34.83-2.08,1.19Z"/><path class="cls-4" d="M510.29,1407.03c.06-.01.12-.03.18-.04-.06.01-.12.03-.18.04Z"/><path class="cls-4" d="M403.51,1410.19c6.74-26.93,24.16-44.6,49.89-54.31,1.08-.39,2.36-.22,3.62-.13-1.26-.09-2.54-.27-3.62.13-25.74,9.71-43.15,27.38-49.9,54.31-5.65,22.54-2.98,43.95,4.16,64.6-7.14-20.65-9.81-42.06-4.16-64.6Z"/><path class="cls-4" d="M772.38,1516.15c8.71-1.32,12.07-4.52,14.84-13.28-2.78,8.76-6.14,11.96-14.84,13.28Z"/><path class="cls-4" d="M417.39,1497.75c-1.49-3.01-2.91-6.04-4.25-9.08,1.34,3.04,2.76,6.07,4.25,9.09,1.06,2.12,3.83,3.94,6.54,4.98-2.7-1.04-5.48-2.87-6.54-4.99Z"/><path class="cls-4" d="M467.6,1399.55c13.46,7.72,27.7,10.24,42.56,7.5-14.86,2.74-29.1.22-42.56-7.5-3.46-1.99-6.15-4.16-8.14-6.6,1.99,2.44,4.68,4.62,8.14,6.61Z"/><path class="cls-4" d="M789.07,1452.31c-5.32-23.35-18.73-45.11-37.43-60.49,18.69,15.37,32.1,37.14,37.43,60.49Z"/><path class="cls-4" d="M455.74,1372.32c-.36,1.88-.57,3.66-.67,5.36.1-1.7.32-3.47.68-5.36,1.05-5.43,1.45-11.03,2.13-16.53h0c-.68,5.5-1.08,11.09-2.13,16.53Z"/><path class="cls-4" d="M601.6,1434.36s.01.02.02.03c0,0-.01-.02-.02-.03Z"/><path class="cls-4" d="M603.3,1415.94c-1.73,3.93-2.58,8.36-2.99,12.73.42-4.37,1.27-8.8,2.99-12.73Z"/><path class="cls-4" d="M853.51,797.57c-.29-.1-.58-.2-.87-.3-4.56-1.66-8.59-4.85-15.9-9.09,3.5-.99,6.86-2.12,10.12-3.36,0,0-.02-.02-.03-.03-.35-.37-.73-.74-1.1-1.1-.13-.13-.26-.26-.4-.39-.31-.29-.63-.56-.95-.84-.21-.18-.4-.36-.61-.54-.25-.21-.52-.41-.78-.62-.28-.22-.56-.45-.86-.67-.09-.07-.19-.13-.28-.2-.46-.33-.92-.66-1.4-.98-1.02.03-2.04.07-3.05.14-.35-.85-.69-1.7-1.04-2.55-.12-.06-.24-.12-.35-.18-.63-.32-1.27-.63-1.92-.93-.24-.11-.47-.22-.71-.32-.71-.31-1.44-.61-2.18-.9-.12-.04-.23-.09-.34-.14-4,1.1-8.02,1.92-12.05,2.45-13.1,1.7-26.27.08-39.08-6.67-.64-.35-1.38-.62-2.16-.82-.44-.12-.89-.21-1.35-.28-1.23-.17-2.47-.14-3.54.13-9.47,2.4-18.81,5.27-28.3,8,11.18,25.6,31.51,46.62,56.98,53.99,12.93,3.74,27.18,3.96,42.24-.54.59-1.99,1.18-3.95,1.76-5.92,2.73-9.2,5.4-18.17,8.13-27.35,0,0,0,0,0,0Z"/><path class="cls-4" d="M836.73,788.18c7.31,4.24,11.33,7.43,15.9,9.09.29.11.58.2.87.3.06-.21.13-.42.19-.63.09-.29.17-.57.25-.86-.23-.6-.48-1.19-.73-1.76-.06-.13-.12-.26-.19-.39-.2-.43-.4-.85-.62-1.27-.1-.19-.19-.37-.29-.55-.19-.36-.39-.71-.59-1.06-.12-.2-.23-.4-.35-.59-.2-.32-.4-.64-.61-.96-.13-.2-.27-.41-.4-.6-.21-.3-.43-.6-.65-.89-.15-.2-.29-.4-.44-.6-.23-.29-.47-.58-.71-.86-.38-.46-.78-.91-1.19-1.36-.11-.12-.21-.24-.32-.35-3.26,1.24-6.62,2.38-10.12,3.36Z"/><path class="cls-4" d="M838.59,778.29c-.21-.13-.44-.25-.66-.37-.46-.26-.92-.52-1.39-.77-.06-.03-.12-.06-.18-.09.35.85.69,1.69,1.04,2.55,1.01-.07,2.03-.12,3.05-.14-.21-.14-.43-.27-.64-.41-.4-.26-.81-.52-1.23-.77Z"/><path class="cls-4" d="M853.5,797.58c-2.73,9.18-5.4,18.15-8.13,27.35,2.74-9.2,5.41-18.19,8.13-27.36h0s0,0,0,0Z"/><path class="cls-4" d="M845.73,783.7c.37.36.75.72,1.1,1.1-.36-.37-.73-.74-1.1-1.1Z"/><path class="cls-4" d="M842.13,780.64c-.09-.07-.19-.13-.28-.2.09.07.19.13.28.2Z"/><path class="cls-4" d="M834.09,775.95c.65.3,1.3.61,1.92.93-.63-.32-1.27-.63-1.92-.93Z"/><path class="cls-4" d="M845.33,783.31c-.31-.29-.63-.56-.95-.84.32.28.64.55.95.84Z"/><path class="cls-4" d="M831.2,774.73c.74.29,1.47.59,2.18.9-.71-.31-1.44-.61-2.18-.9Z"/><path class="cls-4" d="M776.23,769.27c-1.23-.17-2.47-.14-3.54.13-9.47,2.4-18.8,5.27-28.3,8,0,0,0,0,0,0,9.5-2.73,18.83-5.6,28.3-8,1.06-.27,2.31-.3,3.54-.13Z"/><path class="cls-4" d="M843.77,781.93c-.25-.21-.52-.41-.78-.62.26.21.53.41.78.62Z"/><path class="cls-4" d="M801.37,831.39c12.93,3.74,27.18,3.96,42.24-.53,0,0,0,0,0,0-15.06,4.5-29.31,4.27-42.24.54Z"/><path class="cls-4" d="M818.81,777.03c-13.1,1.7-26.27.08-39.07-6.67-.64-.34-1.38-.62-2.16-.82.78.2,1.52.48,2.16.82,12.81,6.74,25.97,8.37,39.08,6.67Z"/><path class="cls-4" d="M851.18,790.45c.12.2.24.4.35.59-.12-.2-.23-.4-.35-.59Z"/><path class="cls-4" d="M850.16,788.89c.14.2.27.4.4.6-.13-.2-.27-.41-.4-.6Z"/><path class="cls-4" d="M849.07,787.4c.15.2.29.4.44.6-.15-.2-.29-.4-.44-.6Z"/><path class="cls-4" d="M852.12,792.1c.1.18.2.36.29.55-.1-.19-.19-.37-.29-.55Z"/><path class="cls-4" d="M847.18,785.18c.41.44.8.89,1.19,1.36-.38-.46-.78-.91-1.19-1.36Z"/><path class="cls-4" d="M853.03,793.93c.06.13.13.26.19.39-.06-.13-.12-.26-.19-.39Z"/><path class="cls-4" d="M853.51,797.57h0c.06-.21.13-.42.19-.63-.06.21-.13.42-.19.63Z"/><path class="cls-4" d="M836.54,777.15c.47.25.93.51,1.39.77-.46-.26-.92-.52-1.39-.77Z"/><path class="cls-4" d="M838.59,778.29c.42.25.82.51,1.23.77-.4-.26-.81-.52-1.23-.77Z"/><path class="cls-4" d="M806.75,765.4c.33.03.65.06.98.08.04,0,.08,0,.13,0,9.87.57,18.77-1.53,25.42-5.6,8.36-5.11,13.19-13.32,11.99-23.21-5.85,3.09-11.74,6.19-17.63,9.3-10.88,5.74-21.79,11.5-32.73,17.29,4.04,1.15,8.01,1.83,11.84,2.13Z"/><path class="cls-4" d="M794.91,763.27c4.04,1.15,8.01,1.83,11.84,2.13-3.83-.3-7.8-.99-11.84-2.13,0,0,0,0,0,0Z"/><path class="cls-4" d="M807.86,765.48s-.08,0-.13,0c.04,0,.08,0,.13,0Z"/><path class="cls-4" d="M833.28,759.88c8.36-5.11,13.19-13.32,11.99-23.21-5.85,3.09-11.74,6.2-17.63,9.3,5.88-3.11,11.77-6.21,17.63-9.3,1.19,9.89-3.64,18.09-11.99,23.21Z"/><path class="cls-4" d="M780.71,841.66c-1.05-3.52-2.78-6.77-5.99-9.71-.15-.13-.28-.27-.44-.4-1.15-1-2.27-2.02-3.4-3.04-9.21-8.37-17.8-17.44-26.73-26.14-1.74-1.68-3.43-3.65-5.35-5.06-.64-.47-1.31-.87-2.01-1.18-6.02-2.63-13.05-6.02-18.75-2.41-.73.46-1.44,1.03-2.12,1.73-.15.15-.27.31-.4.47-4.9,5.66-1.54,13.15,1.63,19.25,9.48,18.27,23.9,31.48,42.82,39.49,3.23,1.36,6.87,2.24,10.45,2.54.92.08,1.84.12,2.74.12,2.68,0,4.7-.68,6.13-1.96,1.83-1.65,2.67-4.29,2.67-7.81-.3-2.04-.68-4.01-1.24-5.9Z"/><path class="cls-4" d="M736.8,796.13c.7.31,1.37.71,2.01,1.18-.64-.47-1.31-.87-2.02-1.18-6.02-2.63-13.04-6.02-18.75-2.41,5.71-3.61,12.73-.22,18.75,2.41Z"/><path class="cls-4" d="M774.72,831.95c-.15-.13-.29-.27-.44-.4-1.14-1-2.27-2.01-3.4-3.04,1.12,1.02,2.25,2.04,3.4,3.04.15.13.29.27.44.4Z"/><path class="cls-4" d="M781.96,847.56c0,3.52-.85,6.16-2.67,7.81,1.83-1.65,2.68-4.29,2.68-7.81-.31-2.04-.68-4.01-1.25-5.9.56,1.89.94,3.86,1.24,5.9Z"/><path class="cls-4" d="M717.15,815.17c-3.17-6.1-6.52-13.59-1.63-19.25-4.9,5.66-1.54,13.15,1.63,19.25,9.48,18.27,23.9,31.48,42.82,39.49,3.23,1.36,6.87,2.24,10.45,2.54-3.58-.3-7.22-1.18-10.45-2.54-18.92-8.01-33.34-21.22-42.82-39.49Z"/><path class="cls-4" d="M218.36,906.19c-2.14-2.42-4.52-4.77-7.07-6.88-2.55-2.12-5.28-4-8.14-5.48-17.12-8.93-35.42-12.98-54.37-12.56-3.1.07-6.21.24-9.34.55-4.69.46-9.45,1.53-14.02,3.05-2.51.83-4.96,1.79-7.31,2.87-1.53.7-2.82,1.46-3.94,2.26-6.19,4.47-6.12,10.53.03,17.51.59.67,1.23,1.29,1.9,1.9,2.64,2.39,5.8,4.35,8.85,6.21.65.4,1.3.81,1.91,1.23,2.58,1.8,4.42,3.93,2.85,7.46-.3.67-.62,1.23-.98,1.69-.65.85-1.4,1.35-2.21,1.61-2.23.73-4.91-.47-7.36-1.67-3.69-1.81-7.92-3.31-10.64-6.16-4.4-4.63-9.27-4.45-14.79-3.92-10.13.98-19.8,3.79-28.7,8.06-34.69,16.64-57.77,55.46-51.69,94.58,1.05,6.77,2.91,13.17,5.65,19,3.44,7.31,8.26,13.73,14.63,18.86,4.71-7.68,9.12-15.14,13.64-22.4,2.22-3.57,4.46-7.09,6.78-10.56,2.29-3.41,5.93-7.82,10.23-5.72.62.3,1.24.73,1.88,1.32,1.82,1.67,2.35,3.21,2.14,4.65,0,.02,0,.03,0,.05-.01.08-.03.17-.05.25-.01.05-.02.1-.03.15-.67,2.61-3.67,4.91-5.63,7.15-12.34,14.09-18.24,30.61-16.56,49.18,3.47,38.33,35.31,54.26,60.43,42.7,2.78-1.28,5.49-2.89,8.06-4.85,0-4.05.15-8.14-.03-12.24-.05-1.13-.05-2.25-.04-3.37.14-11.49,3.39-22.21,8.74-32.39.43-.82.88-1.7,1.37-2.54,1.25-2.17,2.78-4.13,5.07-4.35,1.06-.1,2.28.17,3.72.96,1.33.72,2.11,1.57,2.53,2.49,1.14,2.49-.48,5.55-1.8,8.37-.54,1.15-1.1,2.31-1.65,3.47-.48,1.01-.96,2.02-1.41,3.04-.68,1.54-1.31,3.09-1.82,4.68-.14.45-.28.89-.41,1.34-.2.75-.4,1.49-.58,2.23-3.95,16.03-2.87,31.43,9.43,44.16,3.27,3.39,6.74,6.02,10.36,8,11.06,6.03,23.61,5.9,36.76,2.04,6.04-1.77,11.78-4.5,17.06-7.98,15.75-10.37,27.41-27.45,30.75-45.88.37-2.07.66-4.15.81-6.24,1.35-17.91-7.24-32.6-25.14-41.47-3.37,6.4-6.95,12.79-10.13,19.37-1.51,3.15-2.01,6.83-3.58,9.92-.09.17-.16.34-.25.51-1.02,1.81-4.68,4.18-5.42,3.68-.32-.21-.63-.47-.92-.74-1.55-1.43-2.71-3.56-3.56-5.57-.19-.44-.25-.96-.24-1.5.02-1.09.35-2.32.66-3.35,1.59-5.36,3.54-10.44,5.86-15.25.15-.3.28-.61.42-.91.04-.08.08-.15.12-.23,7.21-14.47,17.9-26.25,32.47-34.98.62-.37,1.24-.76,1.88-1.12.16-.09.31-.17.47-.26,2.06-1.13,4.2-1.99,6.12-1.71,1.54.23,2.94,1.2,4.04,3.39.75,1.47.83,2.69.52,3.73-.64,2.12-2.98,3.55-5.11,4.99-3.41,2.32-6.74,4.75-9.61,6.83-.99.72-1.92,1.39-2.78,2.01.71.83,1.41,1.64,2.11,2.45,6.1,7.07,11.76,13.64,17.52,20.33,1.66,1.92,3.32,3.86,5.01,5.82,4.75-3.6,8.89-7.49,12.44-11.66,12.5-14.71,17.47-32.88,14.77-54.02-3.32-26.06-20.46-45.69-43.53-52.96-7.78-2.45-16.24-3.5-25.07-2.9-.47.04-.99.15-1.5.24-.79.15-1.55.25-2.11-.02-.01,0-.03,0-.04-.02-2.29-1.21-4.3-2.9-6.44-4.42,1.63-2.06,2.89-4.74,4.99-6.05,2.35-1.48,5.58-1.48,8.22-2.6.94-.39,1.89-.78,2.83-1.18,2.88-1.21,5.72-2.52,8.14-4.36,5.5-4.21,6.37-8.74,1.82-13.87Z"/><path class="cls-4" d="M191.07,1048.75c-.15.3-.28.61-.42.91.15-.3.28-.61.42-.91Z"/><path class="cls-4" d="M131.01,1081.71c.45-1.02.93-2.03,1.41-3.04-.48,1.01-.96,2.02-1.41,3.04Z"/><path class="cls-4" d="M68.25,1023.94c.02-.08.04-.16.05-.25-.01.08-.03.17-.05.25Z"/><path class="cls-4" d="M219.19,1031.4c.71.83,1.41,1.64,2.12,2.45-.7-.81-1.4-1.62-2.11-2.45,0,0,0,0,0,0Z"/><path class="cls-4" d="M148,1142.13c11.06,6.03,23.61,5.91,36.76,2.04,6.04-1.77,11.78-4.5,17.06-7.98-5.28,3.48-11.02,6.21-17.06,7.98-13.15,3.86-25.7,3.99-36.76-2.04Z"/><path class="cls-4" d="M114.44,1102.66c.15-11.49,3.39-22.21,8.74-32.38.43-.82.88-1.7,1.37-2.54-.49.84-.94,1.72-1.37,2.54-5.35,10.18-8.6,20.9-8.74,32.39Z"/><path class="cls-4" d="M243.84,1060c-1.69-1.96-3.36-3.89-5.01-5.82,1.66,1.93,3.33,3.86,5.02,5.82,4.75-3.6,8.89-7.49,12.43-11.66-3.54,4.17-7.69,8.06-12.44,11.66Z"/><path class="cls-4" d="M133.35,1064.34c-1.43-.79-2.66-1.06-3.72-.96,1.06-.1,2.28.17,3.72.96,1.33.72,2.11,1.57,2.53,2.48-.42-.92-1.2-1.76-2.53-2.49Z"/><path class="cls-4" d="M197.35,928.21c-2.1,1.3-3.36,3.99-4.99,6.05,2.13,1.52,4.15,3.21,6.44,4.42.01,0,.03,0,.04.02-.01,0-.03,0-.04-.01-2.29-1.21-4.31-2.9-6.43-4.42,1.63-2.06,2.89-4.74,4.98-6.05,2.35-1.48,5.58-1.48,8.22-2.6.94-.4,1.89-.78,2.83-1.18-.95.4-1.9.79-2.83,1.18-2.64,1.11-5.87,1.11-8.22,2.6Z"/><path class="cls-4" d="M129.19,1086.39c-.14.45-.28.89-.41,1.34-.2.75-.39,1.49-.58,2.24.18-.74.37-1.49.58-2.23.12-.45.26-.9.41-1.34Z"/><path class="cls-4" d="M191.19,1048.52c7.22-14.47,17.9-26.25,32.47-34.98-14.57,8.73-25.26,20.51-32.47,34.98Z"/><path class="cls-4" d="M184.37,1069.76c.86,2.01,2.01,4.14,3.56,5.57-1.55-1.43-2.71-3.56-3.56-5.57-.19-.44-.25-.96-.24-1.51-.01.55.05,1.06.24,1.5Z"/><path class="cls-4" d="M227.52,941.37c-7.78-2.45-16.24-3.5-25.07-2.9-.47.04-.99.15-1.49.24.51-.1,1.02-.21,1.5-.24,8.83-.59,17.28.45,25.07,2.9Z"/><path class="cls-4" d="M208.24,1042.59c17.9,8.87,26.49,23.56,25.14,41.47-.16,2.09-.44,4.18-.81,6.24.37-2.07.66-4.15.81-6.24,1.35-17.92-7.24-32.61-25.14-41.48-3.37,6.4-6.95,12.79-10.13,19.37-1.51,3.15-2.01,6.83-3.58,9.92,1.58-3.09,2.07-6.77,3.58-9.92,3.17-6.58,6.76-12.97,10.13-19.37Z"/><path class="cls-4" d="M226.01,1012.16c2.06-1.13,4.2-1.99,6.12-1.71-1.92-.29-4.06.58-6.12,1.71Z"/><path class="cls-4" d="M65.04,923.92c-34.69,16.64-57.77,55.45-51.69,94.58,1.05,6.77,2.91,13.17,5.65,19.01-2.74-5.84-4.6-12.24-5.65-19-6.08-39.13,16.99-77.94,51.69-94.58Z"/><path class="cls-4" d="M116.11,909.4c2.64,2.39,5.8,4.35,8.85,6.21.65.4,1.3.81,1.91,1.23-.61-.42-1.25-.83-1.91-1.23-3.05-1.87-6.21-3.82-8.85-6.21Z"/><path class="cls-4" d="M128.74,925.99c-.65.85-1.4,1.35-2.21,1.61.8-.26,1.55-.76,2.21-1.61Z"/><path class="cls-4" d="M203.16,893.83c2.86,1.48,5.59,3.37,8.14,5.48-2.55-2.12-5.28-4-8.14-5.48-17.12-8.93-35.42-12.98-54.37-12.56,18.95-.41,37.25,3.64,54.37,12.56Z"/><path class="cls-4" d="M125.42,884.86c-2.51.83-4.96,1.79-7.31,2.87-1.52.7-2.82,1.46-3.93,2.26,1.12-.8,2.41-1.56,3.94-2.26,2.35-1.08,4.8-2.04,7.31-2.87Z"/><path class="cls-4" d="M46.02,1080.42c-1.67-18.57,4.23-35.09,16.56-49.18,1.96-2.24,4.97-4.54,5.63-7.15-.67,2.61-3.67,4.91-5.64,7.15-12.34,14.09-18.24,30.61-16.56,49.19,3.47,38.33,35.31,54.26,60.43,42.7-25.12,11.56-56.96-4.37-60.43-42.7Z"/><path class="cls-4" d="M33.64,1056.36c4.71-7.68,9.12-15.15,13.63-22.4-4.51,7.25-8.92,14.72-13.64,22.4,0,0,0,0,0,0Z"/><path class="cls-4" d="M66.17,1019c-.64-.59-1.27-1.02-1.88-1.32.61.3,1.24.73,1.88,1.32,1.83,1.67,2.36,3.21,2.14,4.65.21-1.44-.32-2.98-2.14-4.65Z"/><path class="cls-4" d="M236.69,1017.57c-.64,2.12-2.99,3.54-5.11,4.99-3.41,2.32-6.74,4.75-9.61,6.83,2.87-2.08,6.2-4.51,9.61-6.83,2.13-1.45,4.47-2.87,5.11-4.99Z"/><path class="cls-4" d="M241.44,630.48c-.06,1.48-.13,2.97-.21,4.45-.09,1.65-.25,3.3-.43,4.97-.32,2.9-.76,5.88-1.25,9.08-.16,1.07-.33,2.16-.5,3.28-.26,1.65-.52,3.37-.77,5.17-.09.6-.18,1.2-.26,1.82-11.06-2.74-21.46-5.32-31.87-7.9-4.72-1.17-9.44-2.34-14.23-3.52-1.44-.36-2.88-.71-4.33-1.07s-2.91-.73-4.38-1.09c1.39-5.9,2.86-11.66,4.56-17.21,3.18-10.46,7.18-20.22,12.99-28.97,3.3-4.97,7.18-9.61,11.83-13.87h.01c.25-.23.49-.45.74-.66,0,0,0-.01.01,0h0c.08-.08.17-.16.25-.22.4-.36.8-.68,1.21-.98,0,0,0-.01.01,0h0s.08-.07.12-.09c.08-.07.16-.13.24-.18.06-.05.11-.09.17-.13.04-.03.07-.06.11-.08.03,0,.06-.03.09-.06.05-.04.11-.08.16-.11.18-.14.37-.26.56-.39.14-.08.27-.17.41-.25.1-.07.2-.13.3-.19.07-.04.14-.08.21-.12.17-.1.33-.19.49-.28,0-.01.01-.01.01-.01.03-.02.07-.04.1-.05.2-.11.4-.22.6-.31.23-.11.46-.22.69-.32.46-.2.92-.37,1.37-.51,3.32-1.04,6.36-.54,9.07,1.44.32.25.64.5.95.78.47.42.93.89,1.38,1.41,1.49,1.72,2.85,3.97,4.06,6.74,1.64,3.78,2.93,7.8,3.83,11.89.06.25.12.5.16.75.28,1.29.51,2.59.71,3.88l.18,1.29c.03.22.06.43.08.65.03.21.05.42.07.64.73,6.71.77,13.54.5,20.33Z"/><path class="cls-4" d="M240.8,639.9c.19-1.67.34-3.32.43-4.97.08-1.48.15-2.97.21-4.45-.06,1.49-.13,2.97-.21,4.46-.09,1.65-.24,3.29-.43,4.96Z"/><path class="cls-4" d="M240.61,607.57c-.2-1.29-.43-2.59-.71-3.88.28,1.29.52,2.59.71,3.88Z"/><path class="cls-4" d="M183.21,645.67h0c1.39-5.9,2.86-11.66,4.55-17.22-1.69,5.56-3.16,11.31-4.56,17.22Z"/><path class="cls-4" d="M206.15,651.35c10.42,2.58,20.81,5.16,31.87,7.9.34-2.47.69-4.79,1.02-6.99-.34,2.2-.69,4.51-1.03,6.99-11.06-2.74-21.46-5.31-31.87-7.89Z"/><path class="cls-4" d="M446.52,492.76c-.01.21-.03.42-.04.63-.23,4.15-.56,8.2-1.02,12.17-.14,1.19-.28,2.37-.44,3.55-.32,2.35-.69,4.67-1.1,6.96-.2,1.15-.42,2.29-.65,3.42-.46,2.27-.97,4.51-1.53,6.72-.37,1.47-.77,2.94-1.19,4.39-2.46,8.53-5.73,16.69-9.98,24.57-.3.56-.62,1.12-.93,1.68-.64,1.11-1.31,2.22-2.01,3.31-.35.54-.71,1.09-1.07,1.62-.73,1.08-1.49,2.14-2.27,3.17-.79,1.04-1.59,2.05-2.43,3.04-.36.42-.72.85-1.09,1.26-.74.83-1.49,1.64-2.26,2.43-.38.39-.77.77-1.16,1.15-1.11,1.06-2.2,1.96-3.28,2.7-.16.11-.31.21-.47.31-.31.2-.62.39-.93.57-.16.08-.31.17-.47.25-.61.32-1.22.59-1.82.81-.45.16-.9.29-1.35.39-1.05.24-2.09.31-3.09.21-.6-.06-1.19-.18-1.77-.36-.29-.08-.57-.19-.86-.31h-.01c-.1-.05-.2-.09-.3-.14-.08-.04-.17-.08-.25-.12h-.01c-.19-.1-.37-.19-.56-.3-.93-.53-1.83-1.23-2.7-2.1-.22-.22-.44-.45-.66-.7-.06-.07-.13-.14-.2-.22h0c-.14-.17-.28-.33-.42-.5h0c-.14-.18-.28-.36-.42-.54-.22-.29-.43-.6-.64-.91-.11-.16-.22-.32-.32-.48-.22-.33-.43-.66-.63-1.01-.26-.44-.51-.89-.76-1.37-1.38-2.66-2.58-5.47-3.6-8.35-.83-2.34-1.53-4.72-2.08-7.12-.25-1.09-.48-2.17-.67-3.25-.07-.37-.12-.73-.18-1.09-.02-.12-.04-.24-.05-.36-.24-1.55-.45-3.1-.63-4.64-.59-5.01-.89-10.01-.94-15.02,0-.49,0-.98,0-1.47,0-4.2.18-8.4.53-12.62.14-1.69.3-3.39.49-5.08.1-.85.2-1.7.31-2.54.22-1.7.46-3.4.73-5.11.13-.85.27-1.71.42-2.56.37-2.14.77-4.29,1.21-6.44.44-2.15.92-4.31,1.43-6.47,1.41-.19,2.82-.32,4.22-.41,5.43-.34,10.76.02,16.08.73,11.16,1.49,22.22,4.47,33.83,5.55Z"/><path class="cls-4" d="M392.39,486.89c-.51,2.16-.99,4.32-1.43,6.47.44-2.15.91-4.31,1.42-6.47h.01Z"/><path class="cls-4" d="M403.3,577.39h0c-.1-.03-.2-.08-.3-.13.1.05.2.09.3.13Z"/><path class="cls-4" d="M409.03,577.86c-1.05.25-2.08.31-3.09.21,1,.1,2.04.03,3.09-.21Z"/><path class="cls-4" d="M412.2,576.66c-.61.33-1.22.6-1.82.81.6-.22,1.21-.49,1.82-.81Z"/><path class="cls-4" d="M550.52,640.46c-1.16.9-2.32,1.77-3.49,2.61-1.95,1.39-3.92,2.69-5.9,3.92-4.79,2.97-9.68,5.46-14.69,7.61-2.97,1.27-5.98,2.42-9.04,3.47-6.13,2.11-12.47,3.84-19.08,5.37-.27-1.39-.52-2.78-.76-4.16-1.86-10.63-2.94-21.13-2.47-31.48.05-1.08.11-2.16.2-3.24.04-.54.09-1.08.14-1.63.1-1.07.22-2.15.36-3.22h0c.11-.82.22-1.62.35-2.42.38-2.41.86-4.82,1.45-7.21.13-.53.27-1.07.41-1.6.14-.53.28-1.06.44-1.59.4-1.4.85-2.79,1.34-4.18.16-.47.32-.93.5-1.39.34-.93.7-1.85,1.08-2.77h0c.38-.93.78-1.85,1.2-2.77.21-.45.42-.89.63-1.32.22-.42.43-.84.65-1.23.45-.8.9-1.53,1.37-2.21.35-.51.71-.98,1.08-1.43h0c.24-.3.48-.58.74-.85h0c.5-.55,1.01-1.03,1.54-1.45.16-.13.33-.26.49-.38.34-.24.67-.47,1.01-.66.34-.2.69-.38,1.04-.53.35-.16.7-.29,1.06-.4.18-.06.36-.11.54-.15h.01c.49-.12.99-.2,1.49-.23.38-.04.76-.04,1.14-.02.43.01.86.06,1.29.13.07.01.14.02.21.03,1.06.2,2.14.56,3.24,1.09.22.1.44.21.66.33h.01c.22.12.44.24.66.38,1.79,1.05,3.64,2.51,5.52,4.39.24.23.47.47.71.72,6.6,6.89,11.26,14.74,14.83,23.12,2.15,5.04,3.91,10.28,5.45,15.63.85,2.94,1.64,5.91,2.38,8.9.07.27.14.55.21.82Z"/><path class="cls-4" d="M541.13,646.99c-4.79,2.97-9.68,5.46-14.69,7.61,5.01-2.15,9.9-4.64,14.69-7.61Z"/><path class="cls-4" d="M497.55,659.28c.24,1.39.5,2.78.76,4.17,6.61-1.53,12.95-3.26,19.08-5.37-6.13,2.11-12.47,3.84-19.08,5.37-.27-1.39-.52-2.78-.76-4.16Z"/><path class="cls-4" d="M646.44,480.88c0,.67,0,1.35-.01,2.02,0,0-.01.02,0,.03-.01.67-.03,1.34-.05,2.02v.03c-.02.67-.04,1.34-.07,2.01-.01.01-.01.02,0,.03-.03.67-.07,1.34-.11,2.01v.03c-.04.67-.08,1.34-.14,2.01v.02c-.05.67-.1,1.34-.17,2.01v.03c-.06.67-.12,1.33-.2,2v.02c-.07.67-.15,1.34-.23,2.01h0c-.08.68-.17,1.35-.27,2.02h0c-.09.68-.19,1.34-.3,2.01v.02c-.32,2-.69,4-1.11,5.99h0c-.14.68-.29,1.35-.44,2.01-.31,1.32-.64,2.64-.99,3.96-.91,3.39-1.98,6.75-3.23,10.09-.39,1.03-.79,2.08-1.2,3.13-.43,1.05-.86,2.1-1.33,3.13-.39.85-.8,1.7-1.23,2.53-.14.27-.3.54-.45.81-.21.36-.41.71-.63,1.05h0c-.43.7-.89,1.36-1.38,1.99-.24.31-.49.62-.75.91h0c-.27.31-.54.59-.81.86-.69.69-1.44,1.31-2.25,1.86-.48.32-.99.61-1.52.88-1.42.69-3.03,1.15-4.84,1.31-.46.04-.91.06-1.35.06-1.5,0-2.88-.23-4.14-.63-.25-.08-.49-.17-.74-.26-.49-.2-.96-.42-1.42-.66-.23-.12-.45-.25-.66-.38h-.01c-.22-.14-.43-.28-.65-.42-.21-.15-.43-.3-.63-.46-.21-.16-.41-.32-.6-.48h0c-.2-.18-.39-.34-.58-.52h-.01c-.19-.18-.38-.36-.56-.54-.19-.18-.38-.37-.56-.57-.36-.39-.71-.79-1.06-1.21-.68-.84-1.33-1.73-1.94-2.65-.46-.69-.91-1.4-1.34-2.12-.14-.24-.28-.48-.42-.72-.99-1.69-1.92-3.42-2.83-5.07-2.26-4.08-4.3-8.89-6.05-14.18-2.92-8.8-5.08-18.91-6.24-29.14-.08-.68-.15-1.36-.22-2.05-.14-1.36-.26-2.73-.36-4.09-.25-3.41-.39-6.81-.41-10.15-.02-3.59.1-7.13.38-10.53,2.05-.44,4.11-.87,6.18-1.3,11.4-2.4,23.12-4.86,35.52-7.47.9-.19,1.81-.38,2.72-.57,2.72-.57,5.48-1.15,8.28-1.74.11,1,.23,1.96.35,2.93.14,1.16.28,2.31.42,3.43.29,2.25.57,4.43.84,6.56.4,3.2.77,6.28,1.07,9.32.2,2.02.36,4.03.48,6.04.17,2.92.26,5.83.26,8.73Z"/><path class="cls-4" d="M643.02,443.87c-2.8.59-5.56,1.17-8.28,1.74,2.72-.58,5.48-1.16,8.28-1.74Z"/><path class="cls-4" d="M578.92,460.1s-.01.07-.01.1c-.07.61-.13,1.22-.19,1.83-.06.61-.13,1.22-.2,1.86-.21,1.97-1.95,3.44-4.02,3.44h-.18c-7.93-.47-15.61-.83-23.24-1.71-1.8-.19-3.34-2.95-4.98-4.53,1.94-1.69,3.77-4.73,5.81-4.86,3.6-.22,7.21-.3,10.94-.31h2.81c.53,0,1.07.01,1.61.01s1.07,0,1.62.01c.44.01.88.01,1.32.01.55.01,1.11.01,1.67.01.22,0,.44,0,.66,0,.79.01,1.58.02,2.38.02,2.33.02,4.16,1.91,4,4.11Z"/><path class="cls-4" d="M574.32,467.33h-.05c-2.16-.12-4.31-.23-6.44-.35-2.02-.11-4.02-.22-6.01-.35-.77-.05-1.53-.1-2.3-.15-1.54-.11-3.06-.22-4.59-.35-.76-.06-1.52-.13-2.28-.2-1.02-.1-2.03-.2-3.04-.31-.88-.09-1.7-.73-2.5-1.56-.06-.06-.12-.12-.17-.18-.07-.06-.12-.12-.18-.18-.08-.09-.16-.18-.22-.27-.08-.1-.14-.19-.2-.29-.12-.2-.22-.4-.3-.61-.08-.21-.14-.43-.18-.65-.04-.22-.06-.44-.06-.66,0-.15.01-.29.03-.44,0-.09.02-.19.05-.29,0-.06.02-.12.03-.17.07-.28.17-.56.31-.82.08-.17.18-.32.29-.47.11-.16.23-.3.36-.44h.01c.14-.15.29-.3.44-.44,1.03-1.03,2.07-1.85,3.16-1.91,4.07-.25,8.14-.32,12.37-.32-3.73.01-7.34.09-10.94.31-2.04.13-3.87,3.17-5.81,4.86,1.64,1.58,3.18,4.34,4.98,4.53,7.63.88,15.31,1.24,23.24,1.71Z"/><path class="cls-4" d="M733.27,393.12c0,.24-.02.48-.05.73-.03.24-.08.48-.14.73t-.01.02c-.03.12-.07.24-.11.36-.21.65-.51,1.29-.85,1.93-.09.16-.18.31-.27.47-.3.51-.62,1.01-.94,1.5-.23.34-.45.66-.67.99h0c-.33.5-.66.98-1,1.46h0c-.33.5-.68.98-1.02,1.46-.35.48-.7.96-1.05,1.43h0c-.36.48-.72.95-1.08,1.42-1.6,2.06-3.28,4.05-5.07,5.91h0c-.51.54-1.02,1.06-1.54,1.58-.52.52-1.03,1.04-1.56,1.55-1.04,1.02-2.1,2.02-3.17,3-9.3,8.47-19.6,15.38-30.69,21.28-5.44,2.89-11.06,5.55-16.86,8.02-1.16.49-2.33.98-3.5,1.46-2.34.96-4.71,1.89-7.11,2.8-.02-.1-.04-.19-.07-.29-.13-.55-.27-1.09-.39-1.61-.25-1.05-.49-2.03-.72-2.98-.12-.48-.23-.94-.34-1.4-.3-1.22-.59-2.4-.87-3.57.8-.64,1.4-1.21,1.98-1.69.41-.34.8-.64,1.23-.86,4.62-2.33,9.31-4.55,13.97-6.81,4.5-2.19,8.99-4.41,13.38-6.82,1.2-.66,2.41-1.33,3.6-2.03,11.33-6.57,21.38-14.81,29.29-25.3.45-.59.88-1.19,1.31-1.79.23-.33.47-.66.7-1,.44-.63.87-1.27,1.29-1.92.33-.51.67-1.02,1.02-1.52.27-.38.54-.74.82-1.09.28-.34.57-.67.87-.97.6-.61,1.24-1.11,1.94-1.44.81-.38,1.69-.53,2.68-.33.1.02.21.05.31.08.19.06.39.12.59.2.08.03.16.07.25.11h.01c.14.07.28.14.43.22h.01c.14.08.29.17.44.26t.01,0c.15.1.3.2.45.31.17.12.34.24.49.36.16.12.3.25.43.37.26.25.49.5.68.76.19.26.35.52.48.78.12.27.22.53.29.8.09.35.13.71.13,1.07Z"/><path class="cls-4" d="M729.42,388.18h0c-.09-.03-.17-.07-.25-.1.08.03.17.06.25.1Z"/><path class="cls-4" d="M729.86,388.4h0c-.15-.07-.29-.14-.43-.21.14.06.29.13.43.21Z"/><path class="cls-4" d="M730.31,388.66h0c-.15-.08-.3-.17-.44-.25.15.07.29.16.44.25Z"/><path class="cls-4" d="M731.26,389.34c-.15-.12-.32-.24-.49-.36-.15-.11-.3-.21-.45-.31.15.09.31.19.46.3.17.12.33.24.48.37Z"/><path class="cls-4" d="M726.49,464.62c0,1.95-.06,3.86-.19,5.74-.05.63-.1,1.25-.16,1.87s-.13,1.24-.21,1.86c-.11.92-.25,1.84-.41,2.74-.16.91-.34,1.82-.54,2.71-.2.91-.43,1.82-.68,2.72-.25.91-.53,1.8-.84,2.69-.18.54-.37,1.07-.58,1.6-.21.53-.42,1.06-.65,1.58-.53,1.24-1.08,2.37-1.66,3.39-.2.34-.4.67-.59.99-.4.62-.81,1.2-1.23,1.73-.42.53-.85,1.01-1.3,1.44-.43.43-.89.81-1.36,1.15-.47.33-.95.61-1.43.84-.49.23-.99.41-1.5.54-.5.12-1.02.2-1.55.23-.04,0-.08.01-.11.01h-.01c-1.12.04-2.28-.14-3.48-.54-.22-.08-.43-.16-.65-.25-.44-.18-.89-.38-1.34-.62-.68-.36-1.37-.78-2.07-1.27-.24-.17-.47-.34-.7-.51-.95-.71-1.91-1.55-2.9-2.5-.28-.27-.55-.55-.83-.82-.27-.28-.54-.57-.8-.85-3.07-3.26-5.75-6.97-8.55-10.79-1.26-1.72-2.54-3.46-3.9-5.2,11.08-5.91,21.26-11.35,32.11-17.13,1.25-.67,2.51-1.34,3.78-2.02.42-.23.85-.45,1.28-.68.85-.45,1.7-.91,2.56-1.37h0c.05.59.09,1.16.14,1.73h0c.04.58.08,1.14.11,1.71.04.57.07,1.13.1,1.7.03.56.05,1.11.07,1.67v.13c.05,1.27.07,2.53.07,3.78Z"/><path class="cls-4" d="M726.14,455.63c-.05-.57-.09-1.14-.14-1.72h0s0,0,.01,0c.05.58.09,1.16.13,1.73Z"/><path class="cls-4" d="M359.63,1381.74c-13.19-16.84-30.45-24.35-51.41-18.59-23.72,6.5-41.94,20.85-53.64,42.88-1.15,2.18-1.68,4.93-3.35,6.51-1.55,1.45-4.6,2.74-6.31,2.14-1.77-.61-3.77-3.58-3.77-5.52,0-3.14.77-6.85,2.56-9.35,6.47-9,12.77-18.3,20.51-26.14,6.55-6.66,15-11.45,22.61-17.08-.48-18.58-9.06-54.44-16.82-69.65-9.29,7.03-18.61,13.84-27.66,21.01-6.68,5.31-13.45,5.72-20.59,1.53-19.37-11.32-29.8-28.14-30.5-50.64-.23-7.32,2.03-13.55,8.68-18.09,7.5-5.13,14.42-11.13,21.43-16.92,2.39-1.97,4.34-4.48,6.43-6.69-9.43-9.95-18.25-15.11-30.09-17.96-39.3-9.5-78.24,12.37-92.68,51.96-3.68,10.08-4.35,20.14-.77,30.35,13.69,39.01,27.58,77.97,48.06,114.11,13.9,24.53,29.12,48.15,49.49,68,14.17,13.82,30.37,24.58,50.06,28.27,26.93,5.06,54.1,6.29,81.55,4.11,15.93-1.26,24.85-9.45,29.93-23.54,7.27-20.17,10-40.93,7.66-62.25-1.15-10.47-4.87-20.16-11.39-28.46Z"/><path class="cls-5" d="M215.18,583.49s.04-.04.06-.04c.03-.04.07-.07.11-.09-.06.04-.11.08-.17.13ZM215.69,583.13s.01-.02.02-.02c-.05.03-.11.07-.16.11.04-.04.09-.07.14-.09ZM215.39,583.34s.04-.04.07-.06c-.04.02-.07.05-.11.08.01-.01.02-.02.04-.02ZM215.24,583.45s.07-.07.11-.09c-.06.04-.11.08-.17.13.02-.02.04-.04.06-.04Z"/></g><g id="YEUX"><path class="cls-5" d="M141.46,345.14c-6.85,5.12-15.18,9.43-23.55,9.2-8.36-.25-15.9-5.27-22.41-14.93-4.47-6.63-5.78-13.46-4.02-20.89,1.84-7.74,6.79-15.11,12.66-21.56-3.43,10.66-2.04,21.24,4.19,31.17,6.04,9.62,13.83,15.3,23.14,16.88,3.43.59,6.79.56,9.99.13Z"/><path class="cls-2" d="M164.63,328.67c-1.65-1.58-4.22-1.7-6.01-.28-.02.02-.39.31-1.07.78-3.32,2.3-13.85,8.79-24.53,6.97-6.63-1.12-12.33-5.42-16.95-12.76-3.29-5.25-4.62-10.36-4.62-15.18,0-14.2,11.47-25.9,17.87-31.32h0c2.23-1.88,3.84-3,4.12-3.2,2-1.37,2.56-4.06,1.26-6.1-1.3-2.04-3.99-2.71-6.11-1.51-.21.12-1.03.58-2.32,1.38h0c-8.62,5.29-37.88,24.84-43.63,49-2.33,9.85-.56,19.25,5.31,27.95,8.24,12.23,18.24,18.6,29.74,18.93.3.01.61.02.91.02,10.12,0,19.7-4.76,27.51-10.42h.01c8.28-5.99,14.56-12.97,17.37-16.33.93-1.1,1.48-1.82,1.61-1.99,1.38-1.81,1.18-4.36-.45-5.94ZM117.91,354.34c-8.36-.25-15.9-5.27-22.41-14.93-4.47-6.63-5.78-13.46-4.02-20.89,1.84-7.74,6.79-15.11,12.66-21.56-3.43,10.66-2.04,21.24,4.19,31.17,6.04,9.62,13.83,15.3,23.14,16.88,3.43.59,6.79.56,9.99.13-6.85,5.12-15.18,9.43-23.55,9.2Z"/><path class="cls-5" d="M384.11,74.69c-23.28-12.95-48.48-19.53-73.69-19.53-14.61,0-29.21,2.21-43.44,6.67-38.76,12.17-70.09,39.62-88.23,77.3-18.17,37.78-20.9,81.31-7.67,122.57,22.4,69.89,85.41,115.26,151.63,115.26,14.36,0,28.88-2.13,43.17-6.62,38.77-12.16,70.1-39.61,88.23-77.29,18.17-37.79,20.9-81.31,7.68-122.57-13.23-41.26-40.81-75.28-77.67-95.79ZM290.17,190.03c-16.72,0-30.32-13.46-30.32-30s13.6-30,30.32-30,30.32,13.46,30.32,30-13.6,30-30.32,30Z"/><path class="cls-5" d="M481.88,153.05c-8.36-22.97-20.94-43.66-36.96-61.23-16.02-17.57-35.48-32.01-57.61-42.47-11.53-5.45-23.42-9.65-35.52-12.59-14.12-3.44-28.51-5.16-42.93-5.16-20.64,0-41.32,3.53-61.29,10.65-2.05.73-4.07,1.49-6.07,2.29-34.89,13.83-63.18,37.46-82.86,66.59-31.48,46.57-40.95,107.19-20.18,164.27,27.18,74.68,98.14,121.37,173.31,121.37,8.76,0,17.58-.63,26.39-1.94,11.59-1.7,23.18-4.55,34.61-8.62,45.85-16.34,82.46-49.58,103.07-93.61,20.62-44.04,22.76-93.6,6.04-139.55ZM462.32,296.92c-19.22,39.95-52.5,69.07-93.69,82-15.19,4.77-30.64,7.04-45.91,7.04-.96,0-1.92-.01-2.88-.03-.39,0-.79-.02-1.18-.03-.39,0-.78-.02-1.17-.04-.62-.02-1.22-.04-1.84-.07-1.04-.04-2.07-.1-3.1-.17-.81-.05-1.61-.1-2.41-.17-.05,0-.1,0-.14,0-1.01-.09-2.03-.18-3.04-.29-1.07-.11-2.13-.23-3.2-.36-.6-.07-1.19-.15-1.79-.23-.8-.1-1.6-.22-2.4-.34-.9-.13-1.81-.28-2.71-.43-.36-.06-.73-.12-1.08-.19-.7-.12-1.39-.24-2.09-.38-.23-.04-.45-.08-.69-.14-.89-.16-1.79-.34-2.68-.53-2.99-.63-5.97-1.35-8.92-2.16-.4-.1-.8-.21-1.2-.33-1.35-.38-2.7-.77-4.03-1.19-.43-.13-.88-.26-1.31-.41-1.03-.32-2.04-.66-3.06-1-.42-.14-.85-.29-1.27-.45-.82-.28-1.64-.57-2.45-.87-.83-.3-1.65-.6-2.48-.93-1.25-.48-2.5-.98-3.74-1.49-.72-.29-1.44-.6-2.15-.91-.31-.13-.63-.27-.94-.41-.77-.33-1.55-.67-2.3-1.02-.25-.12-.51-.23-.75-.35-.59-.26-1.18-.54-1.76-.82-1.5-.71-2.97-1.44-4.45-2.2-.52-.25-1.02-.52-1.53-.79-.21-.11-.42-.22-.63-.33-.6-.31-1.19-.63-1.78-.96-1.32-.72-2.65-1.46-3.95-2.22-.74-.43-1.48-.86-2.2-1.31-1.34-.8-2.68-1.62-4-2.48-.58-.36-1.14-.73-1.72-1.11-.27-.17-.55-.35-.82-.54-.7-.46-1.38-.92-2.08-1.41-.1-.06-.2-.13-.3-.2-.73-.5-1.45-1-2.16-1.52-.34-.24-.69-.48-1.02-.73-.48-.34-.94-.68-1.41-1.03-.37-.28-.75-.56-1.12-.84-.79-.57-1.57-1.17-2.33-1.77-.53-.41-1.05-.82-1.58-1.25-2.74-2.17-5.43-4.45-8.05-6.81-.31-.28-.64-.56-.94-.86-.07-.05-.14-.12-.21-.19-.27-.25-.56-.5-.83-.77-.05-.03-.1-.08-.14-.13-.47-.43-.94-.86-1.39-1.3-.31-.29-.62-.59-.92-.89-.48-.45-.96-.92-1.43-1.39-.69-.67-1.36-1.35-2.04-2.04-.5-.51-1-1.03-1.5-1.55-.9-.94-1.8-1.89-2.68-2.86-.33-.37-.67-.73-.99-1.1-.05-.04-.08-.08-.11-.12-.42-.46-.85-.93-1.25-1.41-.51-.57-1-1.14-1.49-1.72-.43-.5-.88-1.02-1.3-1.53-.15-.18-.29-.35-.44-.53-.63-.75-1.24-1.51-1.85-2.28-2.44-3.03-4.77-6.14-7-9.35-.37-.52-.74-1.04-1.09-1.57-.87-1.26-1.71-2.53-2.53-3.82-.39-.6-.78-1.2-1.15-1.8-.1-.14-.19-.29-.27-.43-.42-.67-.84-1.34-1.25-2.02-.55-.9-1.08-1.8-1.61-2.71-.25-.43-.51-.86-.75-1.3-.27-.47-.55-.94-.81-1.41-.28-.51-.57-1.02-.84-1.54-1.02-1.85-2-3.72-2.95-5.61-.42-.85-.85-1.71-1.26-2.57-.26-.54-.53-1.09-.77-1.64-.33-.69-.66-1.39-.97-2.08-.08-.17-.16-.34-.23-.51-.37-.81-.73-1.64-1.09-2.47-.33-.76-.66-1.53-.97-2.3-.25-.6-.51-1.21-.75-1.82-.05-.11-.09-.22-.13-.33-.26-.65-.53-1.3-.78-1.95-.45-1.18-.9-2.36-1.33-3.56-.41-1.12-.82-2.25-1.2-3.39-.39-1.14-.77-2.29-1.14-3.44-.73-2.26-1.4-4.53-2.04-6.81-.28-1.02-.57-2.05-.83-3.08-.18-.68-.35-1.36-.52-2.05-.18-.72-.35-1.44-.53-2.16-.23-.99-.46-1.99-.68-2.98-.25-1.15-.49-2.29-.71-3.44-.21-1.03-.4-2.07-.59-3.1-.05-.27-.1-.55-.14-.83-.1-.54-.19-1.08-.27-1.62-.1-.61-.2-1.22-.29-1.83-.49-3.1-.88-6.2-1.19-9.3-.05-.51-.1-1.02-.15-1.54-.06-.65-.11-1.29-.16-1.94-.04-.32-.06-.65-.08-.98-.04-.5-.07-.99-.11-1.49-.09-1.4-.17-2.79-.23-4.19-.03-.84-.06-1.69-.09-2.53-.08-2.81-.09-5.61-.04-8.4.02-1.11.05-2.21.09-3.31.03-.83.07-1.65.11-2.48.13-2.47.31-4.94.55-7.41.09-.88.18-1.77.27-2.65.03-.25.05-.5.09-.75.24-2.13.53-4.25.85-6.37.08-.53.16-1.06.25-1.59.08-.52.17-1.03.26-1.54.26-1.52.55-3.03.84-4.54,0-.05.02-.1.03-.15.15-.72.3-1.44.45-2.17.17-.83.36-1.66.56-2.48.22-.98.45-1.95.7-2.93.24-.94.49-1.89.74-2.83.05-.22.11-.44.17-.65.17-.65.35-1.3.55-1.95.79-2.79,1.66-5.57,2.6-8.32.14-.43.29-.85.44-1.28,1.22-3.52,2.58-6.99,4.04-10.43.15-.35.29-.69.43-1.03.88-2.03,1.8-4.04,2.76-6.03,19.21-39.96,52.49-69.08,93.68-82.01,1.58-.5,3.16-.97,4.76-1.4.5-.15,1.01-.29,1.52-.42.88-.24,1.76-.47,2.64-.69.84-.21,1.67-.41,2.51-.6.9-.21,1.81-.41,2.71-.6.1-.03.21-.05.32-.07.91-.19,1.82-.38,2.73-.55.67-.13,1.33-.26,2-.37.14-.03.27-.05.41-.07.6-.11,1.18-.21,1.78-.3.32-.06.65-.12.97-.16.32-.05.65-.11.97-.15,2.77-.42,5.55-.76,8.34-1.03,6.24-.59,12.48-.8,18.73-.63.7.02,1.39.04,2.09.07.69.03,1.38.06,2.08.1.56.03,1.11.06,1.68.1.67.04,1.34.09,2.01.15.36.02.73.05,1.09.08.48.04.95.08,1.43.13,2.12.2,4.24.44,6.37.74.66.09,1.3.18,1.96.28,1.37.2,2.76.42,4.13.67.57.1,1.13.2,1.7.31,1.71.32,3.41.67,5.1,1.05.76.16,1.51.34,2.26.52.81.19,1.6.38,2.4.59.03,0,.06,0,.09.02.72.18,1.44.37,2.15.57.73.2,1.47.4,2.19.61,1.98.56,3.96,1.16,5.93,1.81.45.15.9.3,1.35.45.22.07.44.15.68.23.65.21,1.28.44,1.92.67.23.08.45.16.69.25.62.22,1.23.44,1.85.68.03.01.06.02.08.03.72.27,1.43.54,2.14.82,1.12.43,2.23.88,3.35,1.35.51.21,1.02.43,1.53.65,5.31,2.27,10.55,4.84,15.7,7.7,38.88,21.64,67.96,57.48,81.88,100.92,13.93,43.44,11.04,89.31-8.13,129.16Z"/><path class="cls-2" d="M388.57,66.84c-38.98-21.69-83.14-26.51-124.34-13.59-41.2,12.93-74.47,42.05-93.68,82.01-19.17,39.85-22.06,85.72-8.14,129.16,23.63,73.72,90.23,121.54,160.31,121.54,15.27,0,30.72-2.27,45.91-7.04,41.2-12.93,74.47-42.05,93.69-82,19.16-39.85,22.05-85.72,8.13-129.16-13.92-43.44-43-79.28-81.88-100.92ZM454.11,293.05c-18.12,37.68-49.45,65.13-88.23,77.29-14.29,4.49-28.81,6.62-43.17,6.62-66.22,0-129.23-45.37-151.63-115.26-13.23-41.26-10.5-84.79,7.67-122.57,18.13-37.68,49.46-65.13,88.23-77.3,14.23-4.46,28.84-6.67,43.44-6.67,25.21,0,50.41,6.58,73.69,19.53,36.86,20.51,64.44,54.53,77.67,95.79,13.22,41.26,10.49,84.78-7.68,122.57Z"/><path class="cls-2" d="M490.43,150c-17.54-48.19-52.77-86.82-99.2-108.77-10.74-5.08-21.78-9.12-33.01-12.13-37.34-10-76.7-8.51-113.73,4.68-8.37,2.98-16.4,6.49-24.08,10.49-19.01,9.88-35.79,22.7-49.97,37.69-45.47,48.06-64.17,118.37-44.19,185.48.94,3.15,1.96,6.29,3.07,9.42.18.53.37,1.06.57,1.59,6.79,18.66,16.19,35.66,27.64,50.72,1.91,2.53,3.89,5.01,5.93,7.43,36.71,43.66,91.35,69.18,148.3,69.17,13.66,0,27.48-1.47,41.2-4.52,7.66-1.7,15.29-3.89,22.86-6.58,25.33-9.02,47.96-22.95,66.88-40.85,17.06-16.14,31.1-35.51,41.37-57.43,6.74-14.39,11.59-29.34,14.56-44.57,6.56-33.65,3.86-68.64-8.22-101.82ZM475.84,292.6c-20.62,44.03-57.23,77.27-103.07,93.61-11.43,4.07-23.01,6.92-34.61,8.62-8.81,1.31-17.63,1.94-26.39,1.94-75.17,0-146.13-46.69-173.31-121.37-20.77-57.08-11.3-117.7,20.18-164.27,19.68-29.13,47.97-52.76,82.86-66.59,2-.8,4.02-1.56,6.07-2.29,19.97-7.12,40.65-10.65,61.29-10.65,14.41,0,28.81,1.72,42.93,5.16,12.1,2.94,23.98,7.14,35.52,12.59,22.13,10.46,41.59,24.9,57.61,42.47,16.02,17.57,28.6,38.26,36.96,61.23,16.72,45.95,14.57,95.51-6.04,139.55Z"/><path class="cls-3" d="M498.65,251.82c-13.52,40.67-35.19,75.34-55.93,102-29.31,37.69-56.77,59.37-56.77,59.37l-.06-.26s-13.02-3.51-32.91-11.68c-4.6-1.89-9.56-4.02-14.82-6.42-5.78-2.64-11.92-5.6-18.3-8.9h-.01c-6.28-3.23-12.79-6.79-19.45-10.69-51.9-30.4-112.79-81.6-137.53-162.03t-.01-.02c-.7-2.25-1.36-4.54-2-6.84-1.27-4.5-2.42-9.1-3.4-13.79-.66-3.15-1.23-6.29-1.73-9.42h0c-4.11-25.85-2.82-50.65,2.91-72.01,2.87-10.69,6.84-20.52,11.81-29.17,11.23-19.58,27.49-33.16,47.36-37.22.87-.18,1.74-.34,2.61-.47,7.02-1.13,14.09-1,21.08.27,7.96,1.42,15.83,4.32,23.42,8.5,3.46,1.91,6.85,4.08,10.18,6.5,26.45,19.25,48.33,54.36,57.3,97.15-7.57-36.56-4.22-71.66,7.28-98.56,1.22-2.89,2.56-5.69,3.97-8.38,2.46-4.65,5.18-9,8.15-12.99,2.03-2.72,4.17-5.28,6.43-7.66,9.63-10.18,21.31-17.15,34.59-19.86,48.31-9.87,99.63,40.3,114.62,112.07.97,4.69,1.77,9.36,2.4,13.99,6.06,42.4.44,81.67-11.17,116.52Z"/><path class="cls-5" d="M405.09,8c44.44,0,88.61,47.6,102.33,113.31.97,4.69,1.77,9.36,2.4,13.99,6.06,42.4.44,81.67-11.17,116.52-13.52,40.67-35.19,75.34-55.93,102-29.31,37.69-56.77,59.37-56.77,59.37l-.06-.26s-13.02-3.51-32.91-11.68c-4.6-1.89-9.56-4.02-14.82-6.42-5.78-2.64-11.92-5.6-18.3-8.9h-.01c-6.28-3.23-12.79-6.79-19.45-10.69-51.9-30.4-112.79-81.6-137.53-162.03t-.01-.02c-.7-2.25-1.36-4.54-2-6.84-1.27-4.5-2.42-9.1-3.4-13.79-.66-3.15-1.23-6.29-1.73-9.42h0c-4.11-25.85-2.82-50.65,2.91-72.01,2.87-10.69,6.84-20.52,11.81-29.17,11.23-19.58,27.49-33.16,47.36-37.22.87-.18,1.74-.34,2.61-.47,3.22-.52,6.45-.77,9.68-.77,3.81,0,7.62.35,11.41,1.04,7.96,1.42,15.83,4.32,23.42,8.5,3.46,1.91,6.85,4.08,10.18,6.5,26.45,19.25,48.33,54.36,57.3,97.15-7.57-36.56-4.22-71.66,7.28-98.56,1.22-2.89,2.56-5.69,3.97-8.38,2.46-4.65,5.18-9,8.15-12.99,2.03-2.72,4.17-5.28,6.43-7.66,9.63-10.18,21.31-17.15,34.59-19.86,4.08-.83,8.18-1.24,12.28-1.24M405.09,0h0c-4.66,0-9.34.47-13.89,1.4-14.63,2.99-27.68,10.45-38.8,22.2-2.43,2.57-4.8,5.38-7.03,8.37-3.18,4.28-6.15,9-8.81,14.04-1.56,2.96-2.99,5.98-4.27,9-6.08,14.23-9.88,30.1-11.33,46.85-1.22-2.26-2.49-4.49-3.81-6.69-10.35-17.29-23.27-31.85-37.36-42.11-3.58-2.61-7.29-4.98-11.02-7.03-8.48-4.67-17.19-7.82-25.88-9.37-4.25-.77-8.57-1.17-12.81-1.17-3.65,0-7.32.29-10.91.87-.95.14-1.93.32-3,.54-21.58,4.41-39.8,18.61-52.68,41.07-5.3,9.23-9.53,19.69-12.59,31.08-6.18,23.03-7.25,49.03-3.11,75.18,0,.05.01.1.02.15.51,3.24,1.12,6.54,1.8,9.8.99,4.73,2.18,9.55,3.53,14.34.67,2.41,1.36,4.79,2.06,7.03.02.07.05.15.07.22,11.6,37.58,31.89,72.12,60.3,102.65,22.26,23.92,49.43,45.36,80.76,63.71,6.52,3.81,13.19,7.48,19.83,10.9.08.04.16.08.24.12,6.03,3.11,12.23,6.12,18.42,8.95,4.89,2.23,9.97,4.44,15.1,6.54,16.07,6.6,27.71,10.22,32.04,11.48.42.24.86.44,1.33.61.86.3,1.75.45,2.64.45,1.77,0,3.53-.59,4.96-1.72,1.15-.91,28.56-22.72,58.13-60.74,26.07-33.52,45.32-68.64,57.21-104.39,13.31-39.95,17.18-80.38,11.5-120.15-.65-4.8-1.49-9.68-2.48-14.51-6.89-32.98-21.65-63.18-41.57-85.06C453.36,12.3,429,0,405.09,0h0Z"/><path class="cls-5" d="M290.17,94.43c-11.7,0-21.23,9.42-21.23,21s9.52,21,21.23,21,21.23-9.42,21.23-21-9.52-21-21.23-21Z"/><path class="cls-2" d="M290.17,85.43c-16.72,0-30.32,13.46-30.32,30s13.6,30,30.32,30,30.32-13.46,30.32-30-13.6-30-30.32-30ZM290.17,136.43c-11.7,0-21.23-9.42-21.23-21s9.52-21,21.23-21,21.23,9.42,21.23,21-9.52,21-21.23,21Z"/></g></svg>