<?xml version="1.0" encoding="UTF-8"?><svg id="Calque_2" xmlns="http://www.w3.org/2000/svg" viewBox="0 0 438.65 421.19"><defs><style>.cls-1{fill:#202529;}.cls-1,.cls-2,.cls-3{stroke-width:0px;}.cls-2{fill:#c92d2d;}.cls-3{fill:#fff;}</style></defs><g id="YEUX"><path class="cls-1" d="M82.99,328.67c-1.65-1.58-4.22-1.7-6.01-.28-.02.02-.39.31-1.07.78-3.32,2.3-13.85,8.79-24.53,6.97-6.63-1.12-12.33-5.42-16.95-12.76-3.29-5.25-4.62-10.36-4.62-15.18,0-14.2,11.47-25.9,17.87-31.32h0c2.23-1.88,3.84-3,4.12-3.2,2-1.37,2.56-4.06,1.26-6.1-1.3-2.04-3.99-2.71-6.11-1.51-.21.12-1.03.58-2.32,1.38h0c-8.62,5.29-37.88,24.84-43.63,49-2.33,9.85-.56,19.25,5.31,27.95,8.24,12.23,18.24,18.6,29.74,18.93.3.01.61.02.91.02,10.12,0,19.7-4.76,27.51-10.42h.01c8.28-5.99,14.56-12.97,17.37-16.33.93-1.1,1.48-1.82,1.61-1.99,1.38-1.81,1.18-4.36-.45-5.94ZM36.28,354.34c-8.36-.25-15.9-5.27-22.41-14.93-4.47-6.63-5.78-13.46-4.02-20.89,1.84-7.74,6.79-15.11,12.66-21.56-3.43,10.66-2.04,21.24,4.19,31.17,6.04,9.62,13.83,15.3,23.14,16.88,3.43.59,6.79.56,9.99.13-6.85,5.12-15.18,9.43-23.55,9.2Z"/><path class="cls-3" d="M302.48,74.69c-23.28-12.95-48.48-19.53-73.69-19.53-14.61,0-29.21,2.21-43.44,6.67-38.76,12.17-70.09,39.62-88.23,77.3-18.17,37.78-20.9,81.31-7.67,122.57,22.4,69.89,85.41,115.26,151.63,115.26,14.36,0,28.88-2.13,43.17-6.62,38.77-12.16,70.1-39.61,88.23-77.29,18.17-37.79,20.9-81.31,7.68-122.57-13.23-41.26-40.81-75.28-77.67-95.79ZM208.54,190.03c-16.72,0-30.32-13.46-30.32-30s13.6-30,30.32-30,30.32,13.46,30.32,30-13.6,30-30.32,30Z"/><path class="cls-3" d="M400.25,153.05c-8.36-22.97-20.94-43.66-36.96-61.23-16.02-17.57-35.48-32.01-57.61-42.47-11.53-5.45-23.42-9.65-35.52-12.59-14.12-3.44-28.51-5.16-42.93-5.16-20.64,0-41.32,3.53-61.29,10.65-2.05.73-4.07,1.49-6.07,2.29-34.89,13.83-63.18,37.46-82.86,66.59-31.48,46.57-40.95,107.19-20.18,164.27,27.18,74.68,98.14,121.37,173.31,121.37,8.76,0,17.58-.63,26.39-1.94,11.59-1.7,23.18-4.55,34.61-8.62,45.85-16.34,82.46-49.58,103.07-93.61,20.62-44.04,22.76-93.6,6.04-139.55ZM380.69,296.92c-19.22,39.95-52.5,69.07-93.69,82-15.19,4.77-30.64,7.04-45.91,7.04-.96,0-1.92-.01-2.88-.03-.39,0-.79-.02-1.18-.03-.39,0-.78-.02-1.17-.04-.62-.02-1.22-.04-1.84-.07-1.04-.04-2.07-.1-3.1-.17-.81-.05-1.61-.1-2.41-.17-.05,0-.1,0-.14,0-1.01-.09-2.03-.18-3.04-.29-1.07-.11-2.13-.23-3.2-.36-.6-.07-1.19-.15-1.79-.23-.8-.1-1.6-.22-2.4-.34-.9-.13-1.81-.28-2.71-.43-.36-.06-.73-.12-1.08-.19-.7-.12-1.39-.24-2.09-.38-.23-.04-.45-.08-.69-.14-.89-.16-1.79-.34-2.68-.53-2.99-.63-5.97-1.35-8.92-2.16-.4-.1-.8-.21-1.2-.33-1.35-.38-2.7-.77-4.03-1.19-.43-.13-.88-.26-1.31-.41-1.03-.32-2.04-.66-3.06-1-.42-.14-.85-.29-1.27-.45-.82-.28-1.64-.57-2.45-.87-.83-.3-1.65-.6-2.48-.93-1.25-.48-2.5-.98-3.74-1.49-.72-.29-1.44-.6-2.15-.91-.31-.13-.63-.27-.94-.41-.77-.33-1.55-.67-2.3-1.02-.25-.12-.51-.23-.75-.35-.59-.26-1.18-.54-1.76-.82-1.5-.71-2.97-1.44-4.45-2.2-.52-.25-1.02-.52-1.53-.79-.21-.11-.42-.22-.63-.33-.6-.31-1.19-.63-1.78-.96-1.32-.72-2.65-1.46-3.95-2.22-.74-.43-1.48-.86-2.2-1.31-1.34-.8-2.68-1.62-4-2.48-.58-.36-1.14-.73-1.72-1.11-.27-.17-.55-.35-.82-.54-.7-.46-1.38-.92-2.08-1.41-.1-.06-.2-.13-.3-.2-.73-.5-1.45-1-2.16-1.52-.34-.24-.69-.48-1.02-.73-.48-.34-.94-.68-1.41-1.03-.37-.28-.75-.56-1.12-.84-.79-.57-1.57-1.17-2.33-1.77-.53-.41-1.05-.82-1.58-1.25-2.74-2.17-5.43-4.45-8.05-6.81-.31-.28-.64-.56-.94-.86-.07-.05-.14-.12-.21-.19-.27-.25-.56-.5-.83-.77-.05-.03-.1-.08-.14-.13-.47-.43-.94-.86-1.39-1.3-.31-.29-.62-.59-.92-.89-.48-.45-.96-.92-1.43-1.39-.69-.67-1.36-1.35-2.04-2.04-.5-.51-1-1.03-1.5-1.55-.9-.94-1.8-1.89-2.68-2.86-.33-.37-.67-.73-.99-1.1-.05-.04-.08-.08-.11-.12-.42-.46-.85-.93-1.25-1.41-.51-.57-1-1.14-1.49-1.72-.43-.5-.88-1.02-1.3-1.53-.15-.18-.29-.35-.44-.53-.63-.75-1.24-1.51-1.85-2.28-2.44-3.03-4.77-6.14-7-9.35-.37-.52-.74-1.04-1.09-1.57-.87-1.26-1.71-2.53-2.53-3.82-.39-.6-.78-1.2-1.15-1.8-.1-.14-.19-.29-.27-.43-.42-.67-.84-1.34-1.25-2.02-.55-.9-1.08-1.8-1.61-2.71-.25-.43-.51-.86-.75-1.3-.27-.47-.55-.94-.81-1.41-.28-.51-.57-1.02-.84-1.54-1.02-1.85-2-3.72-2.95-5.61-.42-.85-.85-1.71-1.26-2.57-.26-.54-.53-1.09-.77-1.64-.33-.69-.66-1.39-.97-2.08-.08-.17-.16-.34-.23-.51-.37-.81-.73-1.64-1.09-2.47-.33-.76-.66-1.53-.97-2.3-.25-.6-.51-1.21-.75-1.82-.05-.11-.09-.22-.13-.33-.26-.65-.53-1.3-.78-1.95-.45-1.18-.9-2.36-1.33-3.56-.41-1.12-.82-2.25-1.2-3.39-.39-1.14-.77-2.29-1.14-3.44-.73-2.26-1.4-4.53-2.04-6.81-.28-1.02-.57-2.05-.83-3.08-.18-.68-.35-1.36-.52-2.05-.18-.72-.35-1.44-.53-2.16-.23-.99-.46-1.99-.68-2.98-.25-1.15-.49-2.29-.71-3.44-.21-1.03-.4-2.07-.59-3.1-.05-.27-.1-.55-.14-.83-.1-.54-.19-1.08-.27-1.62-.1-.61-.2-1.22-.29-1.83-.49-3.1-.88-6.2-1.19-9.3-.05-.51-.1-1.02-.15-1.54-.06-.65-.11-1.29-.16-1.94-.04-.32-.06-.65-.08-.98-.04-.5-.07-.99-.11-1.49-.09-1.4-.17-2.79-.23-4.19-.03-.84-.06-1.69-.09-2.53-.08-2.81-.09-5.61-.04-8.4.02-1.11.05-2.21.09-3.31.03-.83.07-1.65.11-2.48.13-2.47.31-4.94.55-7.41.09-.88.18-1.77.27-2.65.03-.25.05-.5.09-.75.24-2.13.53-4.25.85-6.37.08-.53.16-1.06.25-1.59.08-.52.17-1.03.26-1.54.26-1.52.55-3.03.84-4.54,0-.05.02-.1.03-.15.15-.72.3-1.44.45-2.17.17-.83.36-1.66.56-2.48.22-.98.45-1.95.7-2.93.24-.94.49-1.89.74-2.83.05-.22.11-.44.17-.65.17-.65.35-1.3.55-1.95.79-2.79,1.66-5.57,2.6-8.32.14-.43.29-.85.44-1.28,1.22-3.52,2.58-6.99,4.04-10.43.15-.35.29-.69.43-1.03.88-2.03,1.8-4.04,2.76-6.03,19.21-39.96,52.49-69.08,93.68-82.01,1.58-.5,3.16-.97,4.76-1.4.5-.15,1.01-.29,1.52-.42.88-.24,1.76-.47,2.64-.69.84-.21,1.67-.41,2.51-.6.9-.21,1.81-.41,2.71-.6.1-.03.21-.05.32-.07.91-.19,1.82-.38,2.73-.55.67-.13,1.33-.26,2-.37.14-.03.27-.05.41-.07.6-.11,1.18-.21,1.78-.3.32-.06.65-.12.97-.16.32-.05.65-.11.97-.15,2.77-.42,5.55-.76,8.34-1.03,6.24-.59,12.48-.8,18.73-.63.7.02,1.39.04,2.09.07.69.03,1.38.06,2.08.1.56.03,1.11.06,1.68.1.67.04,1.34.09,2.01.15.36.02.73.05,1.09.08.48.04.95.08,1.43.13,2.12.2,4.24.44,6.37.74.66.09,1.3.18,1.96.28,1.37.2,2.76.42,4.13.67.57.1,1.13.2,1.7.31,1.71.32,3.41.67,5.1,1.05.76.16,1.51.34,2.26.52.81.19,1.6.38,2.4.59.03,0,.06,0,.09.02.72.18,1.44.37,2.15.57.73.2,1.47.4,2.19.61,1.98.56,3.96,1.16,5.93,1.81.45.15.9.3,1.35.45.22.07.44.15.68.23.65.21,1.28.44,1.92.67.23.08.45.16.69.25.62.22,1.23.44,1.85.68.03.01.06.02.08.03.72.27,1.43.54,2.14.82,1.12.43,2.23.88,3.35,1.35.51.21,1.02.43,1.53.65,5.31,2.27,10.55,4.84,15.7,7.7,38.88,21.64,67.96,57.48,81.88,100.92,13.93,43.44,11.04,89.31-8.13,129.16Z"/><path class="cls-1" d="M306.94,66.84c-38.98-21.69-83.14-26.51-124.34-13.59-41.2,12.93-74.47,42.05-93.68,82.01-19.17,39.85-22.06,85.72-8.14,129.16,23.63,73.72,90.23,121.54,160.31,121.54,15.27,0,30.72-2.27,45.91-7.04,41.2-12.93,74.47-42.05,93.69-82,19.16-39.85,22.05-85.72,8.13-129.16-13.92-43.44-43-79.28-81.88-100.92ZM372.48,293.05c-18.12,37.68-49.45,65.13-88.23,77.29-14.29,4.49-28.81,6.62-43.17,6.62-66.22,0-129.23-45.37-151.63-115.26-13.23-41.26-10.5-84.79,7.67-122.57,18.13-37.68,49.46-65.13,88.23-77.3,14.23-4.46,28.84-6.67,43.44-6.67,25.21,0,50.41,6.58,73.69,19.53,36.86,20.51,64.44,54.53,77.67,95.79,13.22,41.26,10.49,84.78-7.68,122.57Z"/><path class="cls-1" d="M408.8,150c-17.54-48.19-52.77-86.82-99.2-108.77-10.74-5.08-21.78-9.12-33.01-12.13-37.34-10-76.7-8.51-113.73,4.68-8.37,2.98-16.4,6.49-24.08,10.49-19.01,9.88-35.79,22.7-49.97,37.69-45.47,48.06-64.17,118.37-44.19,185.48.94,3.15,1.96,6.29,3.07,9.42.18.53.37,1.06.57,1.59,6.79,18.66,16.19,35.66,27.64,50.72,1.91,2.53,3.89,5.01,5.93,7.43,36.71,43.66,91.35,69.18,148.3,69.17,13.66,0,27.48-1.47,41.2-4.52,7.66-1.7,15.29-3.89,22.86-6.58,25.33-9.02,47.96-22.95,66.88-40.85,17.06-16.14,31.1-35.51,41.37-57.43,6.74-14.39,11.59-29.34,14.56-44.57,6.56-33.65,3.86-68.64-8.22-101.82ZM394.21,292.6c-20.62,44.03-57.23,77.27-103.07,93.61-11.43,4.07-23.01,6.92-34.61,8.62-8.81,1.31-17.63,1.94-26.39,1.94-75.17,0-146.13-46.69-173.31-121.37-20.77-57.08-11.3-117.7,20.18-164.27,19.68-29.13,47.97-52.76,82.86-66.59,2-.8,4.02-1.56,6.07-2.29,19.97-7.12,40.65-10.65,61.29-10.65,14.41,0,28.81,1.72,42.93,5.16,12.1,2.94,23.98,7.14,35.52,12.59,22.13,10.46,41.59,24.9,57.61,42.47,16.02,17.57,28.6,38.26,36.96,61.23,16.72,45.95,14.57,95.51-6.04,139.55Z"/><path class="cls-2" d="M417.02,251.82c-13.52,40.67-35.19,75.34-55.93,102-29.31,37.69-56.77,59.37-56.77,59.37l-.06-.26s-13.02-3.51-32.91-11.68c-4.6-1.89-9.56-4.02-14.82-6.42-5.78-2.64-11.92-5.6-18.3-8.9h-.01c-6.28-3.23-12.79-6.79-19.45-10.69-51.9-30.4-112.79-81.6-137.53-162.03t-.01-.02c-.7-2.25-1.36-4.54-2-6.84-1.27-4.5-2.42-9.1-3.4-13.79-.66-3.15-1.23-6.29-1.73-9.42h0c-4.11-25.85-2.82-50.65,2.91-72.01,2.87-10.69,6.84-20.52,11.81-29.17,11.23-19.58,27.49-33.16,47.36-37.22.87-.18,1.74-.34,2.61-.47,7.02-1.13,14.09-1,21.08.27,7.96,1.42,15.83,4.32,23.42,8.5,3.46,1.91,6.85,4.08,10.18,6.5,26.45,19.25,48.33,54.36,57.3,97.15-7.57-36.56-4.22-71.66,7.28-98.56,1.22-2.89,2.56-5.69,3.97-8.38,2.46-4.65,5.18-9,8.15-12.99,2.03-2.72,4.17-5.28,6.43-7.66,9.63-10.18,21.31-17.15,34.59-19.86,48.31-9.87,99.63,40.3,114.62,112.07.97,4.69,1.77,9.36,2.4,13.99,6.06,42.4.44,81.67-11.17,116.52Z"/><path class="cls-1" d="M323.46,8c44.44,0,88.61,47.6,102.33,113.31.97,4.69,1.77,9.36,2.4,13.99,6.06,42.4.44,81.67-11.17,116.52-13.52,40.67-35.19,75.34-55.93,102-29.31,37.69-56.77,59.37-56.77,59.37l-.06-.26s-13.02-3.51-32.91-11.68c-4.6-1.89-9.56-4.02-14.82-6.42-5.78-2.64-11.92-5.6-18.3-8.9h-.01c-6.28-3.23-12.79-6.79-19.45-10.69-51.9-30.4-112.79-81.6-137.53-162.03t-.01-.02c-.7-2.25-1.36-4.54-2-6.84-1.27-4.5-2.42-9.1-3.4-13.79-.66-3.15-1.23-6.29-1.73-9.42h0c-4.11-25.85-2.82-50.65,2.91-72.01,2.87-10.69,6.84-20.52,11.81-29.17,11.23-19.58,27.49-33.16,47.36-37.22.87-.18,1.74-.34,2.61-.47,3.22-.52,6.45-.77,9.68-.77,3.81,0,7.62.35,11.41,1.04,7.96,1.42,15.83,4.32,23.42,8.5,3.46,1.91,6.85,4.08,10.18,6.5,26.45,19.25,48.33,54.36,57.3,97.15-7.57-36.56-4.22-71.66,7.28-98.56,1.22-2.89,2.56-5.69,3.97-8.38,2.46-4.65,5.18-9,8.15-12.99,2.03-2.72,4.17-5.28,6.43-7.66,9.63-10.18,21.31-17.15,34.59-19.86,4.08-.83,8.18-1.24,12.28-1.24M323.46,0h0c-4.66,0-9.34.47-13.89,1.4-14.63,2.99-27.68,10.45-38.8,22.2-2.43,2.57-4.8,5.38-7.03,8.37-3.18,4.28-6.15,9-8.81,14.04-1.56,2.96-2.99,5.98-4.27,9-6.08,14.23-9.88,30.1-11.33,46.85-1.22-2.26-2.49-4.49-3.81-6.69-10.35-17.29-23.27-31.85-37.36-42.11-3.58-2.61-7.29-4.98-11.02-7.03-8.48-4.67-17.19-7.82-25.88-9.37-4.25-.77-8.57-1.17-12.81-1.17-3.65,0-7.32.29-10.91.87-.95.14-1.93.32-3,.54-21.58,4.41-39.8,18.61-52.68,41.07-5.3,9.23-9.53,19.69-12.59,31.08-6.18,23.03-7.25,49.03-3.11,75.18,0,.05.01.1.02.15.51,3.24,1.12,6.54,1.8,9.8.99,4.73,2.18,9.55,3.53,14.34.67,2.41,1.36,4.79,2.06,7.03.02.07.05.15.07.22,11.6,37.58,31.89,72.12,60.3,102.65,22.26,23.92,49.43,45.36,80.76,63.71,6.52,3.81,13.19,7.48,19.83,10.9.08.04.16.08.24.12,6.03,3.11,12.23,6.12,18.42,8.95,4.89,2.23,9.97,4.44,15.1,6.54,16.07,6.6,27.71,10.22,32.04,11.48.42.24.86.44,1.33.61.86.3,1.75.45,2.64.45,1.77,0,3.53-.59,4.96-1.72,1.15-.91,28.56-22.72,58.13-60.74,26.07-33.52,45.32-68.64,57.21-104.39,13.31-39.95,17.18-80.38,11.5-120.15-.65-4.8-1.49-9.68-2.48-14.51-6.89-32.98-21.65-63.18-41.57-85.06C371.73,12.3,347.37,0,323.46,0h0Z"/><path class="cls-3" d="M208.54,94.43c-11.7,0-21.23,9.42-21.23,21s9.52,21,21.23,21,21.23-9.42,21.23-21-9.52-21-21.23-21Z"/><path class="cls-1" d="M208.54,85.43c-16.72,0-30.32,13.46-30.32,30s13.6,30,30.32,30,30.32-13.46,30.32-30-13.6-30-30.32-30ZM208.54,136.43c-11.7,0-21.23-9.42-21.23-21s9.52-21,21.23-21,21.23,9.42,21.23,21-9.52,21-21.23,21Z"/></g></svg>